<!-- Generated by Nexo PlantUML generator. Do not edit. -->
<svg xmlns="http://www.w3.org/2000/svg" xmlns:xlink="http://www.w3.org/1999/xlink" version="1.1" data-diagram-type="SEQUENCE" style="width:1210px;height:1344px;background:#FFFFFF;" width="1210px" height="1344px" viewBox="0 0 1210 1344" zoomAndPan="magnify" preserveAspectRatio="none" contentStyleType="text/css"><?plantuml 1.2026.8?><defs/><g font-family="sans-serif" lengthAdjust="spacing"><g class="title" data-source-line="1"><text x="476.386" y="29.533" fill="#000" font-size="14" textLength="255.965" font-weight="700">US-005 - Sign in - SD level 3 - Backend</text></g><rect x="13" y="222.977" width="1170.771" height="1086.625" fill="none" style="stroke:#000;stroke-width:1.5;"/><rect x="32" y="681.492" width="942.585" height="614.109" fill="none" style="stroke:#000;stroke-width:1.5;"/><rect x="51" y="953.195" width="898.585" height="328.406" fill="none" style="stroke:#000;stroke-width:1.5;"/><g><title>Web App</title><rect x="63.5" y="81.219" width="8" height="1252.383" fill="#000" fill-opacity="0"/><line x1="67" y1="81.219" x2="67" y2="1333.602" style="stroke:#181818;stroke-width:0.5;stroke-dasharray:5,5;"/></g><g><title></title><rect x="62" y="125.57" width="10" height="1198.031" fill="#FFF" style="stroke:#181818;stroke-width:1;"/></g><g><title>AuthController</title><rect x="199.787" y="81.219" width="8" height="1252.383" fill="#000" fill-opacity="0"/><line x1="203.287" y1="81.219" x2="203.287" y2="1333.602" style="stroke:#181818;stroke-width:0.5;stroke-dasharray:5,5;"/></g><g><title></title><rect x="198.287" y="180.625" width="10" height="1142.977" fill="#FFF" style="stroke:#181818;stroke-width:1;"/></g><g><title>AuthService</title><rect x="386.665" y="81.219" width="8" height="1252.383" fill="#000" fill-opacity="0"/><line x1="390.165" y1="81.219" x2="390.165" y2="1333.602" style="stroke:#181818;stroke-width:0.5;stroke-dasharray:5,5;"/></g><g><title></title><rect x="385.165" y="210.977" width="10" height="1112.625" fill="#FFF" style="stroke:#181818;stroke-width:1;"/></g><g><title>IAccountRepository</title><rect x="598.11" y="81.219" width="8" height="1252.383" fill="#000" fill-opacity="0"/><line x1="601.61" y1="81.219" x2="601.61" y2="1333.602" style="stroke:#181818;stroke-width:0.5;stroke-dasharray:5,5;"/></g><g><title></title><rect x="596.61" y="386.922" width="10" height="282.57" fill="#FFF" style="stroke:#181818;stroke-width:1;"/></g><g><title>PasswordHasher.Account.</title><rect x="769.575" y="81.219" width="8" height="1252.383" fill="#000" fill-opacity="0"/><line x1="773.075" y1="81.219" x2="773.075" y2="1333.602" style="stroke:#181818;stroke-width:0.5;stroke-dasharray:5,5;"/></g><g><title></title><rect x="768.075" y="894.492" width="10" height="46.703" fill="#FFF" style="stroke:#181818;stroke-width:1;"/></g><g><title>ITokenService</title><rect x="925.085" y="81.219" width="8" height="1252.383" fill="#000" fill-opacity="0"/><line x1="928.585" y1="81.219" x2="928.585" y2="1333.602" style="stroke:#181818;stroke-width:0.5;stroke-dasharray:5,5;"/></g><g><title></title><rect x="923.585" y="1133.492" width="10" height="30.352" fill="#FFF" style="stroke:#181818;stroke-width:1;"/></g><g><title>NexoDbContext</title><rect x="1043.24" y="81.219" width="8" height="1252.383" fill="#000" fill-opacity="0"/><line x1="1046.74" y1="81.219" x2="1046.74" y2="1333.602" style="stroke:#181818;stroke-width:0.5;stroke-dasharray:5,5;"/></g><g><title></title><rect x="1041.74" y="466.328" width="10" height="140.109" fill="#FFF" style="stroke:#181818;stroke-width:1;"/></g><g><title>Database</title><rect x="1159.271" y="81.219" width="8" height="1252.383" fill="#000" fill-opacity="0"/><line x1="1162.771" y1="81.219" x2="1162.771" y2="1333.602" style="stroke:#181818;stroke-width:0.5;stroke-dasharray:5,5;"/></g><g><title></title><rect x="1157.771" y="529.383" width="10" height="30.352" fill="#FFF" style="stroke:#181818;stroke-width:1;"/></g><rect x="31.207" y="48.609" width="71.586" height="31.609" fill="#EAF2F8" style="stroke:#181818;stroke-width:0.5;" rx="2.5" ry="2.5"/><text x="38.207" y="70.143" fill="#000" font-size="14" textLength="57.586">Web App</text><rect x="151.542" y="48.609" width="103.489" height="31.609" fill="#EAF2F8" style="stroke:#181818;stroke-width:0.5;" rx="2.5" ry="2.5"/><text x="158.542" y="70.143" fill="#000" font-size="14" textLength="89.489">AuthController</text><rect x="345.424" y="48.609" width="89.482" height="31.609" fill="#EAF2F8" style="stroke:#181818;stroke-width:0.5;" rx="2.5" ry="2.5"/><text x="352.424" y="70.143" fill="#000" font-size="14" textLength="75.482">AuthService</text><rect x="533.914" y="48.609" width="135.393" height="31.609" fill="#EAF2F8" style="stroke:#181818;stroke-width:0.5;" rx="2.5" ry="2.5"/><text x="540.914" y="70.143" fill="#000" font-size="14" textLength="121.393">IAccountRepository</text><rect x="679.307" y="48.609" width="187.537" height="31.609" fill="#EAF2F8" style="stroke:#181818;stroke-width:0.5;" rx="2.5" ry="2.5"/><text x="686.307" y="70.143" fill="#000" font-size="14" textLength="173.537">PasswordHasher&lt;Account></text><rect x="876.844" y="48.609" width="103.482" height="31.609" fill="#EAF2F8" style="stroke:#181818;stroke-width:0.5;" rx="2.5" ry="2.5"/><text x="883.844" y="70.143" fill="#000" font-size="14" textLength="89.482">ITokenService</text><rect x="990.326" y="48.609" width="112.827" height="31.609" fill="#EAF2F8" style="stroke:#181818;stroke-width:0.5;" rx="2.5" ry="2.5"/><text x="997.326" y="70.143" fill="#000" font-size="14" textLength="98.827">NexoDbContext</text><rect x="1125.806" y="48.609" width="73.931" height="31.609" fill="#EAF2F8" style="stroke:#181818;stroke-width:0.5;" rx="2.5" ry="2.5"/><text x="1132.806" y="70.143" fill="#000" font-size="14" textLength="59.931">Database</text><path d="M163.932,94.219 L163.932,120.219 L1201.932,120.219 L1201.932,104.219 L1191.932,94.219 L163.932,94.219" style="stroke:#181818;stroke-width:0.5;" fill="#FFF8DC"/><path d="M1191.932,94.219 L1191.932,104.219 L1201.932,104.219 L1191.932,94.219" style="stroke:#181818;stroke-width:0.5;" fill="#FFF8DC"/><text x="340.358" y="112.714" fill="#000" font-size="13" textLength="676.343">Password flow only. Explicit Active-status checks, OAuth linking,\nand sign-in 401 handling in HttpClient remain open.</text><polygon points="186.287,176.625,196.287,180.625,186.287,184.625,190.287,180.625" fill="#181818" style="stroke:#181818;stroke-width:1;stroke-linejoin:miter;stroke-miterlimit:10;"/><line x1="72" y1="180.625" x2="192.287" y2="180.625" style="stroke:#181818;stroke-width:1;"/><text x="94.118" y="159.417" fill="#000" font-size="13" font-weight="700">1</text><text x="123.061" y="143.065" fill="#000" font-size="13" textLength="35.395">POST</text><text x="105.348" y="159.417" fill="#000" font-size="13" textLength="70.821">/auth/sign-in</text><text x="127.394" y="175.769" fill="#000" font-size="13" textLength="26.73">(dto)</text><polygon points="373.165,206.977,383.165,210.977,373.165,214.977,377.165,210.977" fill="#181818" style="stroke:#181818;stroke-width:1;stroke-linejoin:miter;stroke-miterlimit:10;"/><line x1="208.287" y1="210.977" x2="379.165" y2="210.977" style="stroke:#181818;stroke-width:1;"/><text x="259.316" y="206.12" fill="#000" font-size="13" font-weight="700">2</text><text x="270.546" y="206.12" fill="#000" font-size="13" textLength="63.591">SignIn(dto)</text><path d="M13,222.977 L73.171,222.977 L73.171,231.328 L63.171,241.328 L13,241.328 L13,222.977" style="stroke:#000;stroke-width:1.5;" fill="#EEE"/><rect x="13" y="222.977" width="1170.771" height="1086.625" fill="none" style="stroke:#000;stroke-width:1.5;"/><text x="28" y="237.472" fill="#000" font-size="13" textLength="15.171" font-weight="700">alt</text><text x="88.171" y="236.396" fill="#000" font-size="11" textLength="179.083" font-weight="700">[Missing or invalid required fields]</text><polygon points="219.287,286.031,209.287,290.031,219.287,294.031,215.287,290.031" fill="#181818" style="stroke:#181818;stroke-width:1;stroke-linejoin:miter;stroke-miterlimit:10;"/><line x1="213.287" y1="290.031" x2="384.165" y2="290.031" style="stroke:#181818;stroke-width:1;stroke-dasharray:2,2;"/><text x="262.563" y="276.999" fill="#000" font-size="13" font-weight="700">3</text><text x="273.792" y="268.823" fill="#000" font-size="13" textLength="57.097">Validation</text><text x="284.637" y="285.175" fill="#000" font-size="13" textLength="35.407">failure</text><polygon points="83,332.734,73,336.734,83,340.734,79,336.734" fill="#181818" style="stroke:#181818;stroke-width:1;stroke-linejoin:miter;stroke-miterlimit:10;"/><line x1="77" y1="336.734" x2="197.287" y2="336.734" style="stroke:#181818;stroke-width:1;stroke-dasharray:2,2;"/><text x="105.312" y="323.702" fill="#000" font-size="13" font-weight="700">4</text><text x="116.542" y="315.526" fill="#000" font-size="13" textLength="21.69">400</text><text x="138.232" y="315.526" fill="#000" font-size="13"> </text><text x="141.844" y="315.526" fill="#000" font-size="13" textLength="23.131">Bad</text><text x="116.549" y="331.878" fill="#000" font-size="13" textLength="48.42">Request</text><line x1="13" y1="345.734" x2="1183.771" y2="345.734" style="stroke:#000;stroke-width:1;stroke-dasharray:2,2;"/><text x="18" y="359.153" fill="#000" font-size="11" textLength="63.545" font-weight="700">[Valid input]</text><polygon points="584.61,382.922,594.61,386.922,584.61,390.922,588.61,386.922" fill="#181818" style="stroke:#181818;stroke-width:1;stroke-linejoin:miter;stroke-miterlimit:10;"/><line x1="395.165" y1="386.922" x2="590.61" y2="386.922" style="stroke:#181818;stroke-width:1;"/><text x="404.665" y="382.065" fill="#000" font-size="13" font-weight="700">5</text><text x="415.895" y="382.065" fill="#000" font-size="13" textLength="171.215">FindByEmailAsync(dto.Email)</text><polygon points="1029.74,462.328,1039.74,466.328,1029.74,470.328,1033.74,466.328" fill="#181818" style="stroke:#181818;stroke-width:1;stroke-linejoin:miter;stroke-miterlimit:10;"/><line x1="606.61" y1="466.328" x2="1035.74" y2="466.328" style="stroke:#181818;stroke-width:1;"/><text x="786.403" y="436.944" fill="#000" font-size="13" font-weight="700">6</text><text x="812.09" y="412.417" fill="#000" font-size="13" textLength="35.401">Query</text><text x="797.633" y="428.769" fill="#000" font-size="13" textLength="46.973">Account</text><text x="844.605" y="428.769" fill="#000" font-size="13"> </text><text x="848.217" y="428.769" fill="#000" font-size="13" textLength="13.73">by</text><text x="813.537" y="445.12" fill="#000" font-size="13" textLength="32.506">Email</text><text x="798.366" y="461.472" fill="#000" font-size="13" textLength="62.848">(dto.Email)</text><polygon points="1145.771,525.383,1155.771,529.383,1145.771,533.383,1149.771,529.383" fill="#181818" style="stroke:#181818;stroke-width:1;stroke-linejoin:miter;stroke-miterlimit:10;"/><line x1="1051.74" y1="529.383" x2="1151.771" y2="529.383" style="stroke:#181818;stroke-width:1;"/><text x="1066.983" y="508.175" fill="#000" font-size="13" font-weight="700">7</text><text x="1085.085" y="491.823" fill="#000" font-size="13" textLength="50.572">SELECT</text><text x="1078.213" y="508.175" fill="#000" font-size="13" textLength="46.973">Account</text><text x="1125.186" y="508.175" fill="#000" font-size="13"> </text><text x="1128.798" y="508.175" fill="#000" font-size="13" textLength="13.73">by</text><text x="1094.117" y="524.526" fill="#000" font-size="13" textLength="32.506">Email</text><polygon points="1062.74,555.734,1052.74,559.734,1062.74,563.734,1058.74,559.734" fill="#181818" style="stroke:#181818;stroke-width:1;stroke-linejoin:miter;stroke-miterlimit:10;"/><line x1="1056.74" y1="559.734" x2="1156.771" y2="559.734" style="stroke:#181818;stroke-width:1;stroke-dasharray:2,2;"/><text x="1063.74" y="554.878" fill="#000" font-size="13" font-weight="700">8</text><text x="1074.97" y="554.878" fill="#000" font-size="13" textLength="35.401">Query</text><text x="1110.371" y="554.878" fill="#000" font-size="13"> </text><text x="1113.982" y="554.878" fill="#000" font-size="13" textLength="31.789">result</text><polygon points="617.61,602.438,607.61,606.438,617.61,610.438,613.61,606.438" fill="#181818" style="stroke:#181818;stroke-width:1;stroke-linejoin:miter;stroke-miterlimit:10;"/><line x1="611.61" y1="606.438" x2="1040.74" y2="606.438" style="stroke:#181818;stroke-width:1;stroke-dasharray:2,2;"/><text x="783.518" y="593.405" fill="#000" font-size="13" font-weight="700">9</text><text x="794.748" y="585.229" fill="#000" font-size="13" textLength="70.084">Materialized</text><text x="813.896" y="601.581" fill="#000" font-size="13" textLength="31.789">result</text><polygon points="406.165,665.492,396.165,669.492,406.165,673.492,402.165,669.492" fill="#181818" style="stroke:#181818;stroke-width:1;stroke-linejoin:miter;stroke-miterlimit:10;"/><line x1="400.165" y1="669.492" x2="595.61" y2="669.492" style="stroke:#181818;stroke-width:1;stroke-dasharray:2,2;"/><text x="455.586" y="648.284" fill="#000" font-size="13" textLength="14.46" font-weight="700">10</text><text x="483.079" y="631.933" fill="#000" font-size="13" textLength="44.078">existing</text><text x="474.046" y="648.284" fill="#000" font-size="13" textLength="46.973">Account</text><text x="521.019" y="648.284" fill="#000" font-size="13"> </text><text x="524.63" y="648.284" fill="#000" font-size="13" textLength="11.559">or</text><text x="495" y="664.636" fill="#000" font-size="13" textLength="20.236">null</text><path d="M32,681.492 L92.171,681.492 L92.171,689.844 L82.171,699.844 L32,699.844 L32,681.492" style="stroke:#000;stroke-width:1.5;" fill="#EEE"/><rect x="32" y="681.492" width="942.585" height="614.109" fill="none" style="stroke:#000;stroke-width:1.5;"/><text x="47" y="695.987" fill="#000" font-size="13" textLength="15.171" font-weight="700">alt</text><text x="107.171" y="694.911" fill="#000" font-size="11" textLength="241.425" font-weight="700">[No account, or account has no password set]</text><polygon points="219.287,760.898,209.287,764.898,219.287,768.898,215.287,764.898" fill="#181818" style="stroke:#181818;stroke-width:1;stroke-linejoin:miter;stroke-miterlimit:10;"/><line x1="213.287" y1="764.898" x2="384.165" y2="764.898" style="stroke:#181818;stroke-width:1;stroke-dasharray:2,2;"/><text x="220.287" y="743.69" fill="#000" font-size="13" textLength="14.46" font-weight="700">11</text><text x="290.062" y="727.339" fill="#000" font-size="13" textLength="31.789">throw</text><text x="238.747" y="743.69" fill="#000" font-size="13" textLength="134.418">UnauthorizedException</text><text x="280.308" y="760.042" fill="#000" font-size="13" textLength="51.295">(generic)</text><polygon points="83,807.602,73,811.602,83,815.602,79,811.602" fill="#181818" style="stroke:#181818;stroke-width:1;stroke-linejoin:miter;stroke-miterlimit:10;"/><line x1="77" y1="811.602" x2="197.287" y2="811.602" style="stroke:#181818;stroke-width:1;stroke-dasharray:2,2;"/><text x="87.25" y="798.569" fill="#000" font-size="13" textLength="14.46" font-weight="700">12</text><text x="133.529" y="790.394" fill="#000" font-size="13" textLength="21.69">401</text><text x="105.71" y="806.745" fill="#000" font-size="13" textLength="77.327">Unauthorized</text><line x1="32" y1="820.602" x2="974.585" y2="820.602" style="stroke:#000;stroke-width:1;stroke-dasharray:2,2;"/><text x="37" y="834.021" fill="#000" font-size="11" textLength="136.915" font-weight="700">[Account has a password]</text><polygon points="756.075,890.492,766.075,894.492,756.075,898.492,760.075,894.492" fill="#181818" style="stroke:#181818;stroke-width:1;stroke-linejoin:miter;stroke-miterlimit:10;"/><line x1="395.165" y1="894.492" x2="762.075" y2="894.492" style="stroke:#181818;stroke-width:1;"/><text x="478.096" y="873.284" fill="#000" font-size="13" textLength="14.46" font-weight="700">13</text><text x="496.556" y="856.933" fill="#000" font-size="13" textLength="188.589">VerifyHashedPassword(account,</text><text x="520.759" y="873.284" fill="#000" font-size="13" textLength="140.182">account.PasswordHash,</text><text x="549.305" y="889.636" fill="#000" font-size="13" textLength="83.091">dto.Password)</text><polygon points="406.165,937.195,396.165,941.195,406.165,945.195,402.165,941.195" fill="#181818" style="stroke:#181818;stroke-width:1;stroke-linejoin:miter;stroke-miterlimit:10;"/><line x1="400.165" y1="941.195" x2="767.075" y2="941.195" style="stroke:#181818;stroke-width:1;stroke-dasharray:2,2;"/><text x="544.581" y="928.163" fill="#000" font-size="13" textLength="14.46" font-weight="700">14</text><text x="565.564" y="919.987" fill="#000" font-size="13" textLength="35.401">match</text><text x="600.965" y="919.987" fill="#000" font-size="13"> </text><text x="604.577" y="919.987" fill="#000" font-size="13" textLength="11.559">or</text><text x="563.041" y="936.339" fill="#000" font-size="13" textLength="55.618">mismatch</text><path d="M51,953.195 L111.171,953.195 L111.171,961.547 L101.171,971.547 L51,971.547 L51,953.195" style="stroke:#000;stroke-width:1.5;" fill="#EEE"/><rect x="51" y="953.195" width="898.585" height="328.406" fill="none" style="stroke:#000;stroke-width:1.5;"/><text x="66" y="967.69" fill="#000" font-size="13" textLength="15.171" font-weight="700">alt</text><text x="126.171" y="966.614" fill="#000" font-size="11" textLength="143.634" font-weight="700">[Password does not match]</text><polygon points="219.287,1032.602,209.287,1036.602,219.287,1040.602,215.287,1036.602" fill="#181818" style="stroke:#181818;stroke-width:1;stroke-linejoin:miter;stroke-miterlimit:10;"/><line x1="213.287" y1="1036.602" x2="384.165" y2="1036.602" style="stroke:#181818;stroke-width:1;stroke-dasharray:2,2;"/><text x="220.287" y="1015.394" fill="#000" font-size="13" textLength="14.46" font-weight="700">15</text><text x="290.062" y="999.042" fill="#000" font-size="13" textLength="31.789">throw</text><text x="238.747" y="1015.394" fill="#000" font-size="13" textLength="134.418">UnauthorizedException</text><text x="280.308" y="1031.745" fill="#000" font-size="13" textLength="51.295">(generic)</text><polygon points="83,1079.305,73,1083.305,83,1087.305,79,1083.305" fill="#181818" style="stroke:#181818;stroke-width:1;stroke-linejoin:miter;stroke-miterlimit:10;"/><line x1="77" y1="1083.305" x2="197.287" y2="1083.305" style="stroke:#181818;stroke-width:1;stroke-dasharray:2,2;"/><text x="87.25" y="1070.272" fill="#000" font-size="13" textLength="14.46" font-weight="700">16</text><text x="133.529" y="1062.097" fill="#000" font-size="13" textLength="21.69">401</text><text x="105.71" y="1078.448" fill="#000" font-size="13" textLength="77.327">Unauthorized</text><line x1="51" y1="1092.305" x2="949.585" y2="1092.305" style="stroke:#000;stroke-width:1;stroke-dasharray:2,2;"/><text x="56" y="1105.724" fill="#000" font-size="11" textLength="106.981" font-weight="700">[Password matches]</text><polygon points="911.585,1129.492,921.585,1133.492,911.585,1137.492,915.585,1133.492" fill="#181818" style="stroke:#181818;stroke-width:1;stroke-linejoin:miter;stroke-miterlimit:10;"/><line x1="395.165" y1="1133.492" x2="917.585" y2="1133.492" style="stroke:#181818;stroke-width:1;"/><text x="577.883" y="1128.636" fill="#000" font-size="13" textLength="14.46" font-weight="700">17</text><text x="596.343" y="1128.636" fill="#000" font-size="13" textLength="144.523">GenerateToken(account)</text><polygon points="406.165,1159.844,396.165,1163.844,406.165,1167.844,402.165,1163.844" fill="#181818" style="stroke:#181818;stroke-width:1;stroke-linejoin:miter;stroke-miterlimit:10;"/><line x1="400.165" y1="1163.844" x2="922.585" y2="1163.844" style="stroke:#181818;stroke-width:1;stroke-dasharray:2,2;"/><text x="636.79" y="1158.987" fill="#000" font-size="13" textLength="14.46" font-weight="700">18</text><text x="655.25" y="1158.987" fill="#000" font-size="13" textLength="26.711">JWT</text><polygon points="219.287,1190.195,209.287,1194.195,219.287,1198.195,215.287,1194.195" fill="#181818" style="stroke:#181818;stroke-width:1;stroke-linejoin:miter;stroke-miterlimit:10;"/><line x1="213.287" y1="1194.195" x2="384.165" y2="1194.195" style="stroke:#181818;stroke-width:1;stroke-dasharray:2,2;"/><text x="254.257" y="1189.339" fill="#000" font-size="13" textLength="14.46" font-weight="700">19</text><text x="272.717" y="1189.339" fill="#000" font-size="13" textLength="66.479">SessionDto</text><polygon points="83,1269.602,73,1273.602,83,1277.602,79,1273.602" fill="#181818" style="stroke:#181818;stroke-width:1;stroke-linejoin:miter;stroke-miterlimit:10;"/><line x1="77" y1="1273.602" x2="197.287" y2="1273.602" style="stroke:#181818;stroke-width:1;stroke-dasharray:2,2;"/><text x="84" y="1244.218" fill="#000" font-size="13" textLength="14.46" font-weight="700">20</text><text x="123.414" y="1219.69" fill="#000" font-size="13" textLength="21.69">204</text><text x="145.104" y="1219.69" fill="#000" font-size="13"> </text><text x="148.715" y="1219.69" fill="#000" font-size="13" textLength="16.618">No</text><text x="121.608" y="1236.042" fill="#000" font-size="13" textLength="45.532">Content</text><text x="108.249" y="1252.394" fill="#000" font-size="13" textLength="72.249">(Set-Cookie:</text><text x="102.46" y="1268.745" fill="#000" font-size="13" textLength="83.827">nexo_session)</text></g></svg>