<!-- Generated by Nexo PlantUML generator. Do not edit. -->
<svg xmlns="http://www.w3.org/2000/svg" xmlns:xlink="http://www.w3.org/1999/xlink" version="1.1" data-diagram-type="CLASS" style="width:3099px;height:608px;background:#FFFFFF;" width="3099px" height="608px" viewBox="0 0 3099 608" zoomAndPan="magnify" preserveAspectRatio="none" contentStyleType="text/css"><?plantuml 1.2026.8?><defs/><g font-family="sans-serif" lengthAdjust="spacing"><g class="title" data-source-line="1"><text x="1455.884" y="24.533" fill="#000" font-size="14" textLength="180.448" font-weight="700">DOMAIN MODEL - LEVEL 3</text></g><!--cluster <<aggregate>> Organization--><g class="cluster" data-qualified-name="..aggregate.. Organization" id="ent0001" data-source-line="15"><path d="M590.5,44.609 L763.431,44.609 A3.75,3.75 0 0 1 765.931,47.109 L772.931,68.219 L871.5,68.219 A2.5,2.5 0 0 1 874,70.719 L874,302.609 A2.5,2.5 0 0 1 871.5,305.109 L590.5,305.109 A2.5,2.5 0 0 1 588,302.609 L588,47.109 A2.5,2.5 0 0 1 590.5,44.609" style="stroke:#000;stroke-width:1.5;" fill="#EBF5FB"/><line x1="588" y1="68.219" x2="772.931" y2="68.219" style="stroke:#000;stroke-width:1.5;"/><text x="592" y="61.143" fill="#000" font-size="14" textLength="171.931" font-weight="700">«aggregate» Organization</text></g><!--cluster <<aggregate>> Account--><g class="cluster" data-qualified-name="..aggregate.. Account" id="ent0005" data-source-line="21"><path d="M900.5,202.609 L1043.872,202.609 A3.75,3.75 0 0 1 1046.372,205.109 L1053.372,226.219 L1194.5,226.219 A2.5,2.5 0 0 1 1197,228.719 L1197,460.609 A2.5,2.5 0 0 1 1194.5,463.109 L900.5,463.109 A2.5,2.5 0 0 1 898,460.609 L898,205.109 A2.5,2.5 0 0 1 900.5,202.609" style="stroke:#000;stroke-width:1.5;" fill="#EBF5FB"/><line x1="898" y1="226.219" x2="1053.372" y2="226.219" style="stroke:#000;stroke-width:1.5;"/><text x="902" y="219.143" fill="#000" font-size="14" textLength="142.372" font-weight="700">«aggregate» Account</text></g><!--cluster <<aggregate>> ExternalLogin--><g class="cluster" data-qualified-name="..aggregate.. ExternalLogin" id="ent0009" data-source-line="27"><path d="M1340.5,360.609 L1521.217,360.609 A3.75,3.75 0 0 1 1523.717,363.109 L1530.717,384.219 L1616.5,384.219 A2.5,2.5 0 0 1 1619,386.719 L1619,591.109 A2.5,2.5 0 0 1 1616.5,593.609 L1340.5,593.609 A2.5,2.5 0 0 1 1338,591.109 L1338,363.109 A2.5,2.5 0 0 1 1340.5,360.609" style="stroke:#000;stroke-width:1.5;" fill="#EBF5FB"/><line x1="1338" y1="384.219" x2="1530.717" y2="384.219" style="stroke:#000;stroke-width:1.5;"/><text x="1342" y="377.143" fill="#000" font-size="14" textLength="179.717" font-weight="700">«aggregate» ExternalLogin</text></g><!--cluster <<aggregate>> Resource--><g class="cluster" data-qualified-name="..aggregate.. Resource" id="ent0013" data-source-line="33"><path d="M2799.5,202.609 L2950.679,202.609 A3.75,3.75 0 0 1 2953.179,205.109 L2960.179,226.219 L2960.5,226.219 A2.5,2.5 0 0 1 2963,228.719 L2963,460.609 A2.5,2.5 0 0 1 2960.5,463.109 L2799.5,463.109 A2.5,2.5 0 0 1 2797,460.609 L2797,205.109 A2.5,2.5 0 0 1 2799.5,202.609" style="stroke:#000;stroke-width:1.5;" fill="#EBF5FB"/><line x1="2797" y1="226.219" x2="2960.179" y2="226.219" style="stroke:#000;stroke-width:1.5;"/><text x="2801" y="219.143" fill="#000" font-size="14" textLength="150.179" font-weight="700">«aggregate» Resource</text></g><!--cluster <<aggregate>> Reservation--><g class="cluster" data-qualified-name="..aggregate.. Reservation" id="ent0016" data-source-line="38"><path d="M2497.5,360.609 L2665.017,360.609 A3.75,3.75 0 0 1 2667.517,363.109 L2674.517,384.219 L2770.5,384.219 A2.5,2.5 0 0 1 2773,386.719 L2773,591.109 A2.5,2.5 0 0 1 2770.5,593.609 L2497.5,593.609 A2.5,2.5 0 0 1 2495,591.109 L2495,363.109 A2.5,2.5 0 0 1 2497.5,360.609" style="stroke:#000;stroke-width:1.5;" fill="#EBF5FB"/><line x1="2495" y1="384.219" x2="2674.517" y2="384.219" style="stroke:#000;stroke-width:1.5;"/><text x="2499" y="377.143" fill="#000" font-size="14" textLength="166.517" font-weight="700">«aggregate» Reservation</text></g><!--cluster <<aggregate>> Loan--><g class="cluster" data-qualified-name="..aggregate.. Loan" id="ent0020" data-source-line="44"><path d="M1645.5,360.609 L1766.313,360.609 A3.75,3.75 0 0 1 1768.813,363.109 L1775.813,384.219 L2066.5,384.219 A2.5,2.5 0 0 1 2069,386.719 L2069,591.109 A2.5,2.5 0 0 1 2066.5,593.609 L1645.5,593.609 A2.5,2.5 0 0 1 1643,591.109 L1643,363.109 A2.5,2.5 0 0 1 1645.5,360.609" style="stroke:#000;stroke-width:1.5;" fill="#EBF5FB"/><line x1="1643" y1="384.219" x2="1775.813" y2="384.219" style="stroke:#000;stroke-width:1.5;"/><text x="1647" y="377.143" fill="#000" font-size="14" textLength="119.813" font-weight="700">«aggregate» Loan</text></g><!--cluster <<aggregate>> Incident--><g class="cluster" data-qualified-name="..aggregate.. Incident" id="ent0025" data-source-line="51"><path d="M2160.5,360.609 L2301.541,360.609 A3.75,3.75 0 0 1 2304.041,363.109 L2311.041,384.219 L2311.5,384.219 A2.5,2.5 0 0 1 2314,386.719 L2314,468.109 A2.5,2.5 0 0 1 2311.5,470.609 L2160.5,470.609 A2.5,2.5 0 0 1 2158,468.109 L2158,363.109 A2.5,2.5 0 0 1 2160.5,360.609" style="stroke:#000;stroke-width:1.5;" fill="#EBF5FB"/><line x1="2158" y1="384.219" x2="2311.041" y2="384.219" style="stroke:#000;stroke-width:1.5;"/><text x="2162" y="377.143" fill="#000" font-size="14" textLength="140.041" font-weight="700">«aggregate» Incident</text></g><!--cluster <<aggregate>> HistoryEntry--><g class="cluster" data-qualified-name="..aggregate.. HistoryEntry" id="ent0027" data-source-line="55"><path d="M8.5,360.609 L179.893,360.609 A3.75,3.75 0 0 1 182.393,363.109 L189.393,384.219 L569.5,384.219 A2.5,2.5 0 0 1 572,386.719 L572,591.109 A2.5,2.5 0 0 1 569.5,593.609 L8.5,593.609 A2.5,2.5 0 0 1 6,591.109 L6,363.109 A2.5,2.5 0 0 1 8.5,360.609" style="stroke:#000;stroke-width:1.5;" fill="#EBF5FB"/><line x1="6" y1="384.219" x2="189.393" y2="384.219" style="stroke:#000;stroke-width:1.5;"/><text x="10" y="377.143" fill="#000" font-size="14" textLength="170.393" font-weight="700">«aggregate» HistoryEntry</text></g><!--cluster <<aggregate>> Notification--><g class="cluster" data-qualified-name="..aggregate.. Notification" id="ent0033" data-source-line="63"><path d="M598.5,360.609 L762.865,360.609 A3.75,3.75 0 0 1 765.365,363.109 L772.365,384.219 L871.5,384.219 A2.5,2.5 0 0 1 874,386.719 L874,591.109 A2.5,2.5 0 0 1 871.5,593.609 L598.5,593.609 A2.5,2.5 0 0 1 596,591.109 L596,363.109 A2.5,2.5 0 0 1 598.5,360.609" style="stroke:#000;stroke-width:1.5;" fill="#EBF5FB"/><line x1="596" y1="384.219" x2="772.365" y2="384.219" style="stroke:#000;stroke-width:1.5;"/><text x="600" y="377.143" fill="#000" font-size="14" textLength="163.365" font-weight="700">«aggregate» Notification</text></g><!--class Organization--><g class="entity" data-qualified-name="..aggregate.. Organization.Organization" id="ent0002" data-source-line="16"><rect x="746.5" y="80.609" width="111.379" height="57.797" fill="#FEF9E7" style="stroke:#181818;stroke-width:0.5;" rx="2.5" ry="2.5"/><ellipse cx="761.5" cy="109.508" rx="11" ry="11" fill="#ADD1B2" style="stroke:#181818;stroke-width:1;"/><path d="M760.359,110.305 L760.359,112.805 L764.688,112.805 L764.688,111.883 Q764.688,111.273 764.922,111.008 Q765.172,110.742 765.547,110.742 Q765.922,110.742 766.156,111.008 Q766.391,111.273 766.391,111.883 L766.391,114.508 L758.391,114.508 Q757.766,114.508 757.5,114.273 Q757.25,114.039 757.25,113.648 Q757.25,113.273 757.516,113.039 Q757.781,112.805 758.391,112.805 L758.656,112.805 L758.656,106.148 L758.391,106.148 Q757.766,106.148 757.5,105.914 Q757.25,105.68 757.25,105.289 Q757.25,104.914 757.5,104.68 Q757.766,104.445 758.391,104.445 L766.016,104.445 L766.016,107.039 Q766.016,107.648 765.781,107.914 Q765.563,108.164 765.172,108.164 Q764.797,108.164 764.563,107.914 Q764.328,107.648 764.328,107.039 L764.328,106.148 L760.359,106.148 L760.359,108.602 L761.844,108.602 Q761.844,107.945 761.969,107.758 Q762.234,107.352 762.703,107.352 Q763.078,107.352 763.313,107.617 Q763.547,107.867 763.547,108.477 L763.547,110.445 Q763.547,110.992 763.422,111.18 Q763.156,111.57 762.703,111.57 Q762.234,111.57 761.969,111.164 Q761.844,110.977 761.844,110.305 L760.359,110.305 Z " fill="#000"/><text x="794.175" y="98.066" fill="#000" font-size="12" textLength="42.029" font-style="italic">«entity»</text><text x="798.177" y="113.16" fill="#000" font-size="12" textLength="34.025" font-style="italic">«root»</text><text x="775.5" y="130.33" fill="#000" font-size="14" textLength="79.379">Organization</text></g><!--class Plan--><g class="entity" data-qualified-name="..aggregate.. Organization.Plan" id="ent0003" data-source-line="17"><rect x="752.5" y="246.109" width="104.717" height="42.703" fill="#D6EAF8" style="stroke:#181818;stroke-width:0.5;" rx="2.5" ry="2.5"/><ellipse cx="767.5" cy="267.461" rx="11" ry="11" fill="#FF8B40" style="stroke:#181818;stroke-width:1;"/><path d="M768.094,270.727 L770.563,264.852 L770.172,264.852 Q769.563,264.852 769.297,264.617 Q769.031,264.383 769.031,263.992 Q769.031,263.617 769.297,263.383 Q769.563,263.148 770.172,263.148 L772.453,263.148 Q773.063,263.148 773.328,263.383 Q773.594,263.617 773.594,263.992 Q773.594,264.461 773.188,264.727 Q773,264.852 772.406,264.852 L768.922,273.211 L767.281,273.211 L763.797,264.852 Q763.203,264.852 763.016,264.727 Q762.609,264.461 762.609,263.992 Q762.609,263.617 762.875,263.383 Q763.141,263.148 763.75,263.148 L766.047,263.148 Q766.656,263.148 766.906,263.383 Q767.172,263.617 767.172,263.992 Q767.172,264.383 766.906,264.617 Q766.656,264.852 766.047,264.852 L765.641,264.852 L768.094,270.727 Z " fill="#000"/><text x="779.5" y="263.566" fill="#000" font-size="12" textLength="76.717" font-style="italic">«valueObject»</text><text x="803.848" y="280.736" fill="#000" font-size="14" textLength="28.021">Plan</text></g><!--class MemberLimit--><g class="entity" data-qualified-name="..aggregate.. Organization.MemberLimit" id="ent0004" data-source-line="18"><rect x="604.5" y="246.109" width="112.903" height="42.703" fill="#D6EAF8" style="stroke:#181818;stroke-width:0.5;" rx="2.5" ry="2.5"/><ellipse cx="619.5" cy="267.461" rx="11" ry="11" fill="#FF8B40" style="stroke:#181818;stroke-width:1;"/><path d="M620.094,270.727 L622.563,264.852 L622.172,264.852 Q621.563,264.852 621.297,264.617 Q621.031,264.383 621.031,263.992 Q621.031,263.617 621.297,263.383 Q621.563,263.148 622.172,263.148 L624.453,263.148 Q625.063,263.148 625.328,263.383 Q625.594,263.617 625.594,263.992 Q625.594,264.461 625.188,264.727 Q625,264.852 624.406,264.852 L620.922,273.211 L619.281,273.211 L615.797,264.852 Q615.203,264.852 615.016,264.727 Q614.609,264.461 614.609,263.992 Q614.609,263.617 614.875,263.383 Q615.141,263.148 615.75,263.148 L618.047,263.148 Q618.656,263.148 618.906,263.383 Q619.172,263.617 619.172,263.992 Q619.172,264.383 618.906,264.617 Q618.656,264.852 618.047,264.852 L617.641,264.852 L620.094,270.727 Z " fill="#000"/><text x="635.593" y="263.566" fill="#000" font-size="12" textLength="76.717" font-style="italic">«valueObject»</text><text x="633.5" y="280.736" fill="#000" font-size="14" textLength="80.903">MemberLimit</text></g><!--class Account--><g class="entity" data-qualified-name="..aggregate.. Account.Account" id="ent0006" data-source-line="22"><rect x="1097.5" y="238.609" width="82.586" height="57.797" fill="#FEF9E7" style="stroke:#181818;stroke-width:0.5;" rx="2.5" ry="2.5"/><ellipse cx="1112.5" cy="267.508" rx="11" ry="11" fill="#ADD1B2" style="stroke:#181818;stroke-width:1;"/><path d="M1111.359,268.305 L1111.359,270.805 L1115.688,270.805 L1115.688,269.883 Q1115.688,269.273 1115.922,269.008 Q1116.172,268.742 1116.547,268.742 Q1116.922,268.742 1117.156,269.008 Q1117.391,269.273 1117.391,269.883 L1117.391,272.508 L1109.391,272.508 Q1108.766,272.508 1108.5,272.273 Q1108.25,272.039 1108.25,271.648 Q1108.25,271.273 1108.516,271.039 Q1108.781,270.805 1109.391,270.805 L1109.656,270.805 L1109.656,264.148 L1109.391,264.148 Q1108.766,264.148 1108.5,263.914 Q1108.25,263.68 1108.25,263.289 Q1108.25,262.914 1108.5,262.68 Q1108.766,262.445 1109.391,262.445 L1117.016,262.445 L1117.016,265.039 Q1117.016,265.648 1116.781,265.914 Q1116.563,266.164 1116.172,266.164 Q1115.797,266.164 1115.563,265.914 Q1115.328,265.648 1115.328,265.039 L1115.328,264.148 L1111.359,264.148 L1111.359,266.602 L1112.844,266.602 Q1112.844,265.945 1112.969,265.758 Q1113.234,265.352 1113.703,265.352 Q1114.078,265.352 1114.313,265.617 Q1114.547,265.867 1114.547,266.477 L1114.547,268.445 Q1114.547,268.992 1114.422,269.18 Q1114.156,269.57 1113.703,269.57 Q1113.234,269.57 1112.969,269.164 Q1112.844,268.977 1112.844,268.305 L1111.359,268.305 Z " fill="#000"/><text x="1130.778" y="256.066" fill="#000" font-size="12" textLength="42.029" font-style="italic">«entity»</text><text x="1134.78" y="271.16" fill="#000" font-size="12" textLength="34.025" font-style="italic">«root»</text><text x="1126.5" y="288.33" fill="#000" font-size="14" textLength="50.586">Account</text></g><!--class PasswordHash--><g class="entity" data-qualified-name="..aggregate.. Account.PasswordHash" id="ent0007" data-source-line="23"><rect x="1055" y="404.109" width="126.151" height="42.703" fill="#D6EAF8" style="stroke:#181818;stroke-width:0.5;" rx="2.5" ry="2.5"/><ellipse cx="1070" cy="425.461" rx="11" ry="11" fill="#FF8B40" style="stroke:#181818;stroke-width:1;"/><path d="M1070.594,428.727 L1073.063,422.852 L1072.672,422.852 Q1072.063,422.852 1071.797,422.617 Q1071.531,422.383 1071.531,421.992 Q1071.531,421.617 1071.797,421.383 Q1072.063,421.148 1072.672,421.148 L1074.953,421.148 Q1075.563,421.148 1075.828,421.383 Q1076.094,421.617 1076.094,421.992 Q1076.094,422.461 1075.688,422.727 Q1075.5,422.852 1074.906,422.852 L1071.422,431.211 L1069.781,431.211 L1066.297,422.852 Q1065.703,422.852 1065.516,422.727 Q1065.109,422.461 1065.109,421.992 Q1065.109,421.617 1065.375,421.383 Q1065.641,421.148 1066.25,421.148 L1068.547,421.148 Q1069.156,421.148 1069.406,421.383 Q1069.672,421.617 1069.672,421.992 Q1069.672,422.383 1069.406,422.617 Q1069.156,422.852 1068.547,422.852 L1068.141,422.852 L1070.594,428.727 Z " fill="#000"/><text x="1092.717" y="421.566" fill="#000" font-size="12" textLength="76.717" font-style="italic">«valueObject»</text><text x="1084" y="438.736" fill="#000" font-size="14" textLength="94.151">PasswordHash</text></g><!--class Role--><g class="entity" data-qualified-name="..aggregate.. Account.Role" id="ent0008" data-source-line="24"><rect x="914.5" y="404.109" width="104.717" height="42.703" fill="#D6EAF8" style="stroke:#181818;stroke-width:0.5;" rx="2.5" ry="2.5"/><ellipse cx="929.5" cy="425.461" rx="11" ry="11" fill="#FF8B40" style="stroke:#181818;stroke-width:1;"/><path d="M930.094,428.727 L932.563,422.852 L932.172,422.852 Q931.563,422.852 931.297,422.617 Q931.031,422.383 931.031,421.992 Q931.031,421.617 931.297,421.383 Q931.563,421.148 932.172,421.148 L934.453,421.148 Q935.063,421.148 935.328,421.383 Q935.594,421.617 935.594,421.992 Q935.594,422.461 935.188,422.727 Q935,422.852 934.406,422.852 L930.922,431.211 L929.281,431.211 L925.797,422.852 Q925.203,422.852 925.016,422.727 Q924.609,422.461 924.609,421.992 Q924.609,421.617 924.875,421.383 Q925.141,421.148 925.75,421.148 L928.047,421.148 Q928.656,421.148 928.906,421.383 Q929.172,421.617 929.172,421.992 Q929.172,422.383 928.906,422.617 Q928.656,422.852 928.047,422.852 L927.641,422.852 L930.094,428.727 Z " fill="#000"/><text x="941.5" y="421.566" fill="#000" font-size="12" textLength="76.717" font-style="italic">«valueObject»</text><text x="965.462" y="438.736" fill="#000" font-size="14" textLength="28.793">Role</text></g><!--class ExternalLogin--><g class="entity" data-qualified-name="..aggregate.. ExternalLogin.ExternalLogin" id="ent0010" data-source-line="28"><rect x="1357" y="396.609" width="117.613" height="57.797" fill="#FEF9E7" style="stroke:#181818;stroke-width:0.5;" rx="2.5" ry="2.5"/><ellipse cx="1372" cy="425.508" rx="11" ry="11" fill="#ADD1B2" style="stroke:#181818;stroke-width:1;"/><path d="M1370.859,426.305 L1370.859,428.805 L1375.188,428.805 L1375.188,427.883 Q1375.188,427.273 1375.422,427.008 Q1375.672,426.742 1376.047,426.742 Q1376.422,426.742 1376.656,427.008 Q1376.891,427.273 1376.891,427.883 L1376.891,430.508 L1368.891,430.508 Q1368.266,430.508 1368,430.273 Q1367.75,430.039 1367.75,429.648 Q1367.75,429.273 1368.016,429.039 Q1368.281,428.805 1368.891,428.805 L1369.156,428.805 L1369.156,422.148 L1368.891,422.148 Q1368.266,422.148 1368,421.914 Q1367.75,421.68 1367.75,421.289 Q1367.75,420.914 1368,420.68 Q1368.266,420.445 1368.891,420.445 L1376.516,420.445 L1376.516,423.039 Q1376.516,423.648 1376.281,423.914 Q1376.063,424.164 1375.672,424.164 Q1375.297,424.164 1375.063,423.914 Q1374.828,423.648 1374.828,423.039 L1374.828,422.148 L1370.859,422.148 L1370.859,424.602 L1372.344,424.602 Q1372.344,423.945 1372.469,423.758 Q1372.734,423.352 1373.203,423.352 Q1373.578,423.352 1373.813,423.617 Q1374.047,423.867 1374.047,424.477 L1374.047,426.445 Q1374.047,426.992 1373.922,427.18 Q1373.656,427.57 1373.203,427.57 Q1372.734,427.57 1372.469,427.164 Q1372.344,426.977 1372.344,426.305 L1370.859,426.305 Z " fill="#000"/><text x="1407.792" y="414.066" fill="#000" font-size="12" textLength="42.029" font-style="italic">«entity»</text><text x="1411.794" y="429.16" fill="#000" font-size="12" textLength="34.025" font-style="italic">«root»</text><text x="1386" y="446.33" fill="#000" font-size="14" textLength="85.613">ExternalLogin</text></g><!--class Provider--><g class="entity" data-qualified-name="..aggregate.. ExternalLogin.Provider" id="ent0011" data-source-line="29"><rect x="1354.5" y="534.609" width="104.717" height="42.703" fill="#D6EAF8" style="stroke:#181818;stroke-width:0.5;" rx="2.5" ry="2.5"/><ellipse cx="1369.5" cy="555.961" rx="11" ry="11" fill="#FF8B40" style="stroke:#181818;stroke-width:1;"/><path d="M1370.094,559.227 L1372.563,553.352 L1372.172,553.352 Q1371.563,553.352 1371.297,553.117 Q1371.031,552.883 1371.031,552.492 Q1371.031,552.117 1371.297,551.883 Q1371.563,551.648 1372.172,551.648 L1374.453,551.648 Q1375.063,551.648 1375.328,551.883 Q1375.594,552.117 1375.594,552.492 Q1375.594,552.961 1375.188,553.227 Q1375,553.352 1374.406,553.352 L1370.922,561.711 L1369.281,561.711 L1365.797,553.352 Q1365.203,553.352 1365.016,553.227 Q1364.609,552.961 1364.609,552.492 Q1364.609,552.117 1364.875,551.883 Q1365.141,551.648 1365.75,551.648 L1368.047,551.648 Q1368.656,551.648 1368.906,551.883 Q1369.172,552.117 1369.172,552.492 Q1369.172,552.883 1368.906,553.117 Q1368.656,553.352 1368.047,553.352 L1367.641,553.352 L1370.094,559.227 Z " fill="#000"/><text x="1381.5" y="552.066" fill="#000" font-size="12" textLength="76.717" font-style="italic">«valueObject»</text><text x="1393.793" y="569.236" fill="#000" font-size="14" textLength="52.131">Provider</text></g><!--class ProviderKey--><g class="entity" data-qualified-name="..aggregate.. ExternalLogin.ProviderKey" id="ent0012" data-source-line="30"><rect x="1495" y="534.609" width="108.255" height="42.703" fill="#D6EAF8" style="stroke:#181818;stroke-width:0.5;" rx="2.5" ry="2.5"/><ellipse cx="1510" cy="555.961" rx="11" ry="11" fill="#FF8B40" style="stroke:#181818;stroke-width:1;"/><path d="M1510.594,559.227 L1513.063,553.352 L1512.672,553.352 Q1512.063,553.352 1511.797,553.117 Q1511.531,552.883 1511.531,552.492 Q1511.531,552.117 1511.797,551.883 Q1512.063,551.648 1512.672,551.648 L1514.953,551.648 Q1515.563,551.648 1515.828,551.883 Q1516.094,552.117 1516.094,552.492 Q1516.094,552.961 1515.688,553.227 Q1515.5,553.352 1514.906,553.352 L1511.422,561.711 L1509.781,561.711 L1506.297,553.352 Q1505.703,553.352 1505.516,553.227 Q1505.109,552.961 1505.109,552.492 Q1505.109,552.117 1505.375,551.883 Q1505.641,551.648 1506.25,551.648 L1508.547,551.648 Q1509.156,551.648 1509.406,551.883 Q1509.672,552.117 1509.672,552.492 Q1509.672,552.883 1509.406,553.117 Q1509.156,553.352 1508.547,553.352 L1508.141,553.352 L1510.594,559.227 Z " fill="#000"/><text x="1523.769" y="552.066" fill="#000" font-size="12" textLength="76.717" font-style="italic">«valueObject»</text><text x="1524" y="569.236" fill="#000" font-size="14" textLength="76.255">ProviderKey</text></g><!--class Resource--><g class="entity" data-qualified-name="..aggregate.. Resource.Resource" id="ent0014" data-source-line="34"><rect x="2813" y="238.609" width="91.917" height="57.797" fill="#FEF9E7" style="stroke:#181818;stroke-width:0.5;" rx="2.5" ry="2.5"/><ellipse cx="2828" cy="267.508" rx="11" ry="11" fill="#ADD1B2" style="stroke:#181818;stroke-width:1;"/><path d="M2826.859,268.305 L2826.859,270.805 L2831.188,270.805 L2831.188,269.883 Q2831.188,269.273 2831.422,269.008 Q2831.672,268.742 2832.047,268.742 Q2832.422,268.742 2832.656,269.008 Q2832.891,269.273 2832.891,269.883 L2832.891,272.508 L2824.891,272.508 Q2824.266,272.508 2824,272.273 Q2823.75,272.039 2823.75,271.648 Q2823.75,271.273 2824.016,271.039 Q2824.281,270.805 2824.891,270.805 L2825.156,270.805 L2825.156,264.148 L2824.891,264.148 Q2824.266,264.148 2824,263.914 Q2823.75,263.68 2823.75,263.289 Q2823.75,262.914 2824,262.68 Q2824.266,262.445 2824.891,262.445 L2832.516,262.445 L2832.516,265.039 Q2832.516,265.648 2832.281,265.914 Q2832.063,266.164 2831.672,266.164 Q2831.297,266.164 2831.063,265.914 Q2830.828,265.648 2830.828,265.039 L2830.828,264.148 L2826.859,264.148 L2826.859,266.602 L2828.344,266.602 Q2828.344,265.945 2828.469,265.758 Q2828.734,265.352 2829.203,265.352 Q2829.578,265.352 2829.813,265.617 Q2830.047,265.867 2830.047,266.477 L2830.047,268.445 Q2830.047,268.992 2829.922,269.18 Q2829.656,269.57 2829.203,269.57 Q2828.734,269.57 2828.469,269.164 Q2828.344,268.977 2828.344,268.305 L2826.859,268.305 Z " fill="#000"/><text x="2850.944" y="256.066" fill="#000" font-size="12" textLength="42.029" font-style="italic">«entity»</text><text x="2854.946" y="271.16" fill="#000" font-size="12" textLength="34.025" font-style="italic">«root»</text><text x="2842" y="288.33" fill="#000" font-size="14" textLength="59.917">Resource</text></g><!--class Type--><g class="entity" data-qualified-name="..aggregate.. Resource.Type" id="ent0015" data-source-line="35"><rect x="2813.5" y="404.109" width="104.717" height="42.703" fill="#D6EAF8" style="stroke:#181818;stroke-width:0.5;" rx="2.5" ry="2.5"/><ellipse cx="2828.5" cy="425.461" rx="11" ry="11" fill="#FF8B40" style="stroke:#181818;stroke-width:1;"/><path d="M2829.094,428.727 L2831.563,422.852 L2831.172,422.852 Q2830.563,422.852 2830.297,422.617 Q2830.031,422.383 2830.031,421.992 Q2830.031,421.617 2830.297,421.383 Q2830.563,421.148 2831.172,421.148 L2833.453,421.148 Q2834.063,421.148 2834.328,421.383 Q2834.594,421.617 2834.594,421.992 Q2834.594,422.461 2834.188,422.727 Q2834,422.852 2833.406,422.852 L2829.922,431.211 L2828.281,431.211 L2824.797,422.852 Q2824.203,422.852 2824.016,422.727 Q2823.609,422.461 2823.609,421.992 Q2823.609,421.617 2823.875,421.383 Q2824.141,421.148 2824.75,421.148 L2827.047,421.148 Q2827.656,421.148 2827.906,421.383 Q2828.172,421.617 2828.172,421.992 Q2828.172,422.383 2827.906,422.617 Q2827.656,422.852 2827.047,422.852 L2826.641,422.852 L2829.094,428.727 Z " fill="#000"/><text x="2840.5" y="421.566" fill="#000" font-size="12" textLength="76.717" font-style="italic">«valueObject»</text><text x="2863.296" y="438.736" fill="#000" font-size="14" textLength="31.124">Type</text></g><!--class Reservation--><g class="entity" data-qualified-name="..aggregate.. Reservation.Reservation" id="ent0017" data-source-line="39"><rect x="2514.5" y="396.609" width="106.703" height="57.797" fill="#FEF9E7" style="stroke:#181818;stroke-width:0.5;" rx="2.5" ry="2.5"/><ellipse cx="2529.5" cy="425.508" rx="11" ry="11" fill="#ADD1B2" style="stroke:#181818;stroke-width:1;"/><path d="M2528.359,426.305 L2528.359,428.805 L2532.688,428.805 L2532.688,427.883 Q2532.688,427.273 2532.922,427.008 Q2533.172,426.742 2533.547,426.742 Q2533.922,426.742 2534.156,427.008 Q2534.391,427.273 2534.391,427.883 L2534.391,430.508 L2526.391,430.508 Q2525.766,430.508 2525.5,430.273 Q2525.25,430.039 2525.25,429.648 Q2525.25,429.273 2525.516,429.039 Q2525.781,428.805 2526.391,428.805 L2526.656,428.805 L2526.656,422.148 L2526.391,422.148 Q2525.766,422.148 2525.5,421.914 Q2525.25,421.68 2525.25,421.289 Q2525.25,420.914 2525.5,420.68 Q2525.766,420.445 2526.391,420.445 L2534.016,420.445 L2534.016,423.039 Q2534.016,423.648 2533.781,423.914 Q2533.563,424.164 2533.172,424.164 Q2532.797,424.164 2532.563,423.914 Q2532.328,423.648 2532.328,423.039 L2532.328,422.148 L2528.359,422.148 L2528.359,424.602 L2529.844,424.602 Q2529.844,423.945 2529.969,423.758 Q2530.234,423.352 2530.703,423.352 Q2531.078,423.352 2531.313,423.617 Q2531.547,423.867 2531.547,424.477 L2531.547,426.445 Q2531.547,426.992 2531.422,427.18 Q2531.156,427.57 2530.703,427.57 Q2530.234,427.57 2529.969,427.164 Q2529.844,426.977 2529.844,426.305 L2528.359,426.305 Z " fill="#000"/><text x="2559.837" y="414.066" fill="#000" font-size="12" textLength="42.029" font-style="italic">«entity»</text><text x="2563.839" y="429.16" fill="#000" font-size="12" textLength="34.025" font-style="italic">«root»</text><text x="2543.5" y="446.33" fill="#000" font-size="14" textLength="74.703">Reservation</text></g><!--class StartAt--><g class="entity" data-qualified-name="..aggregate.. Reservation.StartAt" id="ent0018" data-source-line="40"><rect x="2511.5" y="534.609" width="104.717" height="42.703" fill="#D6EAF8" style="stroke:#181818;stroke-width:0.5;" rx="2.5" ry="2.5"/><ellipse cx="2526.5" cy="555.961" rx="11" ry="11" fill="#FF8B40" style="stroke:#181818;stroke-width:1;"/><path d="M2527.094,559.227 L2529.563,553.352 L2529.172,553.352 Q2528.563,553.352 2528.297,553.117 Q2528.031,552.883 2528.031,552.492 Q2528.031,552.117 2528.297,551.883 Q2528.563,551.648 2529.172,551.648 L2531.453,551.648 Q2532.063,551.648 2532.328,551.883 Q2532.594,552.117 2532.594,552.492 Q2532.594,552.961 2532.188,553.227 Q2532,553.352 2531.406,553.352 L2527.922,561.711 L2526.281,561.711 L2522.797,553.352 Q2522.203,553.352 2522.016,553.227 Q2521.609,552.961 2521.609,552.492 Q2521.609,552.117 2521.875,551.883 Q2522.141,551.648 2522.75,551.648 L2525.047,551.648 Q2525.656,551.648 2525.906,551.883 Q2526.172,552.117 2526.172,552.492 Q2526.172,552.883 2525.906,553.117 Q2525.656,553.352 2525.047,553.352 L2524.641,553.352 L2527.094,559.227 Z " fill="#000"/><text x="2538.5" y="552.066" fill="#000" font-size="12" textLength="76.717" font-style="italic">«valueObject»</text><text x="2555.462" y="569.236" fill="#000" font-size="14" textLength="42.793">StartAt</text></g><!--class EndAt--><g class="entity" data-qualified-name="..aggregate.. Reservation.EndAt" id="ent0019" data-source-line="41"><rect x="2651.5" y="534.609" width="104.717" height="42.703" fill="#D6EAF8" style="stroke:#181818;stroke-width:0.5;" rx="2.5" ry="2.5"/><ellipse cx="2666.5" cy="555.961" rx="11" ry="11" fill="#FF8B40" style="stroke:#181818;stroke-width:1;"/><path d="M2667.094,559.227 L2669.563,553.352 L2669.172,553.352 Q2668.563,553.352 2668.297,553.117 Q2668.031,552.883 2668.031,552.492 Q2668.031,552.117 2668.297,551.883 Q2668.563,551.648 2669.172,551.648 L2671.453,551.648 Q2672.063,551.648 2672.328,551.883 Q2672.594,552.117 2672.594,552.492 Q2672.594,552.961 2672.188,553.227 Q2672,553.352 2671.406,553.352 L2667.922,561.711 L2666.281,561.711 L2662.797,553.352 Q2662.203,553.352 2662.016,553.227 Q2661.609,552.961 2661.609,552.492 Q2661.609,552.117 2661.875,551.883 Q2662.141,551.648 2662.75,551.648 L2665.047,551.648 Q2665.656,551.648 2665.906,551.883 Q2666.172,552.117 2666.172,552.492 Q2666.172,552.883 2665.906,553.117 Q2665.656,553.352 2665.047,553.352 L2664.641,553.352 L2667.094,559.227 Z " fill="#000"/><text x="2678.5" y="552.066" fill="#000" font-size="12" textLength="76.717" font-style="italic">«valueObject»</text><text x="2697.79" y="569.236" fill="#000" font-size="14" textLength="38.138">EndAt</text></g><!--class Loan--><g class="entity" data-qualified-name="..aggregate.. Loan.Loan" id="ent0021" data-source-line="45"><rect x="1888" y="396.609" width="70.029" height="57.797" fill="#FEF9E7" style="stroke:#181818;stroke-width:0.5;" rx="2.5" ry="2.5"/><ellipse cx="1903" cy="425.508" rx="11" ry="11" fill="#ADD1B2" style="stroke:#181818;stroke-width:1;"/><path d="M1901.859,426.305 L1901.859,428.805 L1906.188,428.805 L1906.188,427.883 Q1906.188,427.273 1906.422,427.008 Q1906.672,426.742 1907.047,426.742 Q1907.422,426.742 1907.656,427.008 Q1907.891,427.273 1907.891,427.883 L1907.891,430.508 L1899.891,430.508 Q1899.266,430.508 1899,430.273 Q1898.75,430.039 1898.75,429.648 Q1898.75,429.273 1899.016,429.039 Q1899.281,428.805 1899.891,428.805 L1900.156,428.805 L1900.156,422.148 L1899.891,422.148 Q1899.266,422.148 1899,421.914 Q1898.75,421.68 1898.75,421.289 Q1898.75,420.914 1899,420.68 Q1899.266,420.445 1899.891,420.445 L1907.516,420.445 L1907.516,423.039 Q1907.516,423.648 1907.281,423.914 Q1907.063,424.164 1906.672,424.164 Q1906.297,424.164 1906.063,423.914 Q1905.828,423.648 1905.828,423.039 L1905.828,422.148 L1901.859,422.148 L1901.859,424.602 L1903.344,424.602 Q1903.344,423.945 1903.469,423.758 Q1903.734,423.352 1904.203,423.352 Q1904.578,423.352 1904.813,423.617 Q1905.047,423.867 1905.047,424.477 L1905.047,426.445 Q1905.047,426.992 1904.922,427.18 Q1904.656,427.57 1904.203,427.57 Q1903.734,427.57 1903.469,427.164 Q1903.344,426.977 1903.344,426.305 L1901.859,426.305 Z " fill="#000"/><text x="1915" y="414.066" fill="#000" font-size="12" textLength="42.029" font-style="italic">«entity»</text><text x="1919.002" y="429.16" fill="#000" font-size="12" textLength="34.025" font-style="italic">«root»</text><text x="1920.442" y="446.33" fill="#000" font-size="14" textLength="31.145">Loan</text></g><!--class RequestedAt--><g class="entity" data-qualified-name="..aggregate.. Loan.RequestedAt" id="ent0022" data-source-line="46"><rect x="1659.5" y="534.609" width="112.944" height="42.703" fill="#D6EAF8" style="stroke:#181818;stroke-width:0.5;" rx="2.5" ry="2.5"/><ellipse cx="1674.5" cy="555.961" rx="11" ry="11" fill="#FF8B40" style="stroke:#181818;stroke-width:1;"/><path d="M1675.094,559.227 L1677.563,553.352 L1677.172,553.352 Q1676.563,553.352 1676.297,553.117 Q1676.031,552.883 1676.031,552.492 Q1676.031,552.117 1676.297,551.883 Q1676.563,551.648 1677.172,551.648 L1679.453,551.648 Q1680.063,551.648 1680.328,551.883 Q1680.594,552.117 1680.594,552.492 Q1680.594,552.961 1680.188,553.227 Q1680,553.352 1679.406,553.352 L1675.922,561.711 L1674.281,561.711 L1670.797,553.352 Q1670.203,553.352 1670.016,553.227 Q1669.609,552.961 1669.609,552.492 Q1669.609,552.117 1669.875,551.883 Q1670.141,551.648 1670.75,551.648 L1673.047,551.648 Q1673.656,551.648 1673.906,551.883 Q1674.172,552.117 1674.172,552.492 Q1674.172,552.883 1673.906,553.117 Q1673.656,553.352 1673.047,553.352 L1672.641,553.352 L1675.094,559.227 Z " fill="#000"/><text x="1690.614" y="552.066" fill="#000" font-size="12" textLength="76.717" font-style="italic">«valueObject»</text><text x="1688.5" y="569.236" fill="#000" font-size="14" textLength="80.944">RequestedAt</text></g><!--class DeliveredAt--><g class="entity" data-qualified-name="..aggregate.. Loan.DeliveredAt" id="ent0023" data-source-line="47"><rect x="1807.5" y="534.609" width="104.717" height="42.703" fill="#D6EAF8" style="stroke:#181818;stroke-width:0.5;" rx="2.5" ry="2.5"/><ellipse cx="1822.5" cy="555.961" rx="11" ry="11" fill="#FF8B40" style="stroke:#181818;stroke-width:1;"/><path d="M1823.094,559.227 L1825.563,553.352 L1825.172,553.352 Q1824.563,553.352 1824.297,553.117 Q1824.031,552.883 1824.031,552.492 Q1824.031,552.117 1824.297,551.883 Q1824.563,551.648 1825.172,551.648 L1827.453,551.648 Q1828.063,551.648 1828.328,551.883 Q1828.594,552.117 1828.594,552.492 Q1828.594,552.961 1828.188,553.227 Q1828,553.352 1827.406,553.352 L1823.922,561.711 L1822.281,561.711 L1818.797,553.352 Q1818.203,553.352 1818.016,553.227 Q1817.609,552.961 1817.609,552.492 Q1817.609,552.117 1817.875,551.883 Q1818.141,551.648 1818.75,551.648 L1821.047,551.648 Q1821.656,551.648 1821.906,551.883 Q1822.172,552.117 1822.172,552.492 Q1822.172,552.883 1821.906,553.117 Q1821.656,553.352 1821.047,553.352 L1820.641,553.352 L1823.094,559.227 Z " fill="#000"/><text x="1834.5" y="552.066" fill="#000" font-size="12" textLength="76.717" font-style="italic">«valueObject»</text><text x="1836.676" y="569.236" fill="#000" font-size="14" textLength="72.365">DeliveredAt</text></g><!--class ReturnedAt--><g class="entity" data-qualified-name="..aggregate.. Loan.ReturnedAt" id="ent0024" data-source-line="48"><rect x="1947.5" y="534.609" width="104.717" height="42.703" fill="#D6EAF8" style="stroke:#181818;stroke-width:0.5;" rx="2.5" ry="2.5"/><ellipse cx="1962.5" cy="555.961" rx="11" ry="11" fill="#FF8B40" style="stroke:#181818;stroke-width:1;"/><path d="M1963.094,559.227 L1965.563,553.352 L1965.172,553.352 Q1964.563,553.352 1964.297,553.117 Q1964.031,552.883 1964.031,552.492 Q1964.031,552.117 1964.297,551.883 Q1964.563,551.648 1965.172,551.648 L1967.453,551.648 Q1968.063,551.648 1968.328,551.883 Q1968.594,552.117 1968.594,552.492 Q1968.594,552.961 1968.188,553.227 Q1968,553.352 1967.406,553.352 L1963.922,561.711 L1962.281,561.711 L1958.797,553.352 Q1958.203,553.352 1958.016,553.227 Q1957.609,552.961 1957.609,552.492 Q1957.609,552.117 1957.875,551.883 Q1958.141,551.648 1958.75,551.648 L1961.047,551.648 Q1961.656,551.648 1961.906,551.883 Q1962.172,552.117 1962.172,552.492 Q1962.172,552.883 1961.906,553.117 Q1961.656,553.352 1961.047,553.352 L1960.641,553.352 L1963.094,559.227 Z " fill="#000"/><text x="1974.5" y="552.066" fill="#000" font-size="12" textLength="76.717" font-style="italic">«valueObject»</text><text x="1977.448" y="569.236" fill="#000" font-size="14" textLength="70.82">ReturnedAt</text></g><!--class Incident--><g class="entity" data-qualified-name="..aggregate.. Incident.Incident" id="ent0026" data-source-line="52"><rect x="2210.5" y="396.609" width="81.034" height="57.797" fill="#FEF9E7" style="stroke:#181818;stroke-width:0.5;" rx="2.5" ry="2.5"/><ellipse cx="2225.5" cy="425.508" rx="11" ry="11" fill="#ADD1B2" style="stroke:#181818;stroke-width:1;"/><path d="M2224.359,426.305 L2224.359,428.805 L2228.688,428.805 L2228.688,427.883 Q2228.688,427.273 2228.922,427.008 Q2229.172,426.742 2229.547,426.742 Q2229.922,426.742 2230.156,427.008 Q2230.391,427.273 2230.391,427.883 L2230.391,430.508 L2222.391,430.508 Q2221.766,430.508 2221.5,430.273 Q2221.25,430.039 2221.25,429.648 Q2221.25,429.273 2221.516,429.039 Q2221.781,428.805 2222.391,428.805 L2222.656,428.805 L2222.656,422.148 L2222.391,422.148 Q2221.766,422.148 2221.5,421.914 Q2221.25,421.68 2221.25,421.289 Q2221.25,420.914 2221.5,420.68 Q2221.766,420.445 2222.391,420.445 L2230.016,420.445 L2230.016,423.039 Q2230.016,423.648 2229.781,423.914 Q2229.563,424.164 2229.172,424.164 Q2228.797,424.164 2228.563,423.914 Q2228.328,423.648 2228.328,423.039 L2228.328,422.148 L2224.359,422.148 L2224.359,424.602 L2225.844,424.602 Q2225.844,423.945 2225.969,423.758 Q2226.234,423.352 2226.703,423.352 Q2227.078,423.352 2227.313,423.617 Q2227.547,423.867 2227.547,424.477 L2227.547,426.445 Q2227.547,426.992 2227.422,427.18 Q2227.156,427.57 2226.703,427.57 Q2226.234,427.57 2225.969,427.164 Q2225.844,426.977 2225.844,426.305 L2224.359,426.305 Z " fill="#000"/><text x="2243.002" y="414.066" fill="#000" font-size="12" textLength="42.029" font-style="italic">«entity»</text><text x="2247.004" y="429.16" fill="#000" font-size="12" textLength="34.025" font-style="italic">«root»</text><text x="2239.5" y="446.33" fill="#000" font-size="14" textLength="49.034">Incident</text></g><!--class HistoryEntry--><g class="entity" data-qualified-name="..aggregate.. HistoryEntry.HistoryEntry" id="ent0028" data-source-line="56"><rect x="305" y="396.609" width="108.234" height="57.797" fill="#FEF9E7" style="stroke:#181818;stroke-width:0.5;" rx="2.5" ry="2.5"/><ellipse cx="320" cy="425.508" rx="11" ry="11" fill="#ADD1B2" style="stroke:#181818;stroke-width:1;"/><path d="M318.859,426.305 L318.859,428.805 L323.188,428.805 L323.188,427.883 Q323.188,427.273 323.422,427.008 Q323.672,426.742 324.047,426.742 Q324.422,426.742 324.656,427.008 Q324.891,427.273 324.891,427.883 L324.891,430.508 L316.891,430.508 Q316.266,430.508 316,430.273 Q315.75,430.039 315.75,429.648 Q315.75,429.273 316.016,429.039 Q316.281,428.805 316.891,428.805 L317.156,428.805 L317.156,422.148 L316.891,422.148 Q316.266,422.148 316,421.914 Q315.75,421.68 315.75,421.289 Q315.75,420.914 316,420.68 Q316.266,420.445 316.891,420.445 L324.516,420.445 L324.516,423.039 Q324.516,423.648 324.281,423.914 Q324.063,424.164 323.672,424.164 Q323.297,424.164 323.063,423.914 Q322.828,423.648 322.828,423.039 L322.828,422.148 L318.859,422.148 L318.859,424.602 L320.344,424.602 Q320.344,423.945 320.469,423.758 Q320.734,423.352 321.203,423.352 Q321.578,423.352 321.813,423.617 Q322.047,423.867 322.047,424.477 L322.047,426.445 Q322.047,426.992 321.922,427.18 Q321.656,427.57 321.203,427.57 Q320.734,427.57 320.469,427.164 Q320.344,426.977 320.344,426.305 L318.859,426.305 Z " fill="#000"/><text x="351.103" y="414.066" fill="#000" font-size="12" textLength="42.029" font-style="italic">«entity»</text><text x="355.104" y="429.16" fill="#000" font-size="12" textLength="34.025" font-style="italic">«root»</text><text x="334" y="446.33" fill="#000" font-size="14" textLength="76.234">HistoryEntry</text></g><!--class EntityName--><g class="entity" data-qualified-name="..aggregate.. HistoryEntry.EntityName" id="ent0029" data-source-line="57"><rect x="22.5" y="534.609" width="104.717" height="42.703" fill="#D6EAF8" style="stroke:#181818;stroke-width:0.5;" rx="2.5" ry="2.5"/><ellipse cx="37.5" cy="555.961" rx="11" ry="11" fill="#FF8B40" style="stroke:#181818;stroke-width:1;"/><path d="M38.094,559.227 L40.563,553.352 L40.172,553.352 Q39.563,553.352 39.297,553.117 Q39.031,552.883 39.031,552.492 Q39.031,552.117 39.297,551.883 Q39.563,551.648 40.172,551.648 L42.453,551.648 Q43.063,551.648 43.328,551.883 Q43.594,552.117 43.594,552.492 Q43.594,552.961 43.188,553.227 Q43,553.352 42.406,553.352 L38.922,561.711 L37.281,561.711 L33.797,553.352 Q33.203,553.352 33.016,553.227 Q32.609,552.961 32.609,552.492 Q32.609,552.117 32.875,551.883 Q33.141,551.648 33.75,551.648 L36.047,551.648 Q36.656,551.648 36.906,551.883 Q37.172,552.117 37.172,552.492 Q37.172,552.883 36.906,553.117 Q36.656,553.352 36.047,553.352 L35.641,553.352 L38.094,559.227 Z " fill="#000"/><text x="49.5" y="552.066" fill="#000" font-size="12" textLength="76.717" font-style="italic">«valueObject»</text><text x="51.679" y="569.236" fill="#000" font-size="14" textLength="72.358">EntityName</text></g><!--class EntityId--><g class="entity" data-qualified-name="..aggregate.. HistoryEntry.EntityId" id="ent0030" data-source-line="58"><rect x="162.5" y="534.609" width="104.717" height="42.703" fill="#D6EAF8" style="stroke:#181818;stroke-width:0.5;" rx="2.5" ry="2.5"/><ellipse cx="177.5" cy="555.961" rx="11" ry="11" fill="#FF8B40" style="stroke:#181818;stroke-width:1;"/><path d="M178.094,559.227 L180.563,553.352 L180.172,553.352 Q179.563,553.352 179.297,553.117 Q179.031,552.883 179.031,552.492 Q179.031,552.117 179.297,551.883 Q179.563,551.648 180.172,551.648 L182.453,551.648 Q183.063,551.648 183.328,551.883 Q183.594,552.117 183.594,552.492 Q183.594,552.961 183.188,553.227 Q183,553.352 182.406,553.352 L178.922,561.711 L177.281,561.711 L173.797,553.352 Q173.203,553.352 173.016,553.227 Q172.609,552.961 172.609,552.492 Q172.609,552.117 172.875,551.883 Q173.141,551.648 173.75,551.648 L176.047,551.648 Q176.656,551.648 176.906,551.883 Q177.172,552.117 177.172,552.492 Q177.172,552.883 176.906,553.117 Q176.656,553.352 176.047,553.352 L175.641,553.352 L178.094,559.227 Z " fill="#000"/><text x="189.5" y="552.066" fill="#000" font-size="12" textLength="76.717" font-style="italic">«valueObject»</text><text x="204.514" y="569.236" fill="#000" font-size="14" textLength="46.689">EntityId</text></g><!--class ChangeType--><g class="entity" data-qualified-name="..aggregate.. HistoryEntry.ChangeType" id="ent0031" data-source-line="59"><rect x="303" y="534.609" width="112.165" height="42.703" fill="#D6EAF8" style="stroke:#181818;stroke-width:0.5;" rx="2.5" ry="2.5"/><ellipse cx="318" cy="555.961" rx="11" ry="11" fill="#FF8B40" style="stroke:#181818;stroke-width:1;"/><path d="M318.594,559.227 L321.063,553.352 L320.672,553.352 Q320.063,553.352 319.797,553.117 Q319.531,552.883 319.531,552.492 Q319.531,552.117 319.797,551.883 Q320.063,551.648 320.672,551.648 L322.953,551.648 Q323.563,551.648 323.828,551.883 Q324.094,552.117 324.094,552.492 Q324.094,552.961 323.688,553.227 Q323.5,553.352 322.906,553.352 L319.422,561.711 L317.781,561.711 L314.297,553.352 Q313.703,553.352 313.516,553.227 Q313.109,552.961 313.109,552.492 Q313.109,552.117 313.375,551.883 Q313.641,551.648 314.25,551.648 L316.547,551.648 Q317.156,551.648 317.406,551.883 Q317.672,552.117 317.672,552.492 Q317.672,552.883 317.406,553.117 Q317.156,553.352 316.547,553.352 L316.141,553.352 L318.594,559.227 Z " fill="#000"/><text x="333.724" y="552.066" fill="#000" font-size="12" textLength="76.717" font-style="italic">«valueObject»</text><text x="332" y="569.236" fill="#000" font-size="14" textLength="80.165">ChangeType</text></g><!--class ChangedAt--><g class="entity" data-qualified-name="..aggregate.. HistoryEntry.ChangedAt" id="ent0032" data-source-line="60"><rect x="450.5" y="534.609" width="104.717" height="42.703" fill="#D6EAF8" style="stroke:#181818;stroke-width:0.5;" rx="2.5" ry="2.5"/><ellipse cx="465.5" cy="555.961" rx="11" ry="11" fill="#FF8B40" style="stroke:#181818;stroke-width:1;"/><path d="M466.094,559.227 L468.563,553.352 L468.172,553.352 Q467.563,553.352 467.297,553.117 Q467.031,552.883 467.031,552.492 Q467.031,552.117 467.297,551.883 Q467.563,551.648 468.172,551.648 L470.453,551.648 Q471.063,551.648 471.328,551.883 Q471.594,552.117 471.594,552.492 Q471.594,552.961 471.188,553.227 Q471,553.352 470.406,553.352 L466.922,561.711 L465.281,561.711 L461.797,553.352 Q461.203,553.352 461.016,553.227 Q460.609,552.961 460.609,552.492 Q460.609,552.117 460.875,551.883 Q461.141,551.648 461.75,551.648 L464.047,551.648 Q464.656,551.648 464.906,551.883 Q465.172,552.117 465.172,552.492 Q465.172,552.883 464.906,553.117 Q464.656,553.352 464.047,553.352 L463.641,553.352 L466.094,559.227 Z " fill="#000"/><text x="477.5" y="552.066" fill="#000" font-size="12" textLength="76.717" font-style="italic">«valueObject»</text><text x="480.831" y="569.236" fill="#000" font-size="14" textLength="70.055">ChangedAt</text></g><!--class Notification--><g class="entity" data-qualified-name="..aggregate.. Notification.Notification" id="ent0034" data-source-line="64"><rect x="754.5" y="396.609" width="101.255" height="57.797" fill="#FEF9E7" style="stroke:#181818;stroke-width:0.5;" rx="2.5" ry="2.5"/><ellipse cx="769.5" cy="425.508" rx="11" ry="11" fill="#ADD1B2" style="stroke:#181818;stroke-width:1;"/><path d="M768.359,426.305 L768.359,428.805 L772.688,428.805 L772.688,427.883 Q772.688,427.273 772.922,427.008 Q773.172,426.742 773.547,426.742 Q773.922,426.742 774.156,427.008 Q774.391,427.273 774.391,427.883 L774.391,430.508 L766.391,430.508 Q765.766,430.508 765.5,430.273 Q765.25,430.039 765.25,429.648 Q765.25,429.273 765.516,429.039 Q765.781,428.805 766.391,428.805 L766.656,428.805 L766.656,422.148 L766.391,422.148 Q765.766,422.148 765.5,421.914 Q765.25,421.68 765.25,421.289 Q765.25,420.914 765.5,420.68 Q765.766,420.445 766.391,420.445 L774.016,420.445 L774.016,423.039 Q774.016,423.648 773.781,423.914 Q773.563,424.164 773.172,424.164 Q772.797,424.164 772.563,423.914 Q772.328,423.648 772.328,423.039 L772.328,422.148 L768.359,422.148 L768.359,424.602 L769.844,424.602 Q769.844,423.945 769.969,423.758 Q770.234,423.352 770.703,423.352 Q771.078,423.352 771.313,423.617 Q771.547,423.867 771.547,424.477 L771.547,426.445 Q771.547,426.992 771.422,427.18 Q771.156,427.57 770.703,427.57 Q770.234,427.57 769.969,427.164 Q769.844,426.977 769.844,426.305 L768.359,426.305 Z " fill="#000"/><text x="797.113" y="414.066" fill="#000" font-size="12" textLength="42.029" font-style="italic">«entity»</text><text x="801.115" y="429.16" fill="#000" font-size="12" textLength="34.025" font-style="italic">«root»</text><text x="783.5" y="446.33" fill="#000" font-size="14" textLength="69.255">Notification</text></g><!--class Message--><g class="entity" data-qualified-name="..aggregate.. Notification.Message" id="ent0035" data-source-line="65"><rect x="612.5" y="534.609" width="104.717" height="42.703" fill="#D6EAF8" style="stroke:#181818;stroke-width:0.5;" rx="2.5" ry="2.5"/><ellipse cx="627.5" cy="555.961" rx="11" ry="11" fill="#FF8B40" style="stroke:#181818;stroke-width:1;"/><path d="M628.094,559.227 L630.563,553.352 L630.172,553.352 Q629.563,553.352 629.297,553.117 Q629.031,552.883 629.031,552.492 Q629.031,552.117 629.297,551.883 Q629.563,551.648 630.172,551.648 L632.453,551.648 Q633.063,551.648 633.328,551.883 Q633.594,552.117 633.594,552.492 Q633.594,552.961 633.188,553.227 Q633,553.352 632.406,553.352 L628.922,561.711 L627.281,561.711 L623.797,553.352 Q623.203,553.352 623.016,553.227 Q622.609,552.961 622.609,552.492 Q622.609,552.117 622.875,551.883 Q623.141,551.648 623.75,551.648 L626.047,551.648 Q626.656,551.648 626.906,551.883 Q627.172,552.117 627.172,552.492 Q627.172,552.883 626.906,553.117 Q626.656,553.352 626.047,553.352 L625.641,553.352 L628.094,559.227 Z " fill="#000"/><text x="639.5" y="552.066" fill="#000" font-size="12" textLength="76.717" font-style="italic">«valueObject»</text><text x="649.455" y="569.236" fill="#000" font-size="14" textLength="56.807">Message</text></g><!--class SentAt--><g class="entity" data-qualified-name="..aggregate.. Notification.SentAt" id="ent0036" data-source-line="66"><rect x="752.5" y="534.609" width="104.717" height="42.703" fill="#D6EAF8" style="stroke:#181818;stroke-width:0.5;" rx="2.5" ry="2.5"/><ellipse cx="767.5" cy="555.961" rx="11" ry="11" fill="#FF8B40" style="stroke:#181818;stroke-width:1;"/><path d="M768.094,559.227 L770.563,553.352 L770.172,553.352 Q769.563,553.352 769.297,553.117 Q769.031,552.883 769.031,552.492 Q769.031,552.117 769.297,551.883 Q769.563,551.648 770.172,551.648 L772.453,551.648 Q773.063,551.648 773.328,551.883 Q773.594,552.117 773.594,552.492 Q773.594,552.961 773.188,553.227 Q773,553.352 772.406,553.352 L768.922,561.711 L767.281,561.711 L763.797,553.352 Q763.203,553.352 763.016,553.227 Q762.609,552.961 762.609,552.492 Q762.609,552.117 762.875,551.883 Q763.141,551.648 763.75,551.648 L766.047,551.648 Q766.656,551.648 766.906,551.883 Q767.172,552.117 767.172,552.492 Q767.172,552.883 766.906,553.117 Q766.656,553.352 766.047,553.352 L765.641,553.352 L768.094,559.227 Z " fill="#000"/><text x="779.5" y="552.066" fill="#000" font-size="12" textLength="76.717" font-style="italic">«valueObject»</text><text x="796.845" y="569.236" fill="#000" font-size="14" textLength="42.027">SentAt</text></g><!--class Name--><g class="entity" data-qualified-name="Name" id="ent0037" data-source-line="70"><rect x="2979.5" y="404.109" width="104.717" height="42.703" fill="#D6EAF8" style="stroke:#181818;stroke-width:0.5;" rx="2.5" ry="2.5"/><ellipse cx="2994.5" cy="425.461" rx="11" ry="11" fill="#FF8B40" style="stroke:#181818;stroke-width:1;"/><path d="M2995.094,428.727 L2997.563,422.852 L2997.172,422.852 Q2996.563,422.852 2996.297,422.617 Q2996.031,422.383 2996.031,421.992 Q2996.031,421.617 2996.297,421.383 Q2996.563,421.148 2997.172,421.148 L2999.453,421.148 Q3000.063,421.148 3000.328,421.383 Q3000.594,421.617 3000.594,421.992 Q3000.594,422.461 3000.188,422.727 Q3000,422.852 2999.406,422.852 L2995.922,431.211 L2994.281,431.211 L2990.797,422.852 Q2990.203,422.852 2990.016,422.727 Q2989.609,422.461 2989.609,421.992 Q2989.609,421.617 2989.875,421.383 Q2990.141,421.148 2990.75,421.148 L2993.047,421.148 Q2993.656,421.148 2993.906,421.383 Q2994.172,421.617 2994.172,421.992 Q2994.172,422.383 2993.906,422.617 Q2993.656,422.852 2993.047,422.852 L2992.641,422.852 L2995.094,428.727 Z " fill="#000"/><text x="3006.5" y="421.566" fill="#000" font-size="12" textLength="76.717" font-style="italic">«valueObject»</text><text x="3026.186" y="438.736" fill="#000" font-size="14" textLength="37.345">Name</text></g><!--class Email--><g class="entity" data-qualified-name="Email" id="ent0038" data-source-line="71"><rect x="1216.5" y="404.109" width="104.717" height="42.703" fill="#D6EAF8" style="stroke:#181818;stroke-width:0.5;" rx="2.5" ry="2.5"/><ellipse cx="1231.5" cy="425.461" rx="11" ry="11" fill="#FF8B40" style="stroke:#181818;stroke-width:1;"/><path d="M1232.094,428.727 L1234.563,422.852 L1234.172,422.852 Q1233.563,422.852 1233.297,422.617 Q1233.031,422.383 1233.031,421.992 Q1233.031,421.617 1233.297,421.383 Q1233.563,421.148 1234.172,421.148 L1236.453,421.148 Q1237.063,421.148 1237.328,421.383 Q1237.594,421.617 1237.594,421.992 Q1237.594,422.461 1237.188,422.727 Q1237,422.852 1236.406,422.852 L1232.922,431.211 L1231.281,431.211 L1227.797,422.852 Q1227.203,422.852 1227.016,422.727 Q1226.609,422.461 1226.609,421.992 Q1226.609,421.617 1226.875,421.383 Q1227.141,421.148 1227.75,421.148 L1230.047,421.148 Q1230.656,421.148 1230.906,421.383 Q1231.172,421.617 1231.172,421.992 Q1231.172,422.383 1230.906,422.617 Q1230.656,422.852 1230.047,422.852 L1229.641,422.852 L1232.094,428.727 Z " fill="#000"/><text x="1243.5" y="421.566" fill="#000" font-size="12" textLength="76.717" font-style="italic">«valueObject»</text><text x="1264.355" y="438.736" fill="#000" font-size="14" textLength="35.007">Email</text></g><!--class Description--><g class="entity" data-qualified-name="Description" id="ent0039" data-source-line="72"><rect x="2365.5" y="534.609" width="104.717" height="42.703" fill="#D6EAF8" style="stroke:#181818;stroke-width:0.5;" rx="2.5" ry="2.5"/><ellipse cx="2380.5" cy="555.961" rx="11" ry="11" fill="#FF8B40" style="stroke:#181818;stroke-width:1;"/><path d="M2381.094,559.227 L2383.563,553.352 L2383.172,553.352 Q2382.563,553.352 2382.297,553.117 Q2382.031,552.883 2382.031,552.492 Q2382.031,552.117 2382.297,551.883 Q2382.563,551.648 2383.172,551.648 L2385.453,551.648 Q2386.063,551.648 2386.328,551.883 Q2386.594,552.117 2386.594,552.492 Q2386.594,552.961 2386.188,553.227 Q2386,553.352 2385.406,553.352 L2381.922,561.711 L2380.281,561.711 L2376.797,553.352 Q2376.203,553.352 2376.016,553.227 Q2375.609,552.961 2375.609,552.492 Q2375.609,552.117 2375.875,551.883 Q2376.141,551.648 2376.75,551.648 L2379.047,551.648 Q2379.656,551.648 2379.906,551.883 Q2380.172,552.117 2380.172,552.492 Q2380.172,552.883 2379.906,553.117 Q2379.656,553.352 2379.047,553.352 L2378.641,553.352 L2381.094,559.227 Z " fill="#000"/><text x="2392.5" y="552.066" fill="#000" font-size="12" textLength="76.717" font-style="italic">«valueObject»</text><text x="2395.845" y="569.236" fill="#000" font-size="14" textLength="70.027">Description</text></g><!--class Status--><g class="entity" data-qualified-name="Status" id="ent0040" data-source-line="73"><rect x="2194.5" y="534.609" width="104.717" height="42.703" fill="#D6EAF8" style="stroke:#181818;stroke-width:0.5;" rx="2.5" ry="2.5"/><ellipse cx="2209.5" cy="555.961" rx="11" ry="11" fill="#FF8B40" style="stroke:#181818;stroke-width:1;"/><path d="M2210.094,559.227 L2212.563,553.352 L2212.172,553.352 Q2211.563,553.352 2211.297,553.117 Q2211.031,552.883 2211.031,552.492 Q2211.031,552.117 2211.297,551.883 Q2211.563,551.648 2212.172,551.648 L2214.453,551.648 Q2215.063,551.648 2215.328,551.883 Q2215.594,552.117 2215.594,552.492 Q2215.594,552.961 2215.188,553.227 Q2215,553.352 2214.406,553.352 L2210.922,561.711 L2209.281,561.711 L2205.797,553.352 Q2205.203,553.352 2205.016,553.227 Q2204.609,552.961 2204.609,552.492 Q2204.609,552.117 2204.875,551.883 Q2205.141,551.648 2205.75,551.648 L2208.047,551.648 Q2208.656,551.648 2208.906,551.883 Q2209.172,552.117 2209.172,552.492 Q2209.172,552.883 2208.906,553.117 Q2208.656,553.352 2208.047,553.352 L2207.641,553.352 L2210.094,559.227 Z " fill="#000"/><text x="2221.5" y="552.066" fill="#000" font-size="12" textLength="76.717" font-style="italic">«valueObject»</text><text x="2240.014" y="569.236" fill="#000" font-size="14" textLength="39.689">Status</text></g><!--link Organization to Name--><g class="link" data-entity-1="ent0002" data-entity-2="ent0037" id="lnk41" data-source-line="75" data-link-type="dependency"><path d="M857.59,111.119 C1184.68,114.359 2847.11,133.769 2935,194.609 C3006.44,244.069 3024.959,352.167 3029.849,398.867" style="stroke:#000;stroke-width:1;" fill="none" id="Organization-to-Name" codeLine="75"/><polygon points="3030.37,403.839,3033.411,394.472,3029.849,398.867,3025.454,395.305,3030.37,403.839" fill="#000" style="stroke:#000;stroke-width:1;stroke-linejoin:miter;stroke-miterlimit:10;"/><text x="3012" y="273.104" fill="#000" font-size="13" textLength="20.96">has</text><text x="865.889" y="107.741" fill="#000" font-size="13">1</text><text x="3022.06" y="393.421" fill="#000" font-size="13">1</text></g><!--link Organization to Plan--><g class="link" data-entity-1="ent0002" data-entity-2="ent0003" id="lnk42" data-source-line="76" data-link-type="dependency"><path d="M802.54,138.859 C803.14,169.769 803.985,213.56 804.505,241.04" style="stroke:#000;stroke-width:1;" fill="none" id="Organization-to-Plan" codeLine="76"/><polygon points="804.6,246.039,808.429,236.965,804.505,241.04,800.43,237.117,804.6,246.039" fill="#000" style="stroke:#000;stroke-width:1;stroke-linejoin:miter;stroke-miterlimit:10;"/><text x="804" y="183.104" fill="#000" font-size="13" textLength="20.96">has</text><text x="794.914" y="160.095" fill="#000" font-size="13">1</text><text x="796.575" y="235.309" fill="#000" font-size="13">1</text></g><!--link Organization to MemberLimit--><g class="link" data-entity-1="ent0002" data-entity-2="ent0004" id="lnk43" data-source-line="77" data-link-type="dependency"><path d="M776.47,138.859 C748.53,169.769 707.782,214.849 682.952,242.329" style="stroke:#000;stroke-width:1;" fill="none" id="Organization-to-MemberLimit" codeLine="77"/><polygon points="679.6,246.039,688.602,242.043,682.952,242.329,682.666,236.68,679.6,246.039" fill="#000" style="stroke:#000;stroke-width:1;stroke-linejoin:miter;stroke-miterlimit:10;"/><text x="749" y="183.104" fill="#000" font-size="13" textLength="20.96">has</text><text x="763.467" y="160.095" fill="#000" font-size="13">1</text><text x="676.893" y="235.309" fill="#000" font-size="13">1</text></g><!--link Organization to Account--><g class="link" data-entity-1="ent0002" data-entity-2="ent0006" id="lnk44" data-source-line="78" data-link-type="dependency"><path d="M857.65,136.369 C924.95,167.519 1032.162,217.159 1092.592,245.129" style="stroke:#000;stroke-width:1;" fill="none" id="Organization-to-Account" codeLine="78"/><polygon points="1097.13,247.229,1090.643,239.819,1092.592,245.129,1087.282,247.079,1097.13,247.229" fill="#000" style="stroke:#000;stroke-width:1;stroke-linejoin:miter;stroke-miterlimit:10;"/><text x="961" y="183.104" fill="#000" font-size="13" textLength="20.96">has</text><text x="865.957" y="136.542" fill="#000" font-size="13">1</text><text x="1084.545" y="239.894" fill="#000" font-size="13">*</text></g><!--link Organization to Resource--><g class="link" data-entity-1="ent0002" data-entity-2="ent0014" id="lnk45" data-source-line="79" data-link-type="dependency"><path d="M857.55,114.819 C1153.4,137.259 2535.554,242.081 2807.644,262.711" style="stroke:#000;stroke-width:1;" fill="none" id="Organization-to-Resource" codeLine="79"/><polygon points="2812.63,263.089,2803.958,258.42,2807.644,262.711,2803.353,266.397,2812.63,263.089" fill="#000" style="stroke:#000;stroke-width:1;stroke-linejoin:miter;stroke-miterlimit:10;"/><text x="1769" y="183.104" fill="#000" font-size="13" textLength="20.96">has</text><text x="865.843" y="130.211" fill="#000" font-size="13">1</text><text x="2799.853" y="258.633" fill="#000" font-size="13">*</text></g><!--link Account to Email--><g class="link" data-entity-1="ent0006" data-entity-2="ent0038" id="lnk46" data-source-line="81" data-link-type="dependency"><path d="M1162.54,296.859 C1188.3,327.769 1225.76,372.718 1248.65,400.198" style="stroke:#000;stroke-width:1;" fill="none" id="Account-to-Email" codeLine="81"/><polygon points="1251.85,404.039,1249.163,394.564,1248.65,400.198,1243.016,399.684,1251.85,404.039" fill="#000" style="stroke:#000;stroke-width:1;stroke-linejoin:miter;stroke-miterlimit:10;"/><text x="1201" y="341.104" fill="#000" font-size="13" textLength="20.96">has</text><text x="1159.74" y="318.095" fill="#000" font-size="13">1</text><text x="1239.114" y="393.309" fill="#000" font-size="13">1</text></g><!--link Account to Name--><g class="link" data-entity-1="ent0006" data-entity-2="ent0037" id="lnk47" data-source-line="82" data-link-type="dependency"><path d="M1180.77,268.679 C1398.83,269.289 2408.16,274.889 2716,326.609 C2743.04,331.149 2747.99,339.889 2775,344.609 C2810.07,350.739 2901.49,340.599 2935,352.609 C2965.01,363.369 2989.941,383.3 3008.201,400.51" style="stroke:#000;stroke-width:1;" fill="none" id="Account-to-Name" codeLine="82"/><polygon points="3011.84,403.939,3008.034,394.856,3008.201,400.51,3002.547,400.677,3011.84,403.939" fill="#000" style="stroke:#000;stroke-width:1;stroke-linejoin:miter;stroke-miterlimit:10;"/><text x="2776" y="341.104" fill="#000" font-size="13" textLength="20.96">has</text><text x="1188.036" y="265.114" fill="#000" font-size="13">1</text><text x="2998.258" y="393.181" fill="#000" font-size="13">1</text></g><!--link Account to PasswordHash--><g class="link" data-entity-1="ent0006" data-entity-2="ent0007" id="lnk48" data-source-line="83" data-link-type="dependency"><path d="M1135.2,296.859 C1131.04,327.769 1125.137,371.604 1121.437,399.084" style="stroke:#000;stroke-width:1;" fill="none" id="Account-to-PasswordHash" codeLine="83"/><polygon points="1120.77,404.039,1125.935,395.654,1121.437,399.084,1118.007,394.586,1120.77,404.039" fill="#000" style="stroke:#000;stroke-width:1;stroke-linejoin:miter;stroke-miterlimit:10;"/><text x="1131" y="341.104" fill="#000" font-size="13" textLength="20.96">has</text><text x="1126.761" y="318.095" fill="#000" font-size="13">1</text><text x="1113.576" y="393.309" fill="#000" font-size="13">1</text></g><!--link Account to Role--><g class="link" data-entity-1="ent0006" data-entity-2="ent0008" id="lnk49" data-source-line="84" data-link-type="dependency"><path d="M1103.22,296.929 C1083.57,312.839 1058.99,333.319 1038,352.609 C1019.9,369.239 1003.808,385.589 989.818,400.279" style="stroke:#000;stroke-width:1;" fill="none" id="Account-to-Role" codeLine="84"/><polygon points="986.37,403.899,995.473,400.141,989.818,400.279,989.68,394.623,986.37,403.899" fill="#000" style="stroke:#000;stroke-width:1;stroke-linejoin:miter;stroke-miterlimit:10;"/><text x="1066" y="341.104" fill="#000" font-size="13" textLength="20.96">has</text><text x="1088.55" y="317.826" fill="#000" font-size="13">1</text><text x="983.906" y="393.13" fill="#000" font-size="13">1</text></g><!--link Account to Status--><g class="link" data-entity-1="ent0006" data-entity-2="ent0040" id="lnk50" data-source-line="85" data-link-type="dependency"><path d="M1180.59,268.679 C1354.88,269.319 2020.94,275.119 2098,326.609 C2160.47,368.349 2128.69,417.209 2172,478.609 C2186.69,499.429 2203.443,516.502 2219.283,531.012" style="stroke:#000;stroke-width:1;" fill="none" id="Account-to-Status" codeLine="85"/><polygon points="2222.97,534.389,2219.035,525.361,2219.283,531.012,2213.632,531.26,2222.97,534.389" fill="#000" style="stroke:#000;stroke-width:1;stroke-linejoin:miter;stroke-miterlimit:10;"/><text x="2173" y="431.104" fill="#000" font-size="13" textLength="20.96">has</text><text x="1188.111" y="283.723" fill="#000" font-size="13">1</text><text x="2208.299" y="523.617" fill="#000" font-size="13">1</text></g><!--link Account to ExternalLogin--><g class="link" data-entity-1="ent0006" data-entity-2="ent0010" id="lnk51" data-source-line="86" data-link-type="dependency"><path d="M1180.55,281.239 C1222.53,295.079 1288.27,319.749 1339,352.609 C1357.89,364.849 1372.916,378.373 1387.046,392.833" style="stroke:#000;stroke-width:1;" fill="none" id="Account-to-ExternalLogin" codeLine="86"/><polygon points="1390.54,396.409,1387.111,387.177,1387.046,392.833,1381.389,392.768,1390.54,396.409" fill="#000" style="stroke:#000;stroke-width:1;stroke-linejoin:miter;stroke-miterlimit:10;"/><text x="1325" y="341.104" fill="#000" font-size="13" textLength="20.96">has</text><text x="1188.065" y="298.363" fill="#000" font-size="13">1</text><text x="1379.473" y="385.828" fill="#000" font-size="13">*</text></g><!--link Account to Reservation--><g class="link" data-entity-1="ent0006" data-entity-2="ent0017" id="lnk52" data-source-line="87" data-link-type="dependency"><path d="M1180.63,268.569 C1335.39,268.839 1892.08,273.689 2347,326.609 C2409.86,333.919 2430.16,324.789 2487,352.609 C2508.63,363.199 2525.405,377.605 2540.245,392.955" style="stroke:#000;stroke-width:1;" fill="none" id="Account-to-Reservation" codeLine="87"/><polygon points="2543.72,396.549,2540.34,387.299,2540.245,392.955,2534.589,392.859,2543.72,396.549" fill="#000" style="stroke:#000;stroke-width:1;stroke-linejoin:miter;stroke-miterlimit:10;"/><text x="2468" y="341.104" fill="#000" font-size="13" textLength="49.861">requests</text><text x="1188.158" y="264.944" fill="#000" font-size="13">1</text><text x="2532.568" y="385.539" fill="#000" font-size="13">*</text></g><!--link Account to Loan--><g class="link" data-entity-1="ent0006" data-entity-2="ent0021" id="lnk53" data-source-line="88" data-link-type="dependency"><path d="M1180.57,275.029 C1263.99,288.109 1457.62,319.409 1619,352.609 C1716.75,372.719 1826.184,399.887 1882.734,414.267" style="stroke:#000;stroke-width:1;" fill="none" id="Account-to-Loan" codeLine="88"/><polygon points="1887.58,415.499,1879.843,409.405,1882.734,414.267,1877.872,417.158,1887.58,415.499" fill="#000" style="stroke:#000;stroke-width:1;stroke-linejoin:miter;stroke-miterlimit:10;"/><text x="1568" y="341.104" fill="#000" font-size="13" textLength="49.861">requests</text><text x="1188.207" y="272.409" fill="#000" font-size="13">1</text><text x="1874.762" y="409.317" fill="#000" font-size="13">*</text></g><!--link Account to Incident--><g class="link" data-entity-1="ent0006" data-entity-2="ent0026" id="lnk54" data-source-line="89" data-link-type="dependency"><path d="M1180.74,269.419 C1358.85,273.109 2050.36,289.699 2140,326.609 C2176.13,341.489 2205.207,369.478 2225.537,392.828" style="stroke:#000;stroke-width:1;" fill="none" id="Account-to-Incident" codeLine="89"/><polygon points="2228.82,396.599,2225.927,387.185,2225.537,392.828,2219.893,392.438,2228.82,396.599" fill="#000" style="stroke:#000;stroke-width:1;stroke-linejoin:miter;stroke-miterlimit:10;"/><text x="2172" y="341.104" fill="#000" font-size="13" textLength="40.46">reports</text><text x="1188.001" y="284.522" fill="#000" font-size="13">1</text><text x="2218.116" y="385.6" fill="#000" font-size="13">*</text></g><!--link Account to HistoryEntry--><g class="link" data-entity-1="ent0006" data-entity-2="ent0028" id="lnk55" data-source-line="90" data-link-type="dependency"><path d="M1097.29,275.949 C1045.12,285.049 953.06,300.859 874,313.109 C750.68,332.219 717.84,325.609 596,352.609 C532.39,366.699 465.806,387.726 418.176,403.856" style="stroke:#000;stroke-width:1;" fill="none" id="Account-to-HistoryEntry" codeLine="90"/><polygon points="413.44,405.459,423.247,406.361,418.176,403.856,420.681,398.784,413.44,405.459" fill="#000" style="stroke:#000;stroke-width:1;stroke-linejoin:miter;stroke-miterlimit:10;"/><text x="763" y="341.104" fill="#000" font-size="13" textLength="49.15">changes</text><text x="1082.294" y="273.554" fill="#000" font-size="13">1</text><text x="421.08" y="399.209" fill="#000" font-size="13">*</text></g><!--link Account to Notification--><g class="link" data-entity-1="ent0006" data-entity-2="ent0034" id="lnk56" data-source-line="91" data-link-type="dependency"><path d="M1097.22,278.749 C1047.77,291.729 963.82,316.899 898,352.609 C875.74,364.679 857.051,378.725 839.751,393.325" style="stroke:#000;stroke-width:1;" fill="none" id="Account-to-Notification" codeLine="91"/><polygon points="835.93,396.549,845.388,393.802,839.751,393.325,840.228,387.688,835.93,396.549" fill="#000" style="stroke:#000;stroke-width:1;stroke-linejoin:miter;stroke-miterlimit:10;"/><text x="949" y="341.104" fill="#000" font-size="13" textLength="48.407">receives</text><text x="1082.212" y="295.703" fill="#000" font-size="13">1</text><text x="837.482" y="385.539" fill="#000" font-size="13">*</text></g><!--link ExternalLogin to Provider--><g class="link" data-entity-1="ent0010" data-entity-2="ent0011" id="lnk57" data-source-line="93" data-link-type="dependency"><path d="M1414.02,454.809 C1412.34,478.889 1410.299,507.982 1408.789,529.562" style="stroke:#000;stroke-width:1;" fill="none" id="ExternalLogin-to-Provider" codeLine="93"/><polygon points="1408.44,534.549,1413.058,525.851,1408.789,529.562,1405.078,525.292,1408.44,534.549" fill="#000" style="stroke:#000;stroke-width:1;stroke-linejoin:miter;stroke-miterlimit:10;"/><text x="1412" y="501.104" fill="#000" font-size="13" textLength="20.96">has</text><text x="1405.953" y="476.034" fill="#000" font-size="13">1</text><text x="1400.933" y="523.822" fill="#000" font-size="13">1</text></g><!--link ExternalLogin to ProviderKey--><g class="link" data-entity-1="ent0010" data-entity-2="ent0012" id="lnk58" data-source-line="94" data-link-type="dependency"><path d="M1445.19,454.809 C1470.12,478.889 1501.795,509.495 1524.125,531.075" style="stroke:#000;stroke-width:1;" fill="none" id="ExternalLogin-to-ProviderKey" codeLine="94"/><polygon points="1527.72,534.549,1524.028,525.419,1524.125,531.075,1518.469,531.171,1527.72,534.549" fill="#000" style="stroke:#000;stroke-width:1;stroke-linejoin:miter;stroke-miterlimit:10;"/><text x="1495" y="501.104" fill="#000" font-size="13" textLength="20.96">has</text><text x="1443.552" y="476.034" fill="#000" font-size="13">1</text><text x="1513.747" y="523.822" fill="#000" font-size="13">1</text></g><!--link Resource to Name--><g class="link" data-entity-1="ent0014" data-entity-2="ent0037" id="lnk59" data-source-line="96" data-link-type="dependency"><path d="M2890.33,296.859 C2924.6,327.769 2974.997,373.211 3005.467,400.691" style="stroke:#000;stroke-width:1;" fill="none" id="Resource-to-Name" codeLine="96"/><polygon points="3009.18,404.039,3005.176,395.041,3005.467,400.691,2999.818,400.982,3009.18,404.039" fill="#000" style="stroke:#000;stroke-width:1;stroke-linejoin:miter;stroke-miterlimit:10;"/><text x="2941" y="341.104" fill="#000" font-size="13" textLength="20.96">has</text><text x="2889.102" y="318.095" fill="#000" font-size="13">1</text><text x="3003.818" y="393.309" fill="#000" font-size="13">1</text></g><!--link Resource to Type--><g class="link" data-entity-1="ent0014" data-entity-2="ent0015" id="lnk60" data-source-line="97" data-link-type="dependency"><path d="M2860.27,296.859 C2861.65,327.769 2863.615,371.564 2864.855,399.044" style="stroke:#000;stroke-width:1;" fill="none" id="Resource-to-Type" codeLine="97"/><polygon points="2865.08,404.039,2868.67,394.868,2864.855,399.044,2860.678,395.229,2865.08,404.039" fill="#000" style="stroke:#000;stroke-width:1;stroke-linejoin:miter;stroke-miterlimit:10;"/><text x="2863" y="341.104" fill="#000" font-size="13" textLength="20.96">has</text><text x="2852.842" y="318.095" fill="#000" font-size="13">1</text><text x="2856.909" y="393.309" fill="#000" font-size="13">1</text></g><!--link Resource to Description--><g class="link" data-entity-1="ent0014" data-entity-2="ent0039" id="lnk61" data-source-line="98" data-link-type="dependency"><path d="M2812.81,269.519 C2722.57,272.259 2527.46,283.179 2479,326.609 C2447.73,354.629 2428.16,478.744 2421.29,529.534" style="stroke:#000;stroke-width:1;" fill="none" id="Resource-to-Description" codeLine="98"/><polygon points="2420.62,534.489,2425.79,526.107,2421.29,529.534,2417.862,525.034,2420.62,534.489" fill="#000" style="stroke:#000;stroke-width:1;stroke-linejoin:miter;stroke-miterlimit:10;"/><text x="2463" y="431.104" fill="#000" font-size="13" textLength="20.96">has</text><text x="2797.916" y="284.638" fill="#000" font-size="13">1</text><text x="2413.445" y="523.745" fill="#000" font-size="13">1</text></g><!--link Resource to Status--><g class="link" data-entity-1="ent0014" data-entity-2="ent0040" id="lnk62" data-source-line="99" data-link-type="dependency"><path d="M2812.82,271.499 C2709.22,278.829 2462.35,301.359 2399,352.609 C2345.3,396.059 2349.77,423.589 2308,478.609 C2293.42,497.819 2279.391,515.377 2266.991,530.657" style="stroke:#000;stroke-width:1;" fill="none" id="Resource-to-Status" codeLine="99"/><polygon points="2263.84,534.539,2272.617,530.072,2266.991,530.657,2266.405,525.03,2263.84,534.539" fill="#000" style="stroke:#000;stroke-width:1;stroke-linejoin:miter;stroke-miterlimit:10;"/><text x="2400" y="431.104" fill="#000" font-size="13" textLength="20.96">has</text><text x="2797.618" y="268.36" fill="#000" font-size="13">1</text><text x="2260.664" y="523.809" fill="#000" font-size="13">1</text></g><!--link Resource to Reservation--><g class="link" data-entity-1="ent0014" data-entity-2="ent0017" id="lnk63" data-source-line="100" data-link-type="dependency"><path d="M2812.77,269.939 C2762.53,273.549 2682.07,285.869 2627,326.609 C2603.37,344.089 2589.272,369.498 2579.962,391.718" style="stroke:#000;stroke-width:1;" fill="none" id="Resource-to-Reservation" codeLine="100"/><polygon points="2578.03,396.329,2585.197,389.574,2579.962,391.718,2577.819,386.483,2578.03,396.329" fill="#000" style="stroke:#000;stroke-width:1;stroke-linejoin:miter;stroke-miterlimit:10;"/><text x="2628" y="341.104" fill="#000" font-size="13" textLength="83.808">is reserved via</text><text x="2797.603" y="265.513" fill="#000" font-size="13">1</text><text x="2574.716" y="385.73" fill="#000" font-size="13">*</text></g><!--link Resource to Loan--><g class="link" data-entity-1="ent0014" data-entity-2="ent0021" id="lnk64" data-source-line="101" data-link-type="dependency"><path d="M2812.97,268.749 C2664.8,269.679 2201.78,276.629 2062,326.609 C2019.88,341.669 1982.683,369.925 1956.273,393.175" style="stroke:#000;stroke-width:1;" fill="none" id="Resource-to-Loan" codeLine="101"/><polygon points="1952.52,396.479,1961.918,393.535,1956.273,393.175,1956.632,387.53,1952.52,396.479" fill="#000" style="stroke:#000;stroke-width:1;stroke-linejoin:miter;stroke-miterlimit:10;"/><text x="2063" y="341.104" fill="#000" font-size="13" textLength="72.268">is loaned via</text><text x="2797.793" y="283.804" fill="#000" font-size="13">1</text><text x="1953.434" y="385.913" fill="#000" font-size="13">*</text></g><!--link Resource to Incident--><g class="link" data-entity-1="ent0014" data-entity-2="ent0026" id="lnk65" data-source-line="102" data-link-type="dependency"><path d="M2812.73,269.789 C2679.15,273.629 2299.91,287.889 2261,326.609 C2243.06,344.459 2241.905,369.467 2244.645,391.567" style="stroke:#000;stroke-width:1;" fill="none" id="Resource-to-Incident" codeLine="102"/><polygon points="2245.26,396.529,2248.122,387.106,2244.645,391.567,2240.183,388.09,2245.26,396.529" fill="#000" style="stroke:#000;stroke-width:1;stroke-linejoin:miter;stroke-miterlimit:10;"/><text x="2262" y="341.104" fill="#000" font-size="13" textLength="76.597">is affected by</text><text x="2797.549" y="287.01" fill="#000" font-size="13">1</text><text x="2238.46" y="385.974" fill="#000" font-size="13">*</text></g><!--link Reservation to StartAt--><g class="link" data-entity-1="ent0017" data-entity-2="ent0018" id="lnk66" data-source-line="104" data-link-type="dependency"><path d="M2567.12,454.809 C2566.37,478.889 2565.465,507.972 2564.795,529.552" style="stroke:#000;stroke-width:1;" fill="none" id="Reservation-to-StartAt" codeLine="104"/><polygon points="2564.64,534.549,2568.917,525.678,2564.795,529.552,2560.921,525.43,2564.64,534.549" fill="#000" style="stroke:#000;stroke-width:1;stroke-linejoin:miter;stroke-miterlimit:10;"/><text x="2567" y="501.104" fill="#000" font-size="13" textLength="20.96">has</text><text x="2559.271" y="476.034" fill="#000" font-size="13">1</text><text x="2556.908" y="523.822" fill="#000" font-size="13">1</text></g><!--link Reservation to EndAt--><g class="link" data-entity-1="ent0017" data-entity-2="ent0019" id="lnk67" data-source-line="105" data-link-type="dependency"><path d="M2597.85,454.809 C2623.34,478.889 2655.766,509.536 2678.606,531.116" style="stroke:#000;stroke-width:1;" fill="none" id="Reservation-to-EndAt" codeLine="105"/><polygon points="2682.24,534.549,2678.445,525.461,2678.606,531.116,2672.951,531.276,2682.24,534.549" fill="#000" style="stroke:#000;stroke-width:1;stroke-linejoin:miter;stroke-miterlimit:10;"/><text x="2649" y="501.104" fill="#000" font-size="13" textLength="20.96">has</text><text x="2596.339" y="476.034" fill="#000" font-size="13">1</text><text x="2668.208" y="523.822" fill="#000" font-size="13">1</text></g><!--link Reservation to Status--><g class="link" data-entity-1="ent0017" data-entity-2="ent0040" id="lnk68" data-source-line="106" data-link-type="dependency"><path d="M2532.93,454.719 C2519.37,464.039 2503.22,473.359 2487,478.609 C2426.02,498.349 2403.48,465.379 2343,486.609 C2327.93,491.899 2299.503,513.079 2276.523,531.239" style="stroke:#000;stroke-width:1;" fill="none" id="Reservation-to-Status" codeLine="106"/><polygon points="2272.6,534.339,2282.141,531.898,2276.523,531.239,2277.181,525.621,2272.6,534.339" fill="#000" style="stroke:#000;stroke-width:1;stroke-linejoin:miter;stroke-miterlimit:10;"/><text x="2344" y="501.104" fill="#000" font-size="13" textLength="20.96">has</text><text x="2518.029" y="475.926" fill="#000" font-size="13">1</text><text x="2271.608" y="523.921" fill="#000" font-size="13">1</text></g><!--link Loan to Status--><g class="link" data-entity-1="ent0021" data-entity-2="ent0040" id="lnk69" data-source-line="108" data-link-type="dependency"><path d="M1958.17,447.609 C1987.77,464.639 2031.62,488.409 2072,504.609 C2112.06,520.679 2154.303,532.744 2189.543,541.654" style="stroke:#000;stroke-width:1;" fill="none" id="Loan-to-Status" codeLine="108"/><polygon points="2194.39,542.879,2186.645,536.795,2189.543,541.654,2184.684,544.551,2194.39,542.879" fill="#000" style="stroke:#000;stroke-width:1;stroke-linejoin:miter;stroke-miterlimit:10;"/><text x="2073" y="501.104" fill="#000" font-size="13" textLength="20.96">has</text><text x="1966.166" y="448.049" fill="#000" font-size="13">1</text><text x="2179.187" y="537.304" fill="#000" font-size="13">1</text></g><!--link Loan to RequestedAt--><g class="link" data-entity-1="ent0021" data-entity-2="ent0022" id="lnk70" data-source-line="109" data-link-type="dependency"><path d="M1887.89,448.409 C1849.13,472.469 1791.468,508.263 1753.478,531.843" style="stroke:#000;stroke-width:1;" fill="none" id="Loan-to-RequestedAt" codeLine="109"/><polygon points="1749.23,534.479,1758.986,533.132,1753.478,531.843,1754.767,526.335,1749.23,534.479" fill="#000" style="stroke:#000;stroke-width:1;stroke-linejoin:miter;stroke-miterlimit:10;"/><text x="1826" y="501.104" fill="#000" font-size="13" textLength="20.96">has</text><text x="1872.947" y="449.014" fill="#000" font-size="13">1</text><text x="1750.632" y="523.732" fill="#000" font-size="13">1</text></g><!--link Loan to DeliveredAt--><g class="link" data-entity-1="ent0021" data-entity-2="ent0023" id="lnk71" data-source-line="110" data-link-type="dependency"><path d="M1909.17,454.809 C1897.37,478.889 1882.861,508.48 1872.281,530.06" style="stroke:#000;stroke-width:1;" fill="none" id="Loan-to-DeliveredAt" codeLine="110"/><polygon points="1870.08,534.549,1877.633,528.229,1872.281,530.06,1870.45,524.707,1870.08,534.549" fill="#000" style="stroke:#000;stroke-width:1;stroke-linejoin:miter;stroke-miterlimit:10;"/><text x="1894" y="501.104" fill="#000" font-size="13" textLength="20.96">has</text><text x="1898.616" y="476.034" fill="#000" font-size="13">1</text><text x="1865.003" y="523.822" fill="#000" font-size="13">1</text></g><!--link Loan to ReturnedAt--><g class="link" data-entity-1="ent0021" data-entity-2="ent0024" id="lnk72" data-source-line="111" data-link-type="dependency"><path d="M1939.9,454.809 C1954.33,478.889 1972.18,508.68 1985.11,530.26" style="stroke:#000;stroke-width:1;" fill="none" id="Loan-to-ReturnedAt" codeLine="111"/><polygon points="1987.68,534.549,1986.486,524.773,1985.11,530.26,1979.623,528.885,1987.68,534.549" fill="#000" style="stroke:#000;stroke-width:1;stroke-linejoin:miter;stroke-miterlimit:10;"/><text x="1969" y="501.104" fill="#000" font-size="13" textLength="20.96">has</text><text x="1935.684" y="476.034" fill="#000" font-size="13">1</text><text x="1976.303" y="523.822" fill="#000" font-size="13">1</text></g><!--link Incident to Description--><g class="link" data-entity-1="ent0026" data-entity-2="ent0039" id="lnk73" data-source-line="113" data-link-type="dependency"><path d="M2282.6,454.739 C2294.25,463.709 2308.03,472.809 2322,478.609 C2343.19,487.409 2353.72,474.179 2373,486.609 C2390.58,497.939 2400.725,514.305 2407.945,530.045" style="stroke:#000;stroke-width:1;" fill="none" id="Incident-to-Description" codeLine="113"/><polygon points="2410.03,534.589,2409.913,524.741,2407.945,530.045,2402.642,528.077,2410.03,534.589" fill="#000" style="stroke:#000;stroke-width:1;stroke-linejoin:miter;stroke-miterlimit:10;"/><text x="2391" y="501.104" fill="#000" font-size="13" textLength="20.96">has</text><text x="2281.416" y="475.95" fill="#000" font-size="13">1</text><text x="2399.876" y="523.873" fill="#000" font-size="13">1</text></g><!--link Incident to Status--><g class="link" data-entity-1="ent0026" data-entity-2="ent0040" id="lnk74" data-source-line="114" data-link-type="dependency"><path d="M2247.05,454.629 C2245.81,464.689 2244.61,476.139 2244,486.609 C2243.54,494.599 2243.76,496.609 2244,504.609 C2244.29,514.439 2244.572,520.35 2245.172,529.49" style="stroke:#000;stroke-width:1;" fill="none" id="Incident-to-Status" codeLine="114"/><polygon points="2245.5,534.479,2248.902,525.237,2245.172,529.49,2240.919,525.761,2245.5,534.479" fill="#000" style="stroke:#000;stroke-width:1;stroke-linejoin:miter;stroke-miterlimit:10;"/><text x="2245" y="501.104" fill="#000" font-size="13" textLength="20.96">has</text><text x="2238.534" y="475.817" fill="#000" font-size="13">1</text><text x="2237.166" y="523.732" fill="#000" font-size="13">1</text></g><!--link HistoryEntry to EntityName--><g class="link" data-entity-1="ent0028" data-entity-2="ent0029" id="lnk75" data-source-line="116" data-link-type="dependency"><path d="M304.91,451.079 C251.48,475.259 175.225,509.758 125.015,532.478" style="stroke:#000;stroke-width:1;" fill="none" id="HistoryEntry-to-EntityName" codeLine="116"/><polygon points="120.46,534.539,130.309,534.473,125.015,532.478,127.011,527.185,120.46,534.539" fill="#000" style="stroke:#000;stroke-width:1;stroke-linejoin:miter;stroke-miterlimit:10;"/><text x="226" y="501.104" fill="#000" font-size="13" textLength="20.96">has</text><text x="289.811" y="451.07" fill="#000" font-size="13">1</text><text x="125.333" y="523.809" fill="#000" font-size="13">1</text></g><!--link HistoryEntry to EntityId--><g class="link" data-entity-1="ent0028" data-entity-2="ent0030" id="lnk76" data-source-line="117" data-link-type="dependency"><path d="M327.4,454.809 C300.41,478.889 265.95,509.64 241.77,531.22" style="stroke:#000;stroke-width:1;" fill="none" id="HistoryEntry-to-EntityId" codeLine="117"/><polygon points="238.04,534.549,247.418,531.541,241.77,531.22,242.091,525.572,238.04,534.549" fill="#000" style="stroke:#000;stroke-width:1;stroke-linejoin:miter;stroke-miterlimit:10;"/><text x="292" y="501.104" fill="#000" font-size="13" textLength="20.96">has</text><text x="313.16" y="476.034" fill="#000" font-size="13">1</text><text x="236.608" y="523.822" fill="#000" font-size="13">1</text></g><!--link HistoryEntry to ChangeType--><g class="link" data-entity-1="ent0028" data-entity-2="ent0031" id="lnk77" data-source-line="118" data-link-type="dependency"><path d="M359,454.809 C359,478.889 359,507.969 359,529.549" style="stroke:#000;stroke-width:1;" fill="none" id="HistoryEntry-to-ChangeType" codeLine="118"/><polygon points="359,534.549,363,525.549,359,529.549,355,525.549,359,534.549" fill="#000" style="stroke:#000;stroke-width:1;stroke-linejoin:miter;stroke-miterlimit:10;"/><text x="360" y="501.104" fill="#000" font-size="13" textLength="20.96">has</text><text x="351.278" y="476.034" fill="#000" font-size="13">1</text><text x="351.025" y="523.822" fill="#000" font-size="13">1</text></g><!--link HistoryEntry to ChangedAt--><g class="link" data-entity-1="ent0028" data-entity-2="ent0032" id="lnk78" data-source-line="119" data-link-type="dependency"><path d="M390.6,454.809 C417.59,478.889 452.05,509.64 476.23,531.22" style="stroke:#000;stroke-width:1;" fill="none" id="HistoryEntry-to-ChangedAt" codeLine="119"/><polygon points="479.96,534.549,475.909,525.572,476.23,531.22,470.582,531.541,479.96,534.549" fill="#000" style="stroke:#000;stroke-width:1;stroke-linejoin:miter;stroke-miterlimit:10;"/><text x="444" y="501.104" fill="#000" font-size="13" textLength="20.96">has</text><text x="389.395" y="476.034" fill="#000" font-size="13">1</text><text x="465.568" y="523.822" fill="#000" font-size="13">1</text></g><!--link Notification to Message--><g class="link" data-entity-1="ent0034" data-entity-2="ent0035" id="lnk79" data-source-line="121" data-link-type="dependency"><path d="M774.28,454.809 C748.04,478.889 714.593,509.588 691.083,531.168" style="stroke:#000;stroke-width:1;" fill="none" id="Notification-to-Message" codeLine="121"/><polygon points="687.4,534.549,696.735,531.41,691.083,531.168,691.325,525.517,687.4,534.549" fill="#000" style="stroke:#000;stroke-width:1;stroke-linejoin:miter;stroke-miterlimit:10;"/><text x="740" y="501.104" fill="#000" font-size="13" textLength="20.96">has</text><text x="760.22" y="476.034" fill="#000" font-size="13">1</text><text x="685.788" y="523.822" fill="#000" font-size="13">1</text></g><!--link Notification to SentAt--><g class="link" data-entity-1="ent0034" data-entity-2="ent0036" id="lnk80" data-source-line="122" data-link-type="dependency"><path d="M805,454.809 C805,478.889 805,507.969 805,529.549" style="stroke:#000;stroke-width:1;" fill="none" id="Notification-to-SentAt" codeLine="122"/><polygon points="805,534.549,809,525.549,805,529.549,801,525.549,805,534.549" fill="#000" style="stroke:#000;stroke-width:1;stroke-linejoin:miter;stroke-miterlimit:10;"/><text x="806" y="501.104" fill="#000" font-size="13" textLength="20.96">has</text><text x="797.276" y="476.034" fill="#000" font-size="13">1</text><text x="797.088" y="523.822" fill="#000" font-size="13">1</text></g></g></svg>