<!-- Generated by Nexo PlantUML generator. Do not edit. -->
<svg xmlns="http://www.w3.org/2000/svg" xmlns:xlink="http://www.w3.org/1999/xlink" version="1.1" data-diagram-type="SEQUENCE" style="width:816px;height:852px;background:#FFFFFF;" width="816px" height="852px" viewBox="0 0 816 852" zoomAndPan="magnify" preserveAspectRatio="none" contentStyleType="text/css"><?plantuml 1.2026.8?><defs/><g font-family="sans-serif" lengthAdjust="spacing"><g class="title" data-source-line="1"><text x="157.704" y="27.995" fill="#000" font-size="14" textLength="499.516" font-weight="700">US-006 - Choose plan before registering - SD level 3 - Frontend</text></g><g><title>Prospective Admin</title><rect x="74.923" y="123.594" width="8" height="718.25" fill="#000" fill-opacity="0"/><line x1="78.423" y1="123.594" x2="78.423" y2="841.844" style="stroke:#181818;stroke-width:0.5;stroke-dasharray:5,5;"/></g><g><title>ChoosePlanPage</title><rect x="252.187" y="123.594" width="8" height="718.25" fill="#000" fill-opacity="0"/><line x1="255.687" y1="123.594" x2="255.687" y2="841.844" style="stroke:#181818;stroke-width:0.5;stroke-dasharray:5,5;"/></g><g><title></title><rect x="250.687" y="233.258" width="10" height="352.992" fill="#FFF" style="stroke:#181818;stroke-width:1;"/></g><g><title></title><rect x="250.687" y="645.648" width="10" height="178.195" fill="#FFF" style="stroke:#181818;stroke-width:1;"/></g><g><title>PlanPicker</title><rect x="432.554" y="123.594" width="8" height="718.25" fill="#000" fill-opacity="0"/><line x1="436.054" y1="123.594" x2="436.054" y2="841.844" style="stroke:#181818;stroke-width:0.5;stroke-dasharray:5,5;"/></g><g><title></title><rect x="431.054" y="482.586" width="10" height="59.398" fill="#FFF" style="stroke:#181818;stroke-width:1;"/></g><g><title></title><rect x="431.054" y="674.781" width="10" height="44.266" fill="#FFF" style="stroke:#181818;stroke-width:1;"/></g><g><title>authService</title><rect x="534.477" y="123.594" width="8" height="718.25" fill="#000" fill-opacity="0"/><line x1="537.977" y1="123.594" x2="537.977" y2="841.844" style="stroke:#181818;stroke-width:0.5;stroke-dasharray:5,5;"/></g><g><title></title><rect x="532.977" y="262.391" width="10" height="191.063" fill="#FFF" style="stroke:#181818;stroke-width:1;"/></g><g><title>HttpClient</title><rect x="646.105" y="123.594" width="8" height="718.25" fill="#000" fill-opacity="0"/><line x1="649.605" y1="123.594" x2="649.605" y2="841.844" style="stroke:#181818;stroke-width:0.5;stroke-dasharray:5,5;"/></g><g><title></title><rect x="644.605" y="291.523" width="10" height="132.797" fill="#FFF" style="stroke:#181818;stroke-width:1;"/></g><g><title>Nexo API</title><rect x="764.155" y="123.594" width="8" height="718.25" fill="#000" fill-opacity="0"/><line x1="767.655" y1="123.594" x2="767.655" y2="841.844" style="stroke:#181818;stroke-width:0.5;stroke-dasharray:5,5;"/></g><g><title></title><rect x="762.655" y="335.789" width="10" height="44.266" fill="#FFF" style="stroke:#181818;stroke-width:1;"/></g><text x="10" y="120.292" fill="#000" font-size="14" textLength="130.847">Prospective Admin</text><ellipse cx="78.423" cy="55.797" rx="8" ry="8" fill="#FEF9E7" style="stroke:#181818;stroke-width:0.5;"/><path d="M78.423,63.797 L78.423,90.797 M65.423,71.797 L91.423,71.797 M78.423,90.797 L65.423,105.797 M78.423,90.797 L91.423,105.797" style="stroke:#181818;stroke-width:0.5;" fill="none"/><rect x="190.69" y="92.297" width="129.992" height="30.297" fill="#EAF2F8" style="stroke:#181818;stroke-width:0.5;" rx="2.5" ry="2.5"/><text x="197.69" y="112.292" fill="#000" font-size="14" textLength="115.992">ChoosePlanPage</text><rect x="392.909" y="92.297" width="86.29" height="30.297" fill="#EAF2F8" style="stroke:#181818;stroke-width:0.5;" rx="2.5" ry="2.5"/><text x="399.909" y="112.292" fill="#000" font-size="14" textLength="72.29">PlanPicker</text><rect x="489.199" y="92.297" width="97.556" height="30.297" fill="#EAF2F8" style="stroke:#181818;stroke-width:0.5;" rx="2.5" ry="2.5"/><text x="496.199" y="112.292" fill="#000" font-size="14" textLength="83.556">authService</text><rect x="607.144" y="92.297" width="84.923" height="30.297" fill="#EAF2F8" style="stroke:#181818;stroke-width:0.5;" rx="2.5" ry="2.5"/><text x="614.144" y="112.292" fill="#000" font-size="14" textLength="70.923">HttpClient</text><rect x="729.388" y="92.297" width="76.535" height="30.297" fill="#EAF2F8" style="stroke:#181818;stroke-width:0.5;" rx="2.5" ry="2.5"/><text x="736.388" y="112.292" fill="#000" font-size="14" textLength="62.535">Nexo API</text><path d="M209.055,136.594 L209.055,176.594 L814.055,176.594 L814.055,146.594 L804.055,136.594 L209.055,136.594" style="stroke:#181818;stroke-width:0.5;" fill="#FFF8DC"/><path d="M804.055,136.594 L804.055,146.594 L814.055,146.594 L804.055,136.594" style="stroke:#181818;stroke-width:0.5;" fill="#FFF8DC"/><text x="270.803" y="153.661" fill="#000" font-size="13" textLength="472.735">authService already holds the US-001/US-003 registration calls; listPlans</text><text x="270.803" y="168.793" fill="#000" font-size="13" textLength="429.076">is proposed as one more method on it, not a new feature module.</text><polygon points="238.687,229.258,248.687,233.258,238.687,237.258,242.687,233.258" fill="#181818" style="stroke:#181818;stroke-width:1;stroke-linejoin:miter;stroke-miterlimit:10;"/><line x1="78.423" y1="233.258" x2="244.687" y2="233.258" style="stroke:#181818;stroke-width:1;"/><text x="119.702" y="213.059" fill="#000" font-size="13" font-weight="700">1</text><text x="140.983" y="197.926" fill="#000" font-size="13" textLength="34.722">Open</text><text x="175.705" y="197.926" fill="#000" font-size="13"> </text><text x="179.837" y="197.926" fill="#000" font-size="13" textLength="21.334">the</text><text x="132.747" y="213.059" fill="#000" font-size="13" textLength="76.661">register-org</text><text x="159.582" y="228.192" fill="#000" font-size="13" textLength="22.991">link</text><polygon points="520.977,258.391,530.977,262.391,520.977,266.391,524.977,262.391" fill="#181818" style="stroke:#181818;stroke-width:1;stroke-linejoin:miter;stroke-miterlimit:10;"/><line x1="260.687" y1="262.391" x2="526.977" y2="262.391" style="stroke:#181818;stroke-width:1;"/><text x="358.475" y="257.325" fill="#000" font-size="13" font-weight="700">2</text><text x="371.521" y="257.325" fill="#000" font-size="13" textLength="63.667">listPlans()</text><polygon points="632.605,287.523,642.605,291.523,632.605,295.523,636.605,291.523" fill="#181818" style="stroke:#181818;stroke-width:1;stroke-linejoin:miter;stroke-miterlimit:10;"/><line x1="542.977" y1="291.523" x2="638.605" y2="291.523" style="stroke:#181818;stroke-width:1;"/><text x="552.477" y="286.458" fill="#000" font-size="13" font-weight="700">3</text><text x="565.522" y="286.458" fill="#000" font-size="13" textLength="26.229">GET</text><text x="591.75" y="286.458" fill="#000" font-size="13"> </text><text x="595.883" y="286.458" fill="#000" font-size="13" textLength="39.222">/plans</text><polygon points="750.655,331.789,760.655,335.789,750.655,339.789,754.655,335.789" fill="#181818" style="stroke:#181818;stroke-width:1;stroke-linejoin:miter;stroke-miterlimit:10;"/><line x1="654.605" y1="335.789" x2="756.655" y2="335.789" style="stroke:#181818;stroke-width:1;"/><text x="677.256" y="323.157" fill="#000" font-size="13" font-weight="700">4</text><text x="698.405" y="315.59" fill="#000" font-size="13" textLength="33.497">HTTP</text><text x="690.302" y="330.723" fill="#000" font-size="13" textLength="49.702">request</text><polygon points="665.605,376.055,655.605,380.055,665.605,384.055,661.605,380.055" fill="#181818" style="stroke:#181818;stroke-width:1;stroke-linejoin:miter;stroke-miterlimit:10;"/><line x1="659.605" y1="380.055" x2="761.655" y2="380.055" style="stroke:#181818;stroke-width:1;stroke-dasharray:2,2;"/><text x="666.605" y="367.422" fill="#000" font-size="13" font-weight="700">5</text><text x="691.302" y="359.856" fill="#000" font-size="13" textLength="24.813">200</text><text x="716.115" y="359.856" fill="#000" font-size="13"> </text><text x="720.247" y="359.856" fill="#000" font-size="13" textLength="18.757">OK</text><text x="679.65" y="374.989" fill="#000" font-size="13" textLength="71.005">(PlanDto[])</text><polygon points="553.977,420.32,543.977,424.32,553.977,428.32,549.977,424.32" fill="#181818" style="stroke:#181818;stroke-width:1;stroke-linejoin:miter;stroke-miterlimit:10;"/><line x1="547.977" y1="424.32" x2="643.605" y2="424.32" style="stroke:#181818;stroke-width:1;stroke-dasharray:2,2;"/><text x="555.758" y="411.688" fill="#000" font-size="13" font-weight="700">6</text><text x="568.804" y="404.122" fill="#000" font-size="13" textLength="63.02">Response</text><text x="585.673" y="419.254" fill="#000" font-size="13" textLength="29.282">data</text><polygon points="271.687,449.453,261.687,453.453,271.687,457.453,267.687,453.453" fill="#181818" style="stroke:#181818;stroke-width:1;stroke-linejoin:miter;stroke-miterlimit:10;"/><line x1="265.687" y1="453.453" x2="531.977" y2="453.453" style="stroke:#181818;stroke-width:1;stroke-dasharray:2,2;"/><text x="349.716" y="448.387" fill="#000" font-size="13" font-weight="700">7</text><text x="362.761" y="448.387" fill="#000" font-size="13" textLength="81.187">PlanOption[]</text><polygon points="419.054,478.586,429.054,482.586,419.054,486.586,423.054,482.586" fill="#181818" style="stroke:#181818;stroke-width:1;stroke-linejoin:miter;stroke-miterlimit:10;"/><line x1="260.687" y1="482.586" x2="425.054" y2="482.586" style="stroke:#181818;stroke-width:1;"/><text x="270.187" y="477.52" fill="#000" font-size="13" font-weight="700">8</text><text x="283.232" y="477.52" fill="#000" font-size="13" textLength="138.322">renderOptions(plans)</text><polygon points="271.687,537.984,261.687,541.984,271.687,545.984,267.687,541.984" fill="#181818" style="stroke:#181818;stroke-width:1;stroke-linejoin:miter;stroke-miterlimit:10;"/><line x1="265.687" y1="541.984" x2="430.054" y2="541.984" style="stroke:#181818;stroke-width:1;stroke-dasharray:2,2;"/><text x="304.638" y="521.786" fill="#000" font-size="13" font-weight="700">9</text><text x="318.769" y="506.653" fill="#000" font-size="13" textLength="67.247">Rendered,</text><text x="317.684" y="521.786" fill="#000" font-size="13" textLength="47.411">waiting</text><text x="365.094" y="521.786" fill="#000" font-size="13"> </text><text x="369.227" y="521.786" fill="#000" font-size="13" textLength="17.875">for</text><text x="333.074" y="536.918" fill="#000" font-size="13">a</text><text x="341.04" y="536.918" fill="#000" font-size="13"> </text><text x="345.172" y="536.918" fill="#000" font-size="13" textLength="26.54">pick</text><polygon points="89.423,582.25,79.423,586.25,89.423,590.25,85.423,586.25" fill="#181818" style="stroke:#181818;stroke-width:1;stroke-linejoin:miter;stroke-miterlimit:10;"/><line x1="83.423" y1="586.25" x2="249.687" y2="586.25" style="stroke:#181818;stroke-width:1;stroke-dasharray:2,2;"/><text x="119.87" y="573.618" fill="#000" font-size="13" textLength="18.091" font-weight="700">10</text><text x="141.961" y="566.051" fill="#000" font-size="13" textLength="35.077">Show</text><text x="177.038" y="566.051" fill="#000" font-size="13"> </text><text x="181.17" y="566.051" fill="#000" font-size="13" textLength="28.069">plan</text><text x="151.66" y="581.184" fill="#000" font-size="13" textLength="47.88">options</text><polygon points="238.687,641.648,248.687,645.648,238.687,649.648,242.687,645.648" fill="#181818" style="stroke:#181818;stroke-width:1;stroke-linejoin:miter;stroke-miterlimit:10;"/><line x1="78.423" y1="645.648" x2="244.687" y2="645.648" style="stroke:#181818;stroke-width:1;"/><text x="118.296" y="625.45" fill="#000" font-size="13" textLength="18.091" font-weight="700">11</text><text x="140.387" y="610.317" fill="#000" font-size="13" textLength="26.127">Pick</text><text x="166.514" y="610.317" fill="#000" font-size="13"> </text><text x="170.646" y="610.317" fill="#000" font-size="13">a</text><text x="178.612" y="610.317" fill="#000" font-size="13"> </text><text x="182.745" y="610.317" fill="#000" font-size="13" textLength="28.069">plan</text><text x="163.372" y="625.45" fill="#000" font-size="13" textLength="24.458">and</text><text x="147.337" y="640.583" fill="#000" font-size="13" textLength="56.526">continue</text><polygon points="419.054,670.781,429.054,674.781,419.054,678.781,423.054,674.781" fill="#181818" style="stroke:#181818;stroke-width:1;stroke-linejoin:miter;stroke-miterlimit:10;"/><line x1="260.687" y1="674.781" x2="425.054" y2="674.781" style="stroke:#181818;stroke-width:1;"/><text x="278.372" y="669.715" fill="#000" font-size="13" textLength="18.091" font-weight="700">12</text><text x="300.463" y="669.715" fill="#000" font-size="13" textLength="112.906">handleContinue()</text><polygon points="271.687,715.047,261.687,719.047,271.687,723.047,267.687,719.047" fill="#181818" style="stroke:#181818;stroke-width:1;stroke-linejoin:miter;stroke-miterlimit:10;"/><line x1="265.687" y1="719.047" x2="430.054" y2="719.047" style="stroke:#181818;stroke-width:1;stroke-dasharray:2,2;"/><text x="306.647" y="706.415" fill="#000" font-size="13" textLength="18.091" font-weight="700">13</text><text x="328.738" y="698.848" fill="#000" font-size="13" textLength="56.354">Selected</text><text x="336.838" y="713.981" fill="#000" font-size="13" textLength="40.155">planId</text><polygon points="89.423,819.844,79.423,823.844,89.423,827.844,85.423,823.844" fill="#181818" style="stroke:#181818;stroke-width:1;stroke-linejoin:miter;stroke-miterlimit:10;"/><line x1="83.423" y1="823.844" x2="249.687" y2="823.844" style="stroke:#181818;stroke-width:1;stroke-dasharray:2,2;"/><text x="90.423" y="780.946" fill="#000" font-size="13" textLength="18.091" font-weight="700">14</text><text x="146.446" y="743.114" fill="#000" font-size="13" textLength="58.31">Navigate</text><text x="156.342" y="758.247" fill="#000" font-size="13" textLength="13.051">to</text><text x="169.392" y="758.247" fill="#000" font-size="13"> </text><text x="173.525" y="758.247" fill="#000" font-size="13" textLength="21.334">the</text><text x="112.514" y="773.379" fill="#000" font-size="13" textLength="126.172">organization/admin</text><text x="160.331" y="788.512" fill="#000" font-size="13" textLength="30.539">form</text><text x="144.995" y="803.645" fill="#000" font-size="13" textLength="45.227">(planId</text><text x="190.222" y="803.645" fill="#000" font-size="13"> </text><text x="194.354" y="803.645" fill="#000" font-size="13" textLength="11.851">in</text><text x="147.436" y="818.778" fill="#000" font-size="13" textLength="21.334">the</text><text x="168.77" y="818.778" fill="#000" font-size="13"> </text><text x="172.903" y="818.778" fill="#000" font-size="13" textLength="30.862">URL)</text></g></svg>