<!-- Generated by Nexo PlantUML generator. Do not edit. -->
<svg xmlns="http://www.w3.org/2000/svg" xmlns:xlink="http://www.w3.org/1999/xlink" version="1.1" data-diagram-type="SEQUENCE" style="width:607px;height:934px;background:#FFFFFF;" width="607px" height="934px" viewBox="0 0 607 934" zoomAndPan="magnify" preserveAspectRatio="none" contentStyleType="text/css"><?plantuml 1.2026.8?><defs/><g font-family="sans-serif" lengthAdjust="spacing"><g class="title" data-source-line="1"><text x="148.399" y="29.533" fill="#000" font-size="14" textLength="308.896" font-weight="700">US-003 - Activate member account - SD level 2</text></g><rect x="206.18" y="333.383" width="194.333" height="324.859" fill="none" style="stroke:#000;stroke-width:1.5;"/><rect x="87.899" y="676.242" width="208.545" height="223.352" fill="none" style="stroke:#000;stroke-width:1.5;"/><g><title>Invited Person</title><rect x="100.399" y="126.219" width="8" height="797.375" fill="#000" fill-opacity="0"/><line x1="103.899" y1="126.219" x2="103.899" y2="923.594" style="stroke:#181818;stroke-width:0.5;stroke-dasharray:5,5;"/></g><g><title>Web UI</title><rect x="218.68" y="126.219" width="8" height="797.375" fill="#000" fill-opacity="0"/><line x1="222.18" y1="126.219" x2="222.18" y2="923.594" style="stroke:#181818;stroke-width:0.5;stroke-dasharray:5,5;"/></g><g><title></title><rect x="217.18" y="258.328" width="10" height="655.266" fill="#FFF" style="stroke:#181818;stroke-width:1;"/></g><g><title>Nexo API</title><rect x="381.013" y="126.219" width="8" height="797.375" fill="#000" fill-opacity="0"/><line x1="384.513" y1="126.219" x2="384.513" y2="923.594" style="stroke:#181818;stroke-width:0.5;stroke-dasharray:5,5;"/></g><g><title></title><rect x="379.513" y="321.383" width="10" height="350.859" fill="#FFF" style="stroke:#181818;stroke-width:1;"/></g><text x="56.151" y="123.143" fill="#000" font-size="14" textLength="89.496">Invited Person</text><ellipse cx="103.899" cy="57.109" rx="8" ry="8" fill="#FEF9E7" style="stroke:#181818;stroke-width:0.5;"/><path d="M103.899,65.109 L103.899,92.109 M90.899,73.109 L116.899,73.109 M103.899,92.109 L90.899,107.109 M103.899,92.109 L116.899,107.109" style="stroke:#181818;stroke-width:0.5;" fill="none"/><rect x="191.842" y="93.609" width="60.676" height="31.609" fill="#EAF2F8" style="stroke:#181818;stroke-width:0.5;" rx="2.5" ry="2.5"/><text x="198.842" y="115.143" fill="#000" font-size="14" textLength="46.676">Web UI</text><rect x="347.944" y="93.609" width="73.138" height="31.609" fill="#EAF2F8" style="stroke:#181818;stroke-width:0.5;" rx="2.5" ry="2.5"/><text x="354.944" y="115.143" fill="#000" font-size="14" textLength="59.138">Nexo API</text><path d="M15,139.219 L15,165.219 L591,165.219 L591,149.219 L581,139.219 L15,139.219" style="stroke:#181818;stroke-width:0.5;" fill="#FFF8DC"/><path d="M581,139.219 L581,149.219 L591,149.219 L581,139.219" style="stroke:#181818;stroke-width:0.5;" fill="#FFF8DC"/><text x="21" y="157.714" fill="#000" font-size="13" textLength="555.693">Password flow only. OAuth endpoints and session delivery\nafter activation are not yet specified.</text><polygon points="205.18,254.328,215.18,258.328,205.18,262.328,209.18,258.328" fill="#181818" style="stroke:#181818;stroke-width:1;stroke-linejoin:miter;stroke-miterlimit:10;"/><line x1="103.899" y1="258.328" x2="211.18" y2="258.328" style="stroke:#181818;stroke-width:1;"/><text x="124.941" y="220.769" fill="#000" font-size="13" font-weight="700">1</text><text x="143.033" y="188.065" fill="#000" font-size="13" textLength="46.243">Activate</text><text x="143.388" y="204.417" fill="#000" font-size="13" textLength="45.532">account</text><text x="146.651" y="220.769" fill="#000" font-size="13" textLength="39.006">(email,</text><text x="148.089" y="237.12" fill="#000" font-size="13" textLength="36.131">name,</text><text x="136.171" y="253.472" fill="#000" font-size="13" textLength="59.966">password)</text><polygon points="367.513,317.383,377.513,321.383,367.513,325.383,371.513,321.383" fill="#181818" style="stroke:#181818;stroke-width:1;stroke-linejoin:miter;stroke-miterlimit:10;"/><line x1="227.18" y1="321.383" x2="373.513" y2="321.383" style="stroke:#181818;stroke-width:1;"/><text x="236.68" y="300.175" fill="#000" font-size="13" font-weight="700">2</text><text x="291.264" y="283.823" fill="#000" font-size="13" textLength="35.395">POST</text><text x="251.874" y="300.175" fill="#000" font-size="13" textLength="114.175">/accounts/activation</text><text x="247.91" y="316.526" fill="#000" font-size="13" textLength="122.104">(ActivateAccountDto)</text><path d="M206.18,333.383 L266.351,333.383 L266.351,341.734 L256.351,351.734 L206.18,351.734 L206.18,333.383" style="stroke:#000;stroke-width:1.5;" fill="#EEE"/><rect x="206.18" y="333.383" width="194.333" height="324.859" fill="none" style="stroke:#000;stroke-width:1.5;"/><text x="221.18" y="347.878" fill="#000" font-size="13" textLength="15.171" font-weight="700">alt</text><text x="281.351" y="346.802" fill="#000" font-size="11" textLength="101.471" font-weight="700">[Request accepted]</text><polygon points="238.18,396.438,228.18,400.438,238.18,404.438,234.18,400.438" fill="#181818" style="stroke:#181818;stroke-width:1;stroke-linejoin:miter;stroke-miterlimit:10;"/><line x1="232.18" y1="400.438" x2="378.513" y2="400.438" style="stroke:#181818;stroke-width:1;stroke-dasharray:2,2;"/><text x="259.801" y="387.405" fill="#000" font-size="13" font-weight="700">3</text><text x="286.919" y="379.229" fill="#000" font-size="13" textLength="21.69">200</text><text x="308.609" y="379.229" fill="#000" font-size="13"> </text><text x="312.221" y="379.229" fill="#000" font-size="13" textLength="18.783">OK</text><text x="271.031" y="395.581" fill="#000" font-size="13" textLength="75.861">(AccountDto)</text><line x1="206.18" y1="409.438" x2="400.513" y2="409.438" style="stroke:#000;stroke-width:1;stroke-dasharray:2,2;"/><text x="211.18" y="422.856" fill="#000" font-size="11" textLength="127.139" font-weight="700">[Invalid required details]</text><polygon points="238.18,462.977,228.18,466.977,238.18,470.977,234.18,466.977" fill="#181818" style="stroke:#181818;stroke-width:1;stroke-linejoin:miter;stroke-miterlimit:10;"/><line x1="232.18" y1="466.977" x2="378.513" y2="466.977" style="stroke:#181818;stroke-width:1;stroke-dasharray:2,2;"/><text x="273.515" y="453.944" fill="#000" font-size="13" font-weight="700">4</text><text x="284.745" y="445.769" fill="#000" font-size="13" textLength="21.69">400</text><text x="306.435" y="445.769" fill="#000" font-size="13"> </text><text x="310.047" y="445.769" fill="#000" font-size="13" textLength="23.131">Bad</text><text x="284.751" y="462.12" fill="#000" font-size="13" textLength="48.42">Request</text><line x1="206.18" y1="475.977" x2="400.513" y2="475.977" style="stroke:#000;stroke-width:1;stroke-dasharray:2,2;"/><text x="211.18" y="489.396" fill="#000" font-size="11" textLength="172.369" font-weight="700">[No account registered for email]</text><polygon points="238.18,529.516,228.18,533.516,238.18,537.516,234.18,533.516" fill="#181818" style="stroke:#181818;stroke-width:1;stroke-linejoin:miter;stroke-miterlimit:10;"/><line x1="232.18" y1="533.516" x2="378.513" y2="533.516" style="stroke:#181818;stroke-width:1;stroke-dasharray:2,2;"/><text x="268.462" y="520.483" fill="#000" font-size="13" font-weight="700">5</text><text x="298.116" y="512.308" fill="#000" font-size="13" textLength="21.69">403</text><text x="279.692" y="528.659" fill="#000" font-size="13" textLength="58.538">Forbidden</text><line x1="206.18" y1="542.516" x2="400.513" y2="542.516" style="stroke:#000;stroke-width:1;stroke-dasharray:2,2;"/><text x="211.18" y="555.935" fill="#000" font-size="11" textLength="128.981" font-weight="700">[Account already Active]</text><polygon points="238.18,579.703,228.18,583.703,238.18,587.703,234.18,583.703" fill="#181818" style="stroke:#181818;stroke-width:1;stroke-linejoin:miter;stroke-miterlimit:10;"/><line x1="232.18" y1="583.703" x2="378.513" y2="583.703" style="stroke:#181818;stroke-width:1;stroke-dasharray:2,2;"/><text x="263.406" y="578.847" fill="#000" font-size="13" font-weight="700">6</text><text x="274.636" y="578.847" fill="#000" font-size="13" textLength="21.69">409</text><text x="296.326" y="578.847" fill="#000" font-size="13"> </text><text x="299.938" y="578.847" fill="#000" font-size="13" textLength="43.348">Conflict</text><line x1="206.18" y1="592.703" x2="400.513" y2="592.703" style="stroke:#000;stroke-width:1;stroke-dasharray:2,2;"/><text x="211.18" y="606.122" fill="#000" font-size="11" textLength="105.155" font-weight="700">[Persistence failure]</text><polygon points="238.18,646.242,228.18,650.242,238.18,654.242,234.18,650.242" fill="#181818" style="stroke:#181818;stroke-width:1;stroke-linejoin:miter;stroke-miterlimit:10;"/><line x1="232.18" y1="650.242" x2="378.513" y2="650.242" style="stroke:#181818;stroke-width:1;stroke-dasharray:2,2;"/><text x="262.337" y="637.21" fill="#000" font-size="13" font-weight="700">7</text><text x="274.63" y="629.034" fill="#000" font-size="13" textLength="21.69">500</text><text x="296.32" y="629.034" fill="#000" font-size="13"> </text><text x="299.932" y="629.034" fill="#000" font-size="13" textLength="43.361">Internal</text><text x="273.567" y="645.386" fill="#000" font-size="13" textLength="38.289">Server</text><text x="311.856" y="645.386" fill="#000" font-size="13"> </text><text x="315.468" y="645.386" fill="#000" font-size="13" textLength="28.888">Error</text><path d="M87.899,676.242 L148.07,676.242 L148.07,684.594 L138.07,694.594 L87.899,694.594 L87.899,676.242" style="stroke:#000;stroke-width:1.5;" fill="#EEE"/><rect x="87.899" y="676.242" width="208.545" height="223.352" fill="none" style="stroke:#000;stroke-width:1.5;"/><text x="102.899" y="690.737" fill="#000" font-size="13" textLength="15.171" font-weight="700">alt</text><text x="163.07" y="689.661" fill="#000" font-size="11" textLength="117.375" font-weight="700">[Successful response]</text><polygon points="114.899,772,104.899,776,114.899,780,110.899,776" fill="#181818" style="stroke:#181818;stroke-width:1;stroke-linejoin:miter;stroke-miterlimit:10;"/><line x1="108.899" y1="776" x2="216.18" y2="776" style="stroke:#181818;stroke-width:1;stroke-dasharray:2,2;"/><text x="128.908" y="746.616" fill="#000" font-size="13" font-weight="700">8</text><text x="143.395" y="722.089" fill="#000" font-size="13" textLength="45.519">Existing</text><text x="143.388" y="738.44" fill="#000" font-size="13" textLength="45.532">account</text><text x="140.138" y="754.792" fill="#000" font-size="13" textLength="52.032">activated</text><text x="144.125" y="771.144" fill="#000" font-size="13" textLength="44.059">(Active)</text><line x1="87.899" y1="785" x2="296.444" y2="785" style="stroke:#000;stroke-width:1;stroke-dasharray:2,2;"/><text x="92.899" y="798.419" fill="#000" font-size="11" textLength="86.19" font-weight="700">[Error response]</text><polygon points="114.899,887.594,104.899,891.594,114.899,895.594,110.899,891.594" fill="#181818" style="stroke:#181818;stroke-width:1;stroke-linejoin:miter;stroke-miterlimit:10;"/><line x1="108.899" y1="891.594" x2="216.18" y2="891.594" style="stroke:#181818;stroke-width:1;stroke-dasharray:2,2;"/><text x="115.899" y="854.034" fill="#000" font-size="13" font-weight="700">9</text><text x="149.895" y="821.331" fill="#000" font-size="13" textLength="32.519">Show</text><text x="136.885" y="837.683" fill="#000" font-size="13" textLength="58.538">validation,</text><text x="127.129" y="854.034" fill="#000" font-size="13" textLength="78.051">authorization,</text><text x="131.464" y="870.386" fill="#000" font-size="13" textLength="11.559">or</text><text x="143.023" y="870.386" fill="#000" font-size="13"> </text><text x="146.635" y="870.386" fill="#000" font-size="13" textLength="54.209">operation</text><text x="152.431" y="886.737" fill="#000" font-size="13" textLength="27.447">error</text></g></svg>