<!-- Generated by Nexo PlantUML generator. Do not edit. -->
<svg xmlns="http://www.w3.org/2000/svg" xmlns:xlink="http://www.w3.org/1999/xlink" version="1.1" data-diagram-type="SEQUENCE" style="width:685px;height:952px;background:#FFFFFF;" width="685px" height="952px" viewBox="0 0 685 952" zoomAndPan="magnify" preserveAspectRatio="none" contentStyleType="text/css"><?plantuml 1.2026.8?><defs/><g font-family="sans-serif" lengthAdjust="spacing"><g class="title" data-source-line="1"><text x="157.064" y="27.995" fill="#000" font-size="14" textLength="369.024" font-weight="700">US-003 - Activate member account - SD level 2</text></g><rect x="235.341" y="319.789" width="216.62" height="353.945" fill="none" style="stroke:#000;stroke-width:1.5;"/><rect x="103.019" y="691.734" width="231.767" height="225.266" fill="none" style="stroke:#000;stroke-width:1.5;"/><g><title>Invited Person</title><rect x="115.519" y="123.594" width="8" height="817.406" fill="#000" fill-opacity="0"/><line x1="119.019" y1="123.594" x2="119.019" y2="941" style="stroke:#181818;stroke-width:0.5;stroke-dasharray:5,5;"/></g><g><title>Web UI</title><rect x="247.841" y="123.594" width="8" height="817.406" fill="#000" fill-opacity="0"/><line x1="251.341" y1="123.594" x2="251.341" y2="941" style="stroke:#181818;stroke-width:0.5;stroke-dasharray:5,5;"/></g><g><title></title><rect x="246.341" y="248.391" width="10" height="682.609" fill="#FFF" style="stroke:#181818;stroke-width:1;"/></g><g><title>Nexo API</title><rect x="429.313" y="123.594" width="8" height="817.406" fill="#000" fill-opacity="0"/><line x1="432.813" y1="123.594" x2="432.813" y2="941" style="stroke:#181818;stroke-width:0.5;stroke-dasharray:5,5;"/></g><g><title></title><rect x="427.813" y="307.789" width="10" height="379.945" fill="#FFF" style="stroke:#181818;stroke-width:1;"/></g><text x="65.939" y="120.292" fill="#000" font-size="14" textLength="100.16">Invited Person</text><ellipse cx="119.019" cy="55.797" rx="8" ry="8" fill="#FEF9E7" style="stroke:#181818;stroke-width:0.5;"/><path d="M119.019,63.797 L119.019,90.797 M106.019,71.797 L132.019,71.797 M119.019,90.797 L106.019,105.797 M119.019,90.797 L132.019,105.797" style="stroke:#181818;stroke-width:0.5;" fill="none"/><rect x="219.256" y="92.297" width="64.169" height="30.297" fill="#EAF2F8" style="stroke:#181818;stroke-width:0.5;" rx="2.5" ry="2.5"/><text x="226.256" y="112.292" fill="#000" font-size="14" textLength="50.169">Web UI</text><rect x="394.545" y="92.297" width="76.535" height="30.297" fill="#EAF2F8" style="stroke:#181818;stroke-width:0.5;" rx="2.5" ry="2.5"/><text x="401.545" y="112.292" fill="#000" font-size="14" textLength="62.535">Nexo API</text><path d="M15,136.594 L15,161.594 L669,161.594 L669,146.594 L659,136.594 L15,136.594" style="stroke:#181818;stroke-width:0.5;" fill="#FFF8DC"/><path d="M659,136.594 L659,146.594 L669,146.594 L659,136.594" style="stroke:#181818;stroke-width:0.5;" fill="#FFF8DC"/><text x="21" y="153.661" fill="#000" font-size="13" textLength="633.153">Password flow only. OAuth endpoints and session delivery\nafter activation are not yet specified.</text><polygon points="234.341,244.391,244.341,248.391,234.341,252.391,238.341,248.391" fill="#181818" style="stroke:#181818;stroke-width:1;stroke-linejoin:miter;stroke-miterlimit:10;"/><line x1="119.019" y1="248.391" x2="240.341" y2="248.391" style="stroke:#181818;stroke-width:1;"/><text x="142.648" y="213.059" fill="#000" font-size="13" font-weight="700">1</text><text x="162.45" y="182.793" fill="#000" font-size="13" textLength="53.504">Activate</text><text x="163.307" y="197.926" fill="#000" font-size="13" textLength="51.791">account</text><text x="166.675" y="213.059" fill="#000" font-size="13" textLength="45.056">(email,</text><text x="168.703" y="228.192" fill="#000" font-size="13" textLength="41">name,</text><text x="155.693" y="243.325" fill="#000" font-size="13" textLength="67.019">password)</text><polygon points="415.813,303.789,425.813,307.789,415.813,311.789,419.813,307.789" fill="#181818" style="stroke:#181818;stroke-width:1;stroke-linejoin:miter;stroke-miterlimit:10;"/><line x1="256.341" y1="307.789" x2="421.813" y2="307.789" style="stroke:#181818;stroke-width:1;"/><text x="265.841" y="287.59" fill="#000" font-size="13" font-weight="700">2</text><text x="331.467" y="272.458" fill="#000" font-size="13" textLength="34.265">POST</text><text x="282.746" y="287.59" fill="#000" font-size="13" textLength="131.708">/accounts/activation</text><text x="278.886" y="302.723" fill="#000" font-size="13" textLength="139.426">(ActivateAccountDto)</text><path d="M235.341,319.789 L299.784,319.789 L299.784,326.922 L289.784,336.922 L235.341,336.922 L235.341,319.789" style="stroke:#000;stroke-width:1.5;" fill="#EEE"/><rect x="235.341" y="319.789" width="216.62" height="353.945" fill="none" style="stroke:#000;stroke-width:1.5;"/><text x="250.341" y="332.856" fill="#000" font-size="13" textLength="19.443" font-weight="700">alt</text><text x="314.784" y="332" fill="#000" font-size="11" textLength="121.177" font-weight="700">[Request accepted]</text><polygon points="267.341,379.188,257.341,383.188,267.341,387.188,263.341,383.188" fill="#181818" style="stroke:#181818;stroke-width:1;stroke-linejoin:miter;stroke-miterlimit:10;"/><line x1="261.341" y1="383.188" x2="426.813" y2="383.188" style="stroke:#181818;stroke-width:1;stroke-dasharray:2,2;"/><text x="292.593" y="370.555" fill="#000" font-size="13" font-weight="700">3</text><text x="324.748" y="362.989" fill="#000" font-size="13" textLength="24.813">200</text><text x="349.561" y="362.989" fill="#000" font-size="13"> </text><text x="353.693" y="362.989" fill="#000" font-size="13" textLength="18.757">OK</text><text x="305.638" y="378.122" fill="#000" font-size="13" textLength="85.922">(AccountDto)</text><line x1="235.341" y1="392.188" x2="451.961" y2="392.188" style="stroke:#000;stroke-width:1;stroke-dasharray:2,2;"/><text x="240.341" y="404.398" fill="#000" font-size="11" textLength="154.87" font-weight="700">[Invalid required details]</text><polygon points="267.341,442.258,257.341,446.258,267.341,450.258,263.341,446.258" fill="#181818" style="stroke:#181818;stroke-width:1;stroke-linejoin:miter;stroke-miterlimit:10;"/><line x1="261.341" y1="446.258" x2="426.813" y2="446.258" style="stroke:#181818;stroke-width:1;stroke-dasharray:2,2;"/><text x="308.513" y="433.625" fill="#000" font-size="13" font-weight="700">4</text><text x="321.558" y="426.059" fill="#000" font-size="13" textLength="24.813">400</text><text x="346.371" y="426.059" fill="#000" font-size="13"> </text><text x="350.504" y="426.059" fill="#000" font-size="13" textLength="25.137">Bad</text><text x="321.904" y="441.192" fill="#000" font-size="13" textLength="53.39">Request</text><line x1="235.341" y1="455.258" x2="451.961" y2="455.258" style="stroke:#000;stroke-width:1;stroke-dasharray:2,2;"/><text x="240.341" y="467.468" fill="#000" font-size="11" textLength="207.287" font-weight="700">[No account registered for email]</text><polygon points="267.341,505.328,257.341,509.328,267.341,513.328,263.341,509.328" fill="#181818" style="stroke:#181818;stroke-width:1;stroke-linejoin:miter;stroke-miterlimit:10;"/><line x1="261.341" y1="509.328" x2="426.813" y2="509.328" style="stroke:#181818;stroke-width:1;stroke-dasharray:2,2;"/><text x="302.864" y="496.696" fill="#000" font-size="13" font-weight="700">5</text><text x="336.193" y="489.129" fill="#000" font-size="13" textLength="24.813">403</text><text x="315.909" y="504.262" fill="#000" font-size="13" textLength="65.381">Forbidden</text><line x1="235.341" y1="518.328" x2="451.961" y2="518.328" style="stroke:#000;stroke-width:1;stroke-dasharray:2,2;"/><text x="240.341" y="530.539" fill="#000" font-size="11" textLength="152.985" font-weight="700">[Account already Active]</text><polygon points="267.341,568.398,257.341,572.398,267.341,576.398,263.341,572.398" fill="#181818" style="stroke:#181818;stroke-width:1;stroke-linejoin:miter;stroke-miterlimit:10;"/><line x1="261.341" y1="572.398" x2="426.813" y2="572.398" style="stroke:#181818;stroke-width:1;stroke-dasharray:2,2;"/><text x="310.896" y="559.766" fill="#000" font-size="13" font-weight="700">6</text><text x="336.193" y="552.2" fill="#000" font-size="13" textLength="24.813">409</text><text x="323.942" y="567.333" fill="#000" font-size="13" textLength="49.315">Conflict</text><line x1="235.341" y1="581.398" x2="451.961" y2="581.398" style="stroke:#000;stroke-width:1;stroke-dasharray:2,2;"/><text x="240.341" y="593.609" fill="#000" font-size="11" textLength="126.693" font-weight="700">[Persistence failure]</text><polygon points="267.341,661.734,257.341,665.734,267.341,669.734,263.341,665.734" fill="#181818" style="stroke:#181818;stroke-width:1;stroke-linejoin:miter;stroke-miterlimit:10;"/><line x1="261.341" y1="665.734" x2="426.813" y2="665.734" style="stroke:#181818;stroke-width:1;stroke-dasharray:2,2;"/><text x="310.389" y="637.969" fill="#000" font-size="13" font-weight="700">7</text><text x="336.193" y="615.27" fill="#000" font-size="13" textLength="24.813">500</text><text x="323.434" y="630.403" fill="#000" font-size="13" textLength="50.331">Internal</text><text x="327.284" y="645.536" fill="#000" font-size="13" textLength="42.631">Server</text><text x="332.499" y="660.668" fill="#000" font-size="13" textLength="32.202">Error</text><path d="M103.019,691.734 L167.462,691.734 L167.462,698.867 L157.462,708.867 L103.019,708.867 L103.019,691.734" style="stroke:#000;stroke-width:1.5;" fill="#EEE"/><rect x="103.019" y="691.734" width="231.767" height="225.266" fill="none" style="stroke:#000;stroke-width:1.5;"/><text x="118.019" y="704.801" fill="#000" font-size="13" textLength="19.443" font-weight="700">alt</text><text x="182.462" y="703.945" fill="#000" font-size="11" textLength="136.324" font-weight="700">[Successful response]</text><polygon points="130.019,781.398,120.019,785.398,130.019,789.398,126.019,785.398" fill="#181818" style="stroke:#181818;stroke-width:1;stroke-linejoin:miter;stroke-miterlimit:10;"/><line x1="124.019" y1="785.398" x2="245.341" y2="785.398" style="stroke:#181818;stroke-width:1;stroke-dasharray:2,2;"/><text x="145.742" y="757.633" fill="#000" font-size="13" font-weight="700">8</text><text x="163.457" y="734.934" fill="#000" font-size="13" textLength="51.492">Existing</text><text x="163.307" y="750.067" fill="#000" font-size="13" textLength="51.791">account</text><text x="158.788" y="765.2" fill="#000" font-size="13" textLength="60.83">activated</text><text x="163.91" y="780.333" fill="#000" font-size="13" textLength="50.584">(Active)</text><line x1="103.019" y1="794.398" x2="334.786" y2="794.398" style="stroke:#000;stroke-width:1;stroke-dasharray:2,2;"/><text x="108.019" y="806.609" fill="#000" font-size="11" textLength="101.933" font-weight="700">[Error response]</text><polygon points="130.019,905,120.019,909,130.019,913,126.019,909" fill="#181818" style="stroke:#181818;stroke-width:1;stroke-linejoin:miter;stroke-miterlimit:10;"/><line x1="124.019" y1="909" x2="245.341" y2="909" style="stroke:#181818;stroke-width:1;stroke-dasharray:2,2;"/><text x="131.019" y="866.102" fill="#000" font-size="13" font-weight="700">9</text><text x="171.664" y="828.27" fill="#000" font-size="13" textLength="35.077">Show</text><text x="155.135" y="843.403" fill="#000" font-size="13" textLength="68.136">validation,</text><text x="144.064" y="858.536" fill="#000" font-size="13" textLength="90.276">authorization,</text><text x="182.553" y="873.668" fill="#000" font-size="13" textLength="13.298">or</text><text x="157.994" y="888.801" fill="#000" font-size="13" textLength="62.417">operation</text><text x="173.21" y="903.934" fill="#000" font-size="13" textLength="31.986">error</text></g></svg>