<!-- Generated by Nexo PlantUML generator. Do not edit. -->
<svg xmlns="http://www.w3.org/2000/svg" xmlns:xlink="http://www.w3.org/1999/xlink" version="1.1" data-diagram-type="SEQUENCE" style="width:1267px;height:625px;background:#FFFFFF;" width="1267px" height="625px" viewBox="0 0 1267 625" zoomAndPan="magnify" preserveAspectRatio="none" contentStyleType="text/css"><?plantuml 1.2026.8?><defs/><g font-family="sans-serif" lengthAdjust="spacing"><rect x="29.793" y="176.016" width="1210.726" height="382.055" fill="none" style="stroke:#000;stroke-width:1.5;"/><g><title>Web App</title><rect x="42.293" y="42.609" width="8" height="539.461" fill="#000" fill-opacity="0"/><line x1="45.793" y1="42.609" x2="45.793" y2="582.07" style="stroke:#181818;stroke-width:0.5;stroke-dasharray:5,5;"/></g><g><title></title><rect x="40.793" y="50.609" width="10" height="521.461" fill="#FFF" style="stroke:#181818;stroke-width:1;"/></g><g><title>ResourcesController</title><rect x="235.981" y="42.609" width="8" height="539.461" fill="#000" fill-opacity="0"/><line x1="239.481" y1="42.609" x2="239.481" y2="582.07" style="stroke:#181818;stroke-width:0.5;stroke-dasharray:5,5;"/></g><g><title></title><rect x="234.481" y="72.961" width="10" height="499.109" fill="#FFF" style="stroke:#181818;stroke-width:1;"/></g><g><title>ResourceService</title><rect x="436.222" y="42.609" width="8" height="539.461" fill="#000" fill-opacity="0"/><line x1="439.722" y1="42.609" x2="439.722" y2="582.07" style="stroke:#181818;stroke-width:0.5;stroke-dasharray:5,5;"/></g><g><title></title><rect x="434.722" y="103.313" width="10" height="468.758" fill="#FFF" style="stroke:#181818;stroke-width:1;"/></g><g><title>IAccountRepository</title><rect x="609.726" y="42.609" width="8" height="539.461" fill="#000" fill-opacity="0"/><line x1="613.226" y1="42.609" x2="613.226" y2="582.07" style="stroke:#181818;stroke-width:0.5;stroke-dasharray:5,5;"/></g><g><title></title><rect x="608.226" y="133.664" width="10" height="30.352" fill="#FFF" style="stroke:#181818;stroke-width:1;"/></g><g><title>ResourceMapper</title><rect x="798.269" y="42.609" width="8" height="539.461" fill="#000" fill-opacity="0"/><line x1="801.769" y1="42.609" x2="801.769" y2="582.07" style="stroke:#181818;stroke-width:0.5;stroke-dasharray:5,5;"/></g><g><title></title><rect x="796.769" y="307.258" width="10" height="30.352" fill="#FFF" style="stroke:#181818;stroke-width:1;"/></g><g><title>IResourceRepository</title><rect x="941.323" y="42.609" width="8" height="539.461" fill="#000" fill-opacity="0"/><line x1="944.823" y1="42.609" x2="944.823" y2="582.07" style="stroke:#181818;stroke-width:0.5;stroke-dasharray:5,5;"/></g><g><title></title><rect x="939.823" y="367.961" width="10" height="13" fill="#FFF" style="stroke:#181818;stroke-width:1;"/></g><g><title>NexoDbContext</title><rect x="1080.099" y="42.609" width="8" height="539.461" fill="#000" fill-opacity="0"/><line x1="1083.599" y1="42.609" x2="1083.599" y2="582.07" style="stroke:#181818;stroke-width:0.5;stroke-dasharray:5,5;"/></g><g><title></title><rect x="1078.599" y="398.313" width="10" height="91.055" fill="#FFF" style="stroke:#181818;stroke-width:1;"/></g><g><title>Database</title><rect x="1216.019" y="42.609" width="8" height="539.461" fill="#000" fill-opacity="0"/><line x1="1219.519" y1="42.609" x2="1219.519" y2="582.07" style="stroke:#181818;stroke-width:0.5;stroke-dasharray:5,5;"/></g><g><title></title><rect x="1214.519" y="428.664" width="10" height="30.352" fill="#FFF" style="stroke:#181818;stroke-width:1;"/></g><rect x="10" y="10" width="71.586" height="31.609" fill="#E2E2F0" style="stroke:#181818;stroke-width:0.5;" rx="2.5" ry="2.5"/><text x="17" y="31.533" fill="#000" font-size="14" textLength="57.586">Web App</text><rect x="168.678" y="10" width="141.606" height="31.609" fill="#E2E2F0" style="stroke:#181818;stroke-width:0.5;" rx="2.5" ry="2.5"/><text x="175.678" y="31.533" fill="#000" font-size="14" textLength="127.606">ResourcesController</text><rect x="379.422" y="10" width="120.6" height="31.609" fill="#E2E2F0" style="stroke:#181818;stroke-width:0.5;" rx="2.5" ry="2.5"/><text x="386.422" y="31.533" fill="#000" font-size="14" textLength="106.6">ResourceService</text><rect x="545.53" y="10" width="135.393" height="31.609" fill="#E2E2F0" style="stroke:#181818;stroke-width:0.5;" rx="2.5" ry="2.5"/><text x="552.53" y="31.533" fill="#000" font-size="14" textLength="121.393">IAccountRepository</text><rect x="741.076" y="10" width="121.386" height="31.609" fill="#E2E2F0" style="stroke:#181818;stroke-width:0.5;" rx="2.5" ry="2.5"/><text x="748.076" y="31.533" fill="#000" font-size="14" textLength="107.386">ResourceMapper</text><rect x="872.461" y="10" width="144.724" height="31.609" fill="#E2E2F0" style="stroke:#181818;stroke-width:0.5;" rx="2.5" ry="2.5"/><text x="879.461" y="31.533" fill="#000" font-size="14" textLength="130.724">IResourceRepository</text><rect x="1027.185" y="10" width="112.827" height="31.609" fill="#E2E2F0" style="stroke:#181818;stroke-width:0.5;" rx="2.5" ry="2.5"/><text x="1034.185" y="31.533" fill="#000" font-size="14" textLength="98.827">NexoDbContext</text><rect x="1182.553" y="10" width="73.931" height="31.609" fill="#E2E2F0" style="stroke:#181818;stroke-width:0.5;" rx="2.5" ry="2.5"/><text x="1189.553" y="31.533" fill="#000" font-size="14" textLength="59.931">Database</text><rect x="10" y="582.07" width="71.586" height="31.609" fill="#E2E2F0" style="stroke:#181818;stroke-width:0.5;" rx="2.5" ry="2.5"/><text x="17" y="603.604" fill="#000" font-size="14" textLength="57.586">Web App</text><rect x="168.678" y="582.07" width="141.606" height="31.609" fill="#E2E2F0" style="stroke:#181818;stroke-width:0.5;" rx="2.5" ry="2.5"/><text x="175.678" y="603.604" fill="#000" font-size="14" textLength="127.606">ResourcesController</text><rect x="379.422" y="582.07" width="120.6" height="31.609" fill="#E2E2F0" style="stroke:#181818;stroke-width:0.5;" rx="2.5" ry="2.5"/><text x="386.422" y="603.604" fill="#000" font-size="14" textLength="106.6">ResourceService</text><rect x="545.53" y="582.07" width="135.393" height="31.609" fill="#E2E2F0" style="stroke:#181818;stroke-width:0.5;" rx="2.5" ry="2.5"/><text x="552.53" y="603.604" fill="#000" font-size="14" textLength="121.393">IAccountRepository</text><rect x="741.076" y="582.07" width="121.386" height="31.609" fill="#E2E2F0" style="stroke:#181818;stroke-width:0.5;" rx="2.5" ry="2.5"/><text x="748.076" y="603.604" fill="#000" font-size="14" textLength="107.386">ResourceMapper</text><rect x="872.461" y="582.07" width="144.724" height="31.609" fill="#E2E2F0" style="stroke:#181818;stroke-width:0.5;" rx="2.5" ry="2.5"/><text x="879.461" y="603.604" fill="#000" font-size="14" textLength="130.724">IResourceRepository</text><rect x="1027.185" y="582.07" width="112.827" height="31.609" fill="#E2E2F0" style="stroke:#181818;stroke-width:0.5;" rx="2.5" ry="2.5"/><text x="1034.185" y="603.604" fill="#000" font-size="14" textLength="98.827">NexoDbContext</text><rect x="1182.553" y="582.07" width="73.931" height="31.609" fill="#E2E2F0" style="stroke:#181818;stroke-width:0.5;" rx="2.5" ry="2.5"/><text x="1189.553" y="603.604" fill="#000" font-size="14" textLength="59.931">Database</text><polygon points="222.481,68.961,232.481,72.961,222.481,76.961,226.481,72.961" fill="#181818" style="stroke:#181818;stroke-width:1;stroke-linejoin:miter;stroke-miterlimit:10;"/><line x1="50.793" y1="72.961" x2="228.481" y2="72.961" style="stroke:#181818;stroke-width:1;"/><text x="57.793" y="68.104" fill="#000" font-size="13" textLength="130.038">POST /resources (dto)</text><polygon points="422.722,99.313,432.722,103.313,422.722,107.313,426.722,103.313" fill="#181818" style="stroke:#181818;stroke-width:1;stroke-linejoin:miter;stroke-miterlimit:10;"/><line x1="244.481" y1="103.313" x2="428.722" y2="103.313" style="stroke:#181818;stroke-width:1;"/><text x="251.481" y="98.456" fill="#000" font-size="13" textLength="171.241">Register(callerAccountId, dto)</text><polygon points="596.226,129.664,606.226,133.664,596.226,137.664,600.226,133.664" fill="#181818" style="stroke:#181818;stroke-width:1;stroke-linejoin:miter;stroke-miterlimit:10;"/><line x1="444.722" y1="133.664" x2="602.226" y2="133.664" style="stroke:#181818;stroke-width:1;"/><text x="451.722" y="128.808" fill="#000" font-size="13" textLength="144.504">GetById(callerAccountId)</text><polygon points="455.722,160.016,445.722,164.016,455.722,168.016,451.722,164.016" fill="#181818" style="stroke:#181818;stroke-width:1;stroke-linejoin:miter;stroke-miterlimit:10;"/><line x1="449.722" y1="164.016" x2="607.226" y2="164.016" style="stroke:#181818;stroke-width:1;stroke-dasharray:2,2;"/><text x="461.722" y="159.159" fill="#000" font-size="13" textLength="81.65">caller Account</text><path d="M29.793,176.016 L89.964,176.016 L89.964,184.367 L79.964,194.367 L29.793,194.367 L29.793,176.016" style="stroke:#000;stroke-width:1.5;" fill="#EEE"/><rect x="29.793" y="176.016" width="1210.726" height="382.055" fill="none" style="stroke:#000;stroke-width:1.5;"/><text x="44.793" y="190.511" fill="#000" font-size="13" textLength="15.171" font-weight="700">alt</text><text x="104.964" y="189.435" fill="#000" font-size="11" textLength="224.941" font-weight="700">[Caller not permitted to manage resources]</text><polygon points="255.481,222.719,245.481,226.719,255.481,230.719,251.481,226.719" fill="#181818" style="stroke:#181818;stroke-width:1;stroke-linejoin:miter;stroke-miterlimit:10;"/><line x1="249.481" y1="226.719" x2="433.722" y2="226.719" style="stroke:#181818;stroke-width:1;stroke-dasharray:2,2;"/><text x="261.481" y="221.862" fill="#000" font-size="13" textLength="151.03">throw ForbiddenException</text><polygon points="61.793,253.07,51.793,257.07,61.793,261.07,57.793,257.07" fill="#181818" style="stroke:#181818;stroke-width:1;stroke-linejoin:miter;stroke-miterlimit:10;"/><line x1="55.793" y1="257.07" x2="233.481" y2="257.07" style="stroke:#181818;stroke-width:1;stroke-dasharray:2,2;"/><text x="67.793" y="252.214" fill="#000" font-size="13" textLength="83.84">403 Forbidden</text><line x1="29.793" y1="266.07" x2="1240.519" y2="266.07" style="stroke:#000;stroke-width:1;stroke-dasharray:2,2;"/><text x="34.793" y="279.489" fill="#000" font-size="11" textLength="96.567" font-weight="700">[Caller authorized]</text><polygon points="784.769,303.258,794.769,307.258,784.769,311.258,788.769,307.258" fill="#181818" style="stroke:#181818;stroke-width:1;stroke-linejoin:miter;stroke-miterlimit:10;"/><line x1="444.722" y1="307.258" x2="790.769" y2="307.258" style="stroke:#181818;stroke-width:1;"/><text x="451.722" y="302.401" fill="#000" font-size="13" textLength="223.99">ToResource(dto, caller.OrganizationId)</text><polygon points="455.722,333.609,445.722,337.609,455.722,341.609,451.722,337.609" fill="#181818" style="stroke:#181818;stroke-width:1;stroke-linejoin:miter;stroke-miterlimit:10;"/><line x1="449.722" y1="337.609" x2="795.769" y2="337.609" style="stroke:#181818;stroke-width:1;stroke-dasharray:2,2;"/><text x="461.722" y="332.753" fill="#000" font-size="13" textLength="328.047">new Resource(name, type, description, status: Available)</text><polygon points="927.823,363.961,937.823,367.961,927.823,371.961,931.823,367.961" fill="#181818" style="stroke:#181818;stroke-width:1;stroke-linejoin:miter;stroke-miterlimit:10;"/><line x1="444.722" y1="367.961" x2="933.823" y2="367.961" style="stroke:#181818;stroke-width:1;"/><text x="451.722" y="363.104" fill="#000" font-size="13" textLength="82.367">Add(resource)</text><polygon points="1066.599,394.313,1076.599,398.313,1066.599,402.313,1070.599,398.313" fill="#181818" style="stroke:#181818;stroke-width:1;stroke-linejoin:miter;stroke-miterlimit:10;"/><line x1="444.722" y1="398.313" x2="1072.599" y2="398.313" style="stroke:#181818;stroke-width:1;"/><text x="451.722" y="393.456" fill="#000" font-size="13" textLength="125.728">SaveChangesAsync()</text><polygon points="1202.519,424.664,1212.519,428.664,1202.519,432.664,1206.519,428.664" fill="#181818" style="stroke:#181818;stroke-width:1;stroke-linejoin:miter;stroke-miterlimit:10;"/><line x1="1088.599" y1="428.664" x2="1208.519" y2="428.664" style="stroke:#181818;stroke-width:1;"/><text x="1095.599" y="423.808" fill="#000" font-size="13" textLength="106.92">INSERT Resource</text><polygon points="1099.599,455.016,1089.599,459.016,1099.599,463.016,1095.599,459.016" fill="#181818" style="stroke:#181818;stroke-width:1;stroke-linejoin:miter;stroke-miterlimit:10;"/><line x1="1093.599" y1="459.016" x2="1213.519" y2="459.016" style="stroke:#181818;stroke-width:1;stroke-dasharray:2,2;"/><text x="1105.599" y="454.159" fill="#000" font-size="13" textLength="77.314">rows affected</text><polygon points="455.722,485.367,445.722,489.367,455.722,493.367,451.722,489.367" fill="#181818" style="stroke:#181818;stroke-width:1;stroke-linejoin:miter;stroke-miterlimit:10;"/><line x1="449.722" y1="489.367" x2="1077.599" y2="489.367" style="stroke:#181818;stroke-width:1;stroke-dasharray:2,2;"/><text x="461.722" y="484.511" fill="#000" font-size="13" textLength="59.96">committed</text><polygon points="255.481,515.719,245.481,519.719,255.481,523.719,251.481,519.719" fill="#181818" style="stroke:#181818;stroke-width:1;stroke-linejoin:miter;stroke-miterlimit:10;"/><line x1="249.481" y1="519.719" x2="433.722" y2="519.719" style="stroke:#181818;stroke-width:1;stroke-dasharray:2,2;"/><text x="261.481" y="514.862" fill="#000" font-size="13" textLength="75.867">ResourceDto</text><polygon points="61.793,546.07,51.793,550.07,61.793,554.07,57.793,550.07" fill="#181818" style="stroke:#181818;stroke-width:1;stroke-linejoin:miter;stroke-miterlimit:10;"/><line x1="55.793" y1="550.07" x2="233.481" y2="550.07" style="stroke:#181818;stroke-width:1;stroke-dasharray:2,2;"/><text x="67.793" y="545.214" fill="#000" font-size="13" textLength="159.688">201 Created (ResourceDto)</text></g></svg>