<!-- Generated by Nexo PlantUML generator. Do not edit. -->
<svg xmlns="http://www.w3.org/2000/svg" xmlns:xlink="http://www.w3.org/1999/xlink" version="1.1" data-diagram-type="SEQUENCE" style="width:775px;height:657px;background:#FFFFFF;" width="775px" height="657px" viewBox="0 0 775 657" zoomAndPan="magnify" preserveAspectRatio="none" contentStyleType="text/css"><?plantuml 1.2026.8?><defs/><g font-family="sans-serif" lengthAdjust="spacing"><g class="title" data-source-line="1"><text x="178.684" y="29.533" fill="#000" font-size="14" textLength="416.227" font-weight="700">US-006 - Choose plan before registering - SD level 3 - Backend</text></g><g><title>Web App</title><rect x="42.293" y="81.219" width="8" height="565.734" fill="#000" fill-opacity="0"/><line x1="45.793" y1="81.219" x2="45.793" y2="646.953" style="stroke:#181818;stroke-width:0.5;stroke-dasharray:5,5;"/></g><g><title></title><rect x="40.793" y="141.922" width="10" height="487.031" fill="#FFF" style="stroke:#181818;stroke-width:1;"/></g><g><title>PlansController</title><rect x="156.884" y="81.219" width="8" height="565.734" fill="#000" fill-opacity="0"/><line x1="160.384" y1="81.219" x2="160.384" y2="646.953" style="stroke:#181818;stroke-width:0.5;stroke-dasharray:5,5;"/></g><g><title></title><rect x="155.384" y="164.273" width="10" height="464.68" fill="#FFF" style="stroke:#181818;stroke-width:1;"/></g><g><title>PlanService</title><rect x="266.09" y="81.219" width="8" height="565.734" fill="#000" fill-opacity="0"/><line x1="269.59" y1="81.219" x2="269.59" y2="646.953" style="stroke:#181818;stroke-width:0.5;stroke-dasharray:5,5;"/></g><g><title></title><rect x="264.59" y="194.625" width="10" height="387.625" fill="#FFF" style="stroke:#181818;stroke-width:1;"/></g><g><title>IPlanRepository</title><rect x="385.78" y="81.219" width="8" height="565.734" fill="#000" fill-opacity="0"/><line x1="389.28" y1="81.219" x2="389.28" y2="646.953" style="stroke:#181818;stroke-width:0.5;stroke-dasharray:5,5;"/></g><g><title></title><rect x="384.28" y="224.977" width="10" height="233.516" fill="#FFF" style="stroke:#181818;stroke-width:1;"/></g><g><title>PlanMapper</title><rect x="496.938" y="81.219" width="8" height="565.734" fill="#000" fill-opacity="0"/><line x1="500.438" y1="81.219" x2="500.438" y2="646.953" style="stroke:#181818;stroke-width:0.5;stroke-dasharray:5,5;"/></g><g><title></title><rect x="495.438" y="521.547" width="10" height="30.352" fill="#FFF" style="stroke:#181818;stroke-width:1;"/></g><g><title>NexoDbContext</title><rect x="608.097" y="81.219" width="8" height="565.734" fill="#000" fill-opacity="0"/><line x1="611.597" y1="81.219" x2="611.597" y2="646.953" style="stroke:#181818;stroke-width:0.5;stroke-dasharray:5,5;"/></g><g><title></title><rect x="606.597" y="271.68" width="10" height="156.461" fill="#FFF" style="stroke:#181818;stroke-width:1;"/></g><g><title>Database</title><rect x="724.128" y="81.219" width="8" height="565.734" fill="#000" fill-opacity="0"/><line x1="727.628" y1="81.219" x2="727.628" y2="646.953" style="stroke:#181818;stroke-width:0.5;stroke-dasharray:5,5;"/></g><g><title></title><rect x="722.628" y="318.383" width="10" height="63.055" fill="#FFF" style="stroke:#181818;stroke-width:1;"/></g><rect x="10" y="48.609" width="71.586" height="31.609" fill="#EAF2F8" style="stroke:#181818;stroke-width:0.5;" rx="2.5" ry="2.5"/><text x="17" y="70.143" fill="#000" font-size="14" textLength="57.586">Web App</text><rect x="105.529" y="48.609" width="109.71" height="31.609" fill="#EAF2F8" style="stroke:#181818;stroke-width:0.5;" rx="2.5" ry="2.5"/><text x="112.529" y="70.143" fill="#000" font-size="14" textLength="95.71">PlansController</text><rect x="225.239" y="48.609" width="88.703" height="31.609" fill="#EAF2F8" style="stroke:#181818;stroke-width:0.5;" rx="2.5" ry="2.5"/><text x="232.239" y="70.143" fill="#000" font-size="14" textLength="74.703">PlanService</text><rect x="332.867" y="48.609" width="112.827" height="31.609" fill="#EAF2F8" style="stroke:#181818;stroke-width:0.5;" rx="2.5" ry="2.5"/><text x="339.867" y="70.143" fill="#000" font-size="14" textLength="98.827">IPlanRepository</text><rect x="455.694" y="48.609" width="89.489" height="31.609" fill="#EAF2F8" style="stroke:#181818;stroke-width:0.5;" rx="2.5" ry="2.5"/><text x="462.694" y="70.143" fill="#000" font-size="14" textLength="75.489">PlanMapper</text><rect x="555.183" y="48.609" width="112.827" height="31.609" fill="#EAF2F8" style="stroke:#181818;stroke-width:0.5;" rx="2.5" ry="2.5"/><text x="562.183" y="70.143" fill="#000" font-size="14" textLength="98.827">NexoDbContext</text><rect x="690.663" y="48.609" width="73.931" height="31.609" fill="#EAF2F8" style="stroke:#181818;stroke-width:0.5;" rx="2.5" ry="2.5"/><text x="697.663" y="70.143" fill="#000" font-size="14" textLength="59.931">Database</text><path d="M119.474,94.219 L119.474,136.219 L768.474,136.219 L768.474,104.219 L758.474,94.219 L119.474,94.219" style="stroke:#181818;stroke-width:0.5;" fill="#FFF8DC"/><path d="M758.474,94.219 L758.474,104.219 L768.474,104.219 L758.474,94.219" style="stroke:#181818;stroke-width:0.5;" fill="#FFF8DC"/><text x="237.019" y="112.714" fill="#000" font-size="13" textLength="351.927">Read-only; there is no validation or authorization branch. The</text><text x="237.019" y="129.065" fill="#000" font-size="13" textLength="404.974">planId change to POST /organizations is shown in US-001's diagrams.</text><polygon points="143.384,160.273,153.384,164.273,143.384,168.273,147.384,164.273" fill="#181818" style="stroke:#181818;stroke-width:1;stroke-linejoin:miter;stroke-miterlimit:10;"/><line x1="50.793" y1="164.273" x2="149.384" y2="164.273" style="stroke:#181818;stroke-width:1;"/><text x="64.961" y="159.417" fill="#000" font-size="13" font-weight="700">1</text><text x="76.191" y="159.417" fill="#000" font-size="13" textLength="26.724">GET</text><text x="102.914" y="159.417" fill="#000" font-size="13"> </text><text x="106.526" y="159.417" fill="#000" font-size="13" textLength="34.69">/plans</text><polygon points="252.59,190.625,262.59,194.625,252.59,198.625,256.59,194.625" fill="#181818" style="stroke:#181818;stroke-width:1;stroke-linejoin:miter;stroke-miterlimit:10;"/><line x1="165.384" y1="194.625" x2="258.59" y2="194.625" style="stroke:#181818;stroke-width:1;"/><text x="187.343" y="189.769" fill="#000" font-size="13" font-weight="700">2</text><text x="198.573" y="189.769" fill="#000" font-size="13" textLength="44.059">GetAll()</text><polygon points="372.28,220.977,382.28,224.977,372.28,228.977,376.28,224.977" fill="#181818" style="stroke:#181818;stroke-width:1;stroke-linejoin:miter;stroke-miterlimit:10;"/><line x1="274.59" y1="224.977" x2="378.28" y2="224.977" style="stroke:#181818;stroke-width:1;"/><text x="284.09" y="220.12" fill="#000" font-size="13" font-weight="700">3</text><text x="295.32" y="220.12" fill="#000" font-size="13" textLength="79.46">GetAllAsync()</text><polygon points="594.597,267.68,604.597,271.68,594.597,275.68,598.597,271.68" fill="#181818" style="stroke:#181818;stroke-width:1;stroke-linejoin:miter;stroke-miterlimit:10;"/><line x1="394.28" y1="271.68" x2="600.597" y2="271.68" style="stroke:#181818;stroke-width:1;"/><text x="468.814" y="258.647" fill="#000" font-size="13" font-weight="700">4</text><text x="480.044" y="250.472" fill="#000" font-size="13" textLength="35.401">Query</text><text x="515.445" y="250.472" fill="#000" font-size="13"> </text><text x="519.057" y="250.472" fill="#000" font-size="13" textLength="13.006">all</text><text x="489.794" y="266.823" fill="#000" font-size="13" textLength="32.519">Plans</text><polygon points="710.628,314.383,720.628,318.383,710.628,322.383,714.628,318.383" fill="#181818" style="stroke:#181818;stroke-width:1;stroke-linejoin:miter;stroke-miterlimit:10;"/><line x1="616.597" y1="318.383" x2="716.628" y2="318.383" style="stroke:#181818;stroke-width:1;"/><text x="626.797" y="305.351" fill="#000" font-size="13" font-weight="700">5</text><text x="645.606" y="297.175" fill="#000" font-size="13" textLength="50.572">SELECT</text><text x="696.178" y="297.175" fill="#000" font-size="13"> </text><text x="699.79" y="297.175" fill="#000" font-size="13">*</text><text x="638.027" y="313.526" fill="#000" font-size="13" textLength="38.27">FROM</text><text x="676.297" y="313.526" fill="#000" font-size="13"> </text><text x="679.909" y="313.526" fill="#000" font-size="13" textLength="32.519">Plans</text><polygon points="627.597,377.438,617.597,381.438,627.597,385.438,623.597,381.438" fill="#181818" style="stroke:#181818;stroke-width:1;stroke-linejoin:miter;stroke-miterlimit:10;"/><line x1="621.597" y1="381.438" x2="721.628" y2="381.438" style="stroke:#181818;stroke-width:1;stroke-dasharray:2,2;"/><text x="628.597" y="360.229" fill="#000" font-size="13" font-weight="700">6</text><text x="639.827" y="343.878" fill="#000" font-size="13" textLength="35.401">Query</text><text x="675.228" y="343.878" fill="#000" font-size="13"> </text><text x="678.839" y="343.878" fill="#000" font-size="13" textLength="31.789">result</text><text x="649.58" y="360.229" fill="#000" font-size="13" textLength="51.295">(possibly</text><text x="655.363" y="376.581" fill="#000" font-size="13" textLength="39.73">empty)</text><polygon points="405.28,424.141,395.28,428.141,405.28,432.141,401.28,428.141" fill="#181818" style="stroke:#181818;stroke-width:1;stroke-linejoin:miter;stroke-miterlimit:10;"/><line x1="399.28" y1="428.141" x2="605.597" y2="428.141" style="stroke:#181818;stroke-width:1;stroke-dasharray:2,2;"/><text x="459.781" y="415.108" fill="#000" font-size="13" font-weight="700">7</text><text x="471.011" y="406.933" fill="#000" font-size="13" textLength="70.084">Materialized</text><text x="490.159" y="423.284" fill="#000" font-size="13" textLength="31.789">result</text><polygon points="285.59,454.492,275.59,458.492,285.59,462.492,281.59,458.492" fill="#181818" style="stroke:#181818;stroke-width:1;stroke-linejoin:miter;stroke-miterlimit:10;"/><line x1="279.59" y1="458.492" x2="383.28" y2="458.492" style="stroke:#181818;stroke-width:1;stroke-dasharray:2,2;"/><text x="307.561" y="453.636" fill="#000" font-size="13" font-weight="700">8</text><text x="318.791" y="453.636" fill="#000" font-size="13" textLength="32.519">Plans</text><polygon points="483.438,517.547,493.438,521.547,483.438,525.547,487.438,521.547" fill="#181818" style="stroke:#181818;stroke-width:1;stroke-linejoin:miter;stroke-miterlimit:10;"/><line x1="274.59" y1="521.547" x2="489.438" y2="521.547" style="stroke:#181818;stroke-width:1;"/><text x="350.854" y="500.339" fill="#000" font-size="13" font-weight="700">9</text><text x="362.084" y="483.987" fill="#000" font-size="13" textLength="25.289">Map</text><text x="387.373" y="483.987" fill="#000" font-size="13"> </text><text x="390.985" y="483.987" fill="#000" font-size="13" textLength="28.19">each</text><text x="370.393" y="500.339" fill="#000" font-size="13" textLength="26.019">Plan</text><text x="396.412" y="500.339" fill="#000" font-size="13"> </text><text x="400.024" y="500.339" fill="#000" font-size="13" textLength="10.842">to</text><text x="367.505" y="516.69" fill="#000" font-size="13" textLength="46.249">PlanDto</text><polygon points="285.59,547.898,275.59,551.898,285.59,555.898,281.59,551.898" fill="#181818" style="stroke:#181818;stroke-width:1;stroke-linejoin:miter;stroke-miterlimit:10;"/><line x1="279.59" y1="551.898" x2="494.438" y2="551.898" style="stroke:#181818;stroke-width:1;stroke-dasharray:2,2;"/><text x="349.048" y="547.042" fill="#000" font-size="13" textLength="14.46" font-weight="700">10</text><text x="367.508" y="547.042" fill="#000" font-size="13" textLength="53.473">PlanDto[]</text><polygon points="176.384,578.25,166.384,582.25,176.384,586.25,172.384,582.25" fill="#181818" style="stroke:#181818;stroke-width:1;stroke-linejoin:miter;stroke-miterlimit:10;"/><line x1="170.384" y1="582.25" x2="263.59" y2="582.25" style="stroke:#181818;stroke-width:1;stroke-dasharray:2,2;"/><text x="179.021" y="577.394" fill="#000" font-size="13" textLength="14.46" font-weight="700">11</text><text x="197.481" y="577.394" fill="#000" font-size="13" textLength="53.473">PlanDto[]</text><polygon points="61.793,624.953,51.793,628.953,61.793,632.953,57.793,628.953" fill="#181818" style="stroke:#181818;stroke-width:1;stroke-linejoin:miter;stroke-miterlimit:10;"/><line x1="55.793" y1="628.953" x2="154.384" y2="628.953" style="stroke:#181818;stroke-width:1;stroke-dasharray:2,2;"/><text x="62.793" y="615.921" fill="#000" font-size="13" textLength="14.46" font-weight="700">12</text><text x="90.276" y="607.745" fill="#000" font-size="13" textLength="21.69">200</text><text x="111.966" y="607.745" fill="#000" font-size="13"> </text><text x="115.578" y="607.745" fill="#000" font-size="13" textLength="18.783">OK</text><text x="81.253" y="624.097" fill="#000" font-size="13" textLength="62.131">(PlanDto[])</text></g></svg>