<!-- Generated by Nexo PlantUML generator. Do not edit. -->
<svg xmlns="http://www.w3.org/2000/svg" xmlns:xlink="http://www.w3.org/1999/xlink" version="1.1" data-diagram-type="SEQUENCE" style="width:546px;height:546px;background:#FFFFFF;" width="546px" height="546px" viewBox="0 0 546 546" zoomAndPan="magnify" preserveAspectRatio="none" contentStyleType="text/css"><?plantuml 1.2026.8?><defs/><g font-family="sans-serif" lengthAdjust="spacing"><g class="title" data-source-line="1"><text x="61.139" y="27.995" fill="#000" font-size="14" textLength="421.812" font-weight="700">US-006 - Choose plan before registering - SSD level 1</text></g><g><title>Prospective Admin</title><rect x="184.936" y="123.594" width="8" height="411.789" fill="#000" fill-opacity="0"/><line x1="188.436" y1="123.594" x2="188.436" y2="535.383" style="stroke:#181818;stroke-width:0.5;stroke-dasharray:5,5;"/></g><g><title>Nexo</title><rect x="353.153" y="123.594" width="8" height="411.789" fill="#000" fill-opacity="0"/><line x1="356.653" y1="123.594" x2="356.653" y2="535.383" style="stroke:#181818;stroke-width:0.5;stroke-dasharray:5,5;"/></g><g><title></title><rect x="351.653" y="233.258" width="10" height="104.797" fill="#FFF" style="stroke:#181818;stroke-width:1;"/></g><g><title></title><rect x="351.653" y="397.453" width="10" height="119.93" fill="#FFF" style="stroke:#181818;stroke-width:1;"/></g><text x="120.012" y="120.292" fill="#000" font-size="14" textLength="130.847">Prospective Admin</text><ellipse cx="188.436" cy="55.797" rx="8" ry="8" fill="#FEF9E7" style="stroke:#181818;stroke-width:0.5;"/><path d="M188.436,63.797 L188.436,90.797 M175.436,71.797 L201.436,71.797 M188.436,90.797 L175.436,105.797 M188.436,90.797 L201.436,105.797" style="stroke:#181818;stroke-width:0.5;" fill="none"/><rect x="331.685" y="92.297" width="49.937" height="30.297" fill="#EAF2F8" style="stroke:#181818;stroke-width:0.5;" rx="2.5" ry="2.5"/><text x="338.685" y="112.292" fill="#000" font-size="14" textLength="35.937">Nexo</text><path d="M15,136.594 L15,176.594 L530,176.594 L530,146.594 L520,136.594 L15,136.594" style="stroke:#181818;stroke-width:0.5;" fill="#FFF8DC"/><path d="M520,136.594 L520,146.594 L530,146.594 L520,136.594" style="stroke:#181818;stroke-width:0.5;" fill="#FFF8DC"/><text x="21" y="153.661" fill="#000" font-size="13" textLength="494.089">No plan available, and reaching the organization/admin form without a plan</text><text x="21" y="168.793" fill="#000" font-size="13" textLength="376.34">chosen first, are not yet defined (see US-006 exceptions).</text><polygon points="339.653,229.258,349.653,233.258,339.653,237.258,343.653,233.258" fill="#181818" style="stroke:#181818;stroke-width:1;stroke-linejoin:miter;stroke-miterlimit:10;"/><line x1="188.436" y1="233.258" x2="345.653" y2="233.258" style="stroke:#181818;stroke-width:1;"/><text x="225.191" y="213.059" fill="#000" font-size="13" font-weight="700">1</text><text x="246.473" y="197.926" fill="#000" font-size="13" textLength="34.722">Open</text><text x="281.195" y="197.926" fill="#000" font-size="13"> </text><text x="285.327" y="197.926" fill="#000" font-size="13" textLength="21.334">the</text><text x="238.237" y="213.059" fill="#000" font-size="13" textLength="76.661">register-org</text><text x="265.072" y="228.192" fill="#000" font-size="13" textLength="22.991">link</text><polygon points="199.436,334.055,189.436,338.055,199.436,342.055,195.436,338.055" fill="#181818" style="stroke:#181818;stroke-width:1;stroke-linejoin:miter;stroke-miterlimit:10;"/><line x1="193.436" y1="338.055" x2="350.653" y2="338.055" style="stroke:#181818;stroke-width:1;stroke-dasharray:2,2;"/><text x="234.183" y="295.157" fill="#000" font-size="13" font-weight="700">2</text><text x="259.029" y="257.325" fill="#000" font-size="13" textLength="35.077">Show</text><text x="247.228" y="272.458" fill="#000" font-size="13" textLength="58.678">available</text><text x="259.146" y="287.59" fill="#000" font-size="13" textLength="34.842">plans</text><text x="253.531" y="302.723" fill="#000" font-size="13" textLength="46.071">(name,</text><text x="249.107" y="317.856" fill="#000" font-size="13" textLength="54.92">member</text><text x="259.733" y="332.989" fill="#000" font-size="13" textLength="33.668">limit)</text><polygon points="339.653,393.453,349.653,397.453,339.653,401.453,343.653,397.453" fill="#181818" style="stroke:#181818;stroke-width:1;stroke-linejoin:miter;stroke-miterlimit:10;"/><line x1="188.436" y1="397.453" x2="345.653" y2="397.453" style="stroke:#181818;stroke-width:1;"/><text x="228.308" y="377.254" fill="#000" font-size="13" font-weight="700">3</text><text x="241.354" y="362.122" fill="#000" font-size="13" textLength="26.127">Pick</text><text x="267.48" y="362.122" fill="#000" font-size="13"> </text><text x="271.613" y="362.122" fill="#000" font-size="13">a</text><text x="279.579" y="362.122" fill="#000" font-size="13"> </text><text x="283.711" y="362.122" fill="#000" font-size="13" textLength="28.069">plan</text><text x="264.338" y="377.254" fill="#000" font-size="13" textLength="24.458">and</text><text x="248.304" y="392.387" fill="#000" font-size="13" textLength="56.526">continue</text><polygon points="199.436,513.383,189.436,517.383,199.436,521.383,195.436,517.383" fill="#181818" style="stroke:#181818;stroke-width:1;stroke-linejoin:miter;stroke-miterlimit:10;"/><line x1="193.436" y1="517.383" x2="350.653" y2="517.383" style="stroke:#181818;stroke-width:1;stroke-dasharray:2,2;"/><text x="200.436" y="466.918" fill="#000" font-size="13" font-weight="700">4</text><text x="247.339" y="421.52" fill="#000" font-size="13" textLength="58.456">Continue</text><text x="257.308" y="436.653" fill="#000" font-size="13" textLength="13.051">to</text><text x="270.359" y="436.653" fill="#000" font-size="13"> </text><text x="274.491" y="436.653" fill="#000" font-size="13" textLength="21.334">the</text><text x="213.481" y="451.786" fill="#000" font-size="13" textLength="126.172">organization/admin</text><text x="245.441" y="466.918" fill="#000" font-size="13" textLength="30.539">form</text><text x="275.98" y="466.918" fill="#000" font-size="13"> </text><text x="280.112" y="466.918" fill="#000" font-size="13" textLength="27.581">with</text><text x="249.799" y="482.051" fill="#000" font-size="13" textLength="21.334">the</text><text x="271.134" y="482.051" fill="#000" font-size="13"> </text><text x="275.266" y="482.051" fill="#000" font-size="13" textLength="28.069">plan</text><text x="253.735" y="497.184" fill="#000" font-size="13" textLength="45.665">carried</text><text x="250.885" y="512.317" fill="#000" font-size="13" textLength="51.365">through</text></g></svg>