<!-- Generated by Nexo PlantUML generator. Do not edit. -->
<svg xmlns="http://www.w3.org/2000/svg" xmlns:xlink="http://www.w3.org/1999/xlink" version="1.1" data-diagram-type="SEQUENCE" style="width:784px;height:888px;background:#FFFFFF;" width="784px" height="888px" viewBox="0 0 784 888" zoomAndPan="magnify" preserveAspectRatio="none" contentStyleType="text/css"><?plantuml 1.2026.8?><defs/><g font-family="sans-serif" lengthAdjust="spacing"><g class="title" data-source-line="1"><text x="178.511" y="27.995" fill="#000" font-size="14" textLength="425.339" font-weight="700">US-001 - Register organization and admin - SD level 2</text></g><rect x="269.333" y="304.656" width="244.696" height="306.008" fill="none" style="stroke:#000;stroke-width:1.5;"/><rect x="137.011" y="628.664" width="231.767" height="225.266" fill="none" style="stroke:#000;stroke-width:1.5;"/><g><title>Prospective Admin</title><rect x="149.511" y="123.594" width="8" height="754.336" fill="#000" fill-opacity="0"/><line x1="153.011" y1="123.594" x2="153.011" y2="877.93" style="stroke:#181818;stroke-width:0.5;stroke-dasharray:5,5;"/></g><g><title>Web UI</title><rect x="281.833" y="123.594" width="8" height="754.336" fill="#000" fill-opacity="0"/><line x1="285.333" y1="123.594" x2="285.333" y2="877.93" style="stroke:#181818;stroke-width:0.5;stroke-dasharray:5,5;"/></g><g><title></title><rect x="280.333" y="233.258" width="10" height="634.672" fill="#FFF" style="stroke:#181818;stroke-width:1;"/></g><g><title>Nexo API</title><rect x="494.528" y="123.594" width="8" height="754.336" fill="#000" fill-opacity="0"/><line x1="498.028" y1="123.594" x2="498.028" y2="877.93" style="stroke:#181818;stroke-width:0.5;stroke-dasharray:5,5;"/></g><g><title></title><rect x="493.028" y="292.656" width="10" height="332.008" fill="#FFF" style="stroke:#181818;stroke-width:1;"/></g><text x="84.587" y="120.292" fill="#000" font-size="14" textLength="130.847">Prospective Admin</text><ellipse cx="153.011" cy="55.797" rx="8" ry="8" fill="#FEF9E7" style="stroke:#181818;stroke-width:0.5;"/><path d="M153.011,63.797 L153.011,90.797 M140.011,71.797 L166.011,71.797 M153.011,90.797 L140.011,105.797 M153.011,90.797 L166.011,105.797" style="stroke:#181818;stroke-width:0.5;" fill="none"/><rect x="253.248" y="92.297" width="64.169" height="30.297" fill="#EAF2F8" style="stroke:#181818;stroke-width:0.5;" rx="2.5" ry="2.5"/><text x="260.248" y="112.292" fill="#000" font-size="14" textLength="50.169">Web UI</text><rect x="459.761" y="92.297" width="76.535" height="30.297" fill="#EAF2F8" style="stroke:#181818;stroke-width:0.5;" rx="2.5" ry="2.5"/><text x="466.761" y="112.292" fill="#000" font-size="14" textLength="62.535">Nexo API</text><path d="M15,136.594 L15,161.594 L768,161.594 L768,146.594 L758,136.594 L15,136.594" style="stroke:#181818;stroke-width:0.5;" fill="#FFF8DC"/><path d="M758,136.594 L758,146.594 L768,146.594 L758,136.594" style="stroke:#181818;stroke-width:0.5;" fill="#FFF8DC"/><text x="21" y="153.661" fill="#000" font-size="13" textLength="732.361">Credential input and session delivery are not yet specified.\nThis diagram shows the current draft contract only.</text><polygon points="268.333,229.258,278.333,233.258,268.333,237.258,272.333,233.258" fill="#181818" style="stroke:#181818;stroke-width:1;stroke-linejoin:miter;stroke-miterlimit:10;"/><line x1="153.011" y1="233.258" x2="274.333" y2="233.258" style="stroke:#181818;stroke-width:1;"/><text x="169.619" y="205.493" fill="#000" font-size="13" font-weight="700">1</text><text x="196.141" y="182.793" fill="#000" font-size="13" textLength="54.107">Register</text><text x="182.665" y="197.926" fill="#000" font-size="13" textLength="81.06">organization</text><text x="188.533" y="213.059" fill="#000" font-size="13" textLength="24.458">and</text><text x="212.99" y="213.059" fill="#000" font-size="13"> </text><text x="217.123" y="213.059" fill="#000" font-size="13" textLength="40.733">admin</text><text x="197.299" y="228.192" fill="#000" font-size="13" textLength="51.791">account</text><polygon points="481.028,288.656,491.028,292.656,481.028,296.656,485.028,292.656" fill="#181818" style="stroke:#181818;stroke-width:1;stroke-linejoin:miter;stroke-miterlimit:10;"/><line x1="290.333" y1="292.656" x2="487.028" y2="292.656" style="stroke:#181818;stroke-width:1;"/><text x="299.833" y="272.458" fill="#000" font-size="13" font-weight="700">2</text><text x="381.071" y="257.325" fill="#000" font-size="13" textLength="34.265">POST</text><text x="352.097" y="272.458" fill="#000" font-size="13" textLength="92.212">/organizations</text><text x="312.878" y="287.59" fill="#000" font-size="13" textLength="170.65">(RegisterOrganizationDto)</text><path d="M269.333,304.656 L333.775,304.656 L333.775,311.789 L323.775,321.789 L269.333,321.789 L269.333,304.656" style="stroke:#000;stroke-width:1.5;" fill="#EEE"/><rect x="269.333" y="304.656" width="244.696" height="306.008" fill="none" style="stroke:#000;stroke-width:1.5;"/><text x="284.333" y="317.723" fill="#000" font-size="13" textLength="19.443" font-weight="700">alt</text><text x="348.775" y="316.867" fill="#000" font-size="11" textLength="121.177" font-weight="700">[Request accepted]</text><polygon points="301.333,379.188,291.333,383.188,301.333,387.188,297.333,383.188" fill="#181818" style="stroke:#181818;stroke-width:1;stroke-linejoin:miter;stroke-miterlimit:10;"/><line x1="295.333" y1="383.188" x2="492.028" y2="383.188" style="stroke:#181818;stroke-width:1;stroke-dasharray:2,2;"/><text x="326.886" y="362.989" fill="#000" font-size="13" font-weight="700">3</text><text x="385.797" y="347.856" fill="#000" font-size="13" textLength="24.813">201</text><text x="372.336" y="362.989" fill="#000" font-size="13" textLength="51.733">Created</text><text x="339.932" y="378.122" fill="#000" font-size="13" textLength="116.543">(OrganizationDto)</text><line x1="269.333" y1="392.188" x2="514.028" y2="392.188" style="stroke:#000;stroke-width:1;stroke-dasharray:2,2;"/><text x="274.333" y="404.398" fill="#000" font-size="11" textLength="154.87" font-weight="700">[Invalid required details]</text><polygon points="301.333,442.258,291.333,446.258,301.333,450.258,297.333,446.258" fill="#181818" style="stroke:#181818;stroke-width:1;stroke-linejoin:miter;stroke-miterlimit:10;"/><line x1="295.333" y1="446.258" x2="492.028" y2="446.258" style="stroke:#181818;stroke-width:1;stroke-dasharray:2,2;"/><text x="358.117" y="433.625" fill="#000" font-size="13" font-weight="700">4</text><text x="371.162" y="426.059" fill="#000" font-size="13" textLength="24.813">400</text><text x="395.975" y="426.059" fill="#000" font-size="13"> </text><text x="400.107" y="426.059" fill="#000" font-size="13" textLength="25.137">Bad</text><text x="371.508" y="441.192" fill="#000" font-size="13" textLength="53.39">Request</text><line x1="269.333" y1="455.258" x2="514.028" y2="455.258" style="stroke:#000;stroke-width:1;stroke-dasharray:2,2;"/><text x="274.333" y="467.468" fill="#000" font-size="11" textLength="162.755" font-weight="700">[Email already registered]</text><polygon points="301.333,505.328,291.333,509.328,301.333,513.328,297.333,509.328" fill="#181818" style="stroke:#181818;stroke-width:1;stroke-linejoin:miter;stroke-miterlimit:10;"/><line x1="295.333" y1="509.328" x2="492.028" y2="509.328" style="stroke:#181818;stroke-width:1;stroke-dasharray:2,2;"/><text x="360.5" y="496.696" fill="#000" font-size="13" font-weight="700">5</text><text x="385.797" y="489.129" fill="#000" font-size="13" textLength="24.813">409</text><text x="373.546" y="504.262" fill="#000" font-size="13" textLength="49.315">Conflict</text><line x1="269.333" y1="518.328" x2="514.028" y2="518.328" style="stroke:#000;stroke-width:1;stroke-dasharray:2,2;"/><text x="274.333" y="530.539" fill="#000" font-size="11" textLength="126.693" font-weight="700">[Persistence failure]</text><polygon points="301.333,598.664,291.333,602.664,301.333,606.664,297.333,602.664" fill="#181818" style="stroke:#181818;stroke-width:1;stroke-linejoin:miter;stroke-miterlimit:10;"/><line x1="295.333" y1="602.664" x2="492.028" y2="602.664" style="stroke:#181818;stroke-width:1;stroke-dasharray:2,2;"/><text x="359.992" y="574.899" fill="#000" font-size="13" font-weight="700">6</text><text x="385.797" y="552.2" fill="#000" font-size="13" textLength="24.813">500</text><text x="373.038" y="567.333" fill="#000" font-size="13" textLength="50.331">Internal</text><text x="376.888" y="582.465" fill="#000" font-size="13" textLength="42.631">Server</text><text x="382.102" y="597.598" fill="#000" font-size="13" textLength="32.202">Error</text><path d="M137.011,628.664 L201.454,628.664 L201.454,635.797 L191.454,645.797 L137.011,645.797 L137.011,628.664" style="stroke:#000;stroke-width:1.5;" fill="#EEE"/><rect x="137.011" y="628.664" width="231.767" height="225.266" fill="none" style="stroke:#000;stroke-width:1.5;"/><text x="152.011" y="641.731" fill="#000" font-size="13" textLength="19.443" font-weight="700">alt</text><text x="216.454" y="640.875" fill="#000" font-size="11" textLength="136.324" font-weight="700">[Successful response]</text><polygon points="164.011,718.328,154.011,722.328,164.011,726.328,160.011,722.328" fill="#181818" style="stroke:#181818;stroke-width:1;stroke-linejoin:miter;stroke-miterlimit:10;"/><line x1="158.011" y1="722.328" x2="279.333" y2="722.328" style="stroke:#181818;stroke-width:1;stroke-dasharray:2,2;"/><text x="168.48" y="694.563" fill="#000" font-size="13" font-weight="700">7</text><text x="181.525" y="671.864" fill="#000" font-size="13" textLength="83.338">Organization</text><text x="188.533" y="686.997" fill="#000" font-size="13" textLength="24.458">and</text><text x="212.99" y="686.997" fill="#000" font-size="13"> </text><text x="217.123" y="686.997" fill="#000" font-size="13" textLength="40.733">admin</text><text x="197.299" y="702.129" fill="#000" font-size="13" textLength="51.791">account</text><text x="198.292" y="717.262" fill="#000" font-size="13" textLength="49.804">created</text><line x1="137.011" y1="731.328" x2="368.777" y2="731.328" style="stroke:#000;stroke-width:1;stroke-dasharray:2,2;"/><text x="142.011" y="743.539" fill="#000" font-size="11" textLength="101.933" font-weight="700">[Error response]</text><polygon points="164.011,841.93,154.011,845.93,164.011,849.93,160.011,845.93" fill="#181818" style="stroke:#181818;stroke-width:1;stroke-linejoin:miter;stroke-miterlimit:10;"/><line x1="158.011" y1="845.93" x2="279.333" y2="845.93" style="stroke:#181818;stroke-width:1;stroke-dasharray:2,2;"/><text x="165.011" y="803.032" fill="#000" font-size="13" font-weight="700">8</text><text x="205.656" y="765.2" fill="#000" font-size="13" textLength="35.077">Show</text><text x="189.126" y="780.333" fill="#000" font-size="13" textLength="68.136">validation,</text><text x="178.056" y="795.465" fill="#000" font-size="13" textLength="90.276">authorization,</text><text x="216.545" y="810.598" fill="#000" font-size="13" textLength="13.298">or</text><text x="191.986" y="825.731" fill="#000" font-size="13" textLength="62.417">operation</text><text x="207.201" y="840.864" fill="#000" font-size="13" textLength="31.986">error</text></g></svg>