<!-- Generated by Nexo PlantUML generator. Do not edit. -->
<svg xmlns="http://www.w3.org/2000/svg" xmlns:xlink="http://www.w3.org/1999/xlink" version="1.1" data-diagram-type="SEQUENCE" style="width:903px;height:1141px;background:#FFFFFF;" width="903px" height="1141px" viewBox="0 0 903 1141" zoomAndPan="magnify" preserveAspectRatio="none" contentStyleType="text/css"><?plantuml 1.2026.8?><defs/><g font-family="sans-serif" lengthAdjust="spacing"><g class="title" data-source-line="1"><text x="321.656" y="29.533" fill="#000" font-size="14" textLength="258.262" font-weight="700">US-005 - Sign in - SD level 3 - Frontend</text></g><rect x="690.931" y="440.789" width="192.642" height="125.242" fill="none" style="stroke:#000;stroke-width:1.5;"/><rect x="156.639" y="726.492" width="358.811" height="316.758" fill="none" style="stroke:#000;stroke-width:1.5;"/><g><title>Account Holder</title><rect x="57.358" y="126.219" width="8" height="1004.086" fill="#000" fill-opacity="0"/><line x1="60.858" y1="126.219" x2="60.858" y2="1130.305" style="stroke:#181818;stroke-width:0.5;stroke-dasharray:5,5;"/></g><g><title>LoginPage</title><rect x="169.139" y="126.219" width="8" height="1004.086" fill="#000" fill-opacity="0"/><line x1="172.639" y1="126.219" x2="172.639" y2="1130.305" style="stroke:#181818;stroke-width:0.5;stroke-dasharray:5,5;"/></g><g><title></title><rect x="167.639" y="225.625" width="10" height="886.68" fill="#FFF" style="stroke:#181818;stroke-width:1;"/></g><g><title>SignInForm</title><rect x="327.874" y="126.219" width="8" height="1004.086" fill="#000" fill-opacity="0"/><line x1="331.374" y1="126.219" x2="331.374" y2="1130.305" style="stroke:#181818;stroke-width:0.5;stroke-dasharray:5,5;"/></g><g><title></title><rect x="326.374" y="272.328" width="10" height="784.922" fill="#FFF" style="stroke:#181818;stroke-width:1;"/></g><g><title>AuthProvider</title><rect x="490.95" y="126.219" width="8" height="1004.086" fill="#000" fill-opacity="0"/><line x1="494.45" y1="126.219" x2="494.45" y2="1130.305" style="stroke:#181818;stroke-width:0.5;stroke-dasharray:5,5;"/></g><g><title></title><rect x="489.45" y="777.195" width="10" height="79.406" fill="#FFF" style="stroke:#181818;stroke-width:1;"/></g><g><title>authService</title><rect x="592.38" y="126.219" width="8" height="1004.086" fill="#000" fill-opacity="0"/><line x1="595.88" y1="126.219" x2="595.88" y2="1130.305" style="stroke:#181818;stroke-width:0.5;stroke-dasharray:5,5;"/></g><g><title></title><rect x="590.88" y="319.031" width="10" height="395.461" fill="#FFF" style="stroke:#181818;stroke-width:1;"/></g><g><title>HttpClient</title><rect x="703.431" y="126.219" width="8" height="1004.086" fill="#000" fill-opacity="0"/><line x1="706.931" y1="126.219" x2="706.931" y2="1130.305" style="stroke:#181818;stroke-width:0.5;stroke-dasharray:5,5;"/></g><g><title></title><rect x="701.931" y="382.086" width="10" height="269.352" fill="#FFF" style="stroke:#181818;stroke-width:1;"/></g><g><title>Nexo API</title><rect x="823.798" y="126.219" width="8" height="1004.086" fill="#000" fill-opacity="0"/><line x1="827.298" y1="126.219" x2="827.298" y2="1130.305" style="stroke:#181818;stroke-width:0.5;stroke-dasharray:5,5;"/></g><g><title></title><rect x="822.298" y="428.789" width="10" height="151.242" fill="#FFF" style="stroke:#181818;stroke-width:1;"/></g><text x="10" y="123.143" fill="#000" font-size="14" textLength="95.717">Account Holder</text><ellipse cx="60.858" cy="57.109" rx="8" ry="8" fill="#FEF9E7" style="stroke:#181818;stroke-width:0.5;"/><path d="M60.858,65.109 L60.858,92.109 M47.858,73.109 L73.858,73.109 M60.858,92.109 L47.858,107.109 M60.858,92.109 L73.858,107.109" style="stroke:#181818;stroke-width:0.5;" fill="none"/><rect x="132.164" y="93.609" width="80.951" height="31.609" fill="#EAF2F8" style="stroke:#181818;stroke-width:0.5;" rx="2.5" ry="2.5"/><text x="139.164" y="115.143" fill="#000" font-size="14" textLength="66.951">LoginPage</text><rect x="288.194" y="93.609" width="86.358" height="31.609" fill="#EAF2F8" style="stroke:#181818;stroke-width:0.5;" rx="2.5" ry="2.5"/><text x="295.194" y="115.143" fill="#000" font-size="14" textLength="72.358">SignInForm</text><rect x="446.984" y="93.609" width="94.931" height="31.609" fill="#EAF2F8" style="stroke:#181818;stroke-width:0.5;" rx="2.5" ry="2.5"/><text x="453.984" y="115.143" fill="#000" font-size="14" textLength="80.931">AuthProvider</text><rect x="551.915" y="93.609" width="87.931" height="31.609" fill="#EAF2F8" style="stroke:#181818;stroke-width:0.5;" rx="2.5" ry="2.5"/><text x="558.915" y="115.143" fill="#000" font-size="14" textLength="73.931">authService</text><rect x="669.197" y="93.609" width="75.469" height="31.609" fill="#EAF2F8" style="stroke:#181818;stroke-width:0.5;" rx="2.5" ry="2.5"/><text x="676.197" y="115.143" fill="#000" font-size="14" textLength="61.469">HttpClient</text><rect x="790.729" y="93.609" width="73.138" height="31.609" fill="#EAF2F8" style="stroke:#181818;stroke-width:0.5;" rx="2.5" ry="2.5"/><text x="797.729" y="115.143" fill="#000" font-size="14" textLength="59.138">Nexo API</text><path d="M139.117,139.219 L139.117,165.219 L860.117,165.219 L860.117,149.219 L850.117,139.219 L139.117,139.219" style="stroke:#181818;stroke-width:0.5;" fill="#FFF8DC"/><path d="M850.117,139.219 L850.117,149.219 L860.117,149.219 L850.117,139.219" style="stroke:#181818;stroke-width:0.5;" fill="#FFF8DC"/><text x="157.297" y="157.714" fill="#000" font-size="13" textLength="676.343">Password flow only. Explicit Active-status checks, OAuth linking,\nand sign-in 401 handling in HttpClient remain open.</text><polygon points="155.639,221.625,165.639,225.625,155.639,229.625,159.639,225.625" fill="#181818" style="stroke:#181818;stroke-width:1;stroke-linejoin:miter;stroke-miterlimit:10;"/><line x1="60.858" y1="225.625" x2="161.639" y2="225.625" style="stroke:#181818;stroke-width:1;"/><text x="80.45" y="204.417" fill="#000" font-size="13" font-weight="700">1</text><text x="99.634" y="188.065" fill="#000" font-size="13" textLength="40.46">Submit</text><text x="91.68" y="204.417" fill="#000" font-size="13" textLength="31.065">email</text><text x="122.746" y="204.417" fill="#000" font-size="13"> </text><text x="126.357" y="204.417" fill="#000" font-size="13" textLength="21.69">and</text><text x="92.045" y="220.769" fill="#000" font-size="13" textLength="55.637">password</text><polygon points="314.374,268.328,324.374,272.328,314.374,276.328,318.374,272.328" fill="#181818" style="stroke:#181818;stroke-width:1;stroke-linejoin:miter;stroke-miterlimit:10;"/><line x1="177.639" y1="272.328" x2="320.374" y2="272.328" style="stroke:#181818;stroke-width:1;"/><text x="187.139" y="259.296" fill="#000" font-size="13" font-weight="700">2</text><text x="198.369" y="251.12" fill="#000" font-size="13" textLength="118.504">handleSubmit(email,</text><text x="227.638" y="267.472" fill="#000" font-size="13" textLength="59.966">password)</text><polygon points="578.88,315.031,588.88,319.031,578.88,323.031,582.88,319.031" fill="#181818" style="stroke:#181818;stroke-width:1;stroke-linejoin:miter;stroke-miterlimit:10;"/><line x1="336.374" y1="319.031" x2="584.88" y2="319.031" style="stroke:#181818;stroke-width:1;"/><text x="421.164" y="305.999" fill="#000" font-size="13" font-weight="700">3</text><text x="432.394" y="297.823" fill="#000" font-size="13" textLength="73.696">signIn(email,</text><text x="439.259" y="314.175" fill="#000" font-size="13" textLength="59.966">password)</text><polygon points="689.931,378.086,699.931,382.086,689.931,386.086,693.931,382.086" fill="#181818" style="stroke:#181818;stroke-width:1;stroke-linejoin:miter;stroke-miterlimit:10;"/><line x1="600.88" y1="382.086" x2="695.931" y2="382.086" style="stroke:#181818;stroke-width:1;"/><text x="610.38" y="360.878" fill="#000" font-size="13" font-weight="700">4</text><text x="639.323" y="344.526" fill="#000" font-size="13" textLength="35.395">POST</text><text x="621.61" y="360.878" fill="#000" font-size="13" textLength="70.821">/auth/sign-in</text><text x="624.146" y="377.229" fill="#000" font-size="13" textLength="65.749">(SignInDto)</text><polygon points="810.298,424.789,820.298,428.789,810.298,432.789,814.298,428.789" fill="#181818" style="stroke:#181818;stroke-width:1;stroke-linejoin:miter;stroke-miterlimit:10;"/><line x1="711.931" y1="428.789" x2="816.298" y2="428.789" style="stroke:#181818;stroke-width:1;"/><text x="739.819" y="415.757" fill="#000" font-size="13" font-weight="700">5</text><text x="755.759" y="407.581" fill="#000" font-size="13" textLength="33.941">HTTP</text><text x="751.049" y="423.933" fill="#000" font-size="13" textLength="43.361">request</text><path d="M690.931,440.789 L751.102,440.789 L751.102,449.141 L741.102,459.141 L690.931,459.141 L690.931,440.789" style="stroke:#000;stroke-width:1.5;" fill="#EEE"/><rect x="690.931" y="440.789" width="192.642" height="125.242" fill="none" style="stroke:#000;stroke-width:1.5;"/><text x="705.931" y="455.284" fill="#000" font-size="13" textLength="15.171" font-weight="700">alt</text><text x="766.102" y="454.208" fill="#000" font-size="11" textLength="101.471" font-weight="700">[Request accepted]</text><polygon points="722.931,503.844,712.931,507.844,722.931,511.844,718.931,507.844" fill="#181818" style="stroke:#181818;stroke-width:1;stroke-linejoin:miter;stroke-miterlimit:10;"/><line x1="716.931" y1="507.844" x2="821.298" y2="507.844" style="stroke:#181818;stroke-width:1;stroke-dasharray:2,2;"/><text x="723.931" y="494.812" fill="#000" font-size="13" font-weight="700">6</text><text x="750.688" y="486.636" fill="#000" font-size="13" textLength="21.69">200</text><text x="772.377" y="486.636" fill="#000" font-size="13"> </text><text x="775.989" y="486.636" fill="#000" font-size="13" textLength="18.783">OK</text><text x="735.161" y="502.987" fill="#000" font-size="13" textLength="75.137">(SessionDto)</text><line x1="690.931" y1="516.844" x2="883.573" y2="516.844" style="stroke:#000;stroke-width:1;stroke-dasharray:2,2;"/><text x="695.931" y="530.263" fill="#000" font-size="11" textLength="95.971" font-weight="700">[Request rejected]</text><polygon points="722.931,554.031,712.931,558.031,722.931,562.031,718.931,558.031" fill="#181818" style="stroke:#181818;stroke-width:1;stroke-linejoin:miter;stroke-miterlimit:10;"/><line x1="716.931" y1="558.031" x2="821.298" y2="558.031" style="stroke:#181818;stroke-width:1;stroke-dasharray:2,2;"/><text x="738.004" y="553.175" fill="#000" font-size="13" font-weight="700">7</text><text x="749.234" y="553.175" fill="#000" font-size="13" textLength="46.992">400/401</text><polygon points="611.88,647.438,601.88,651.438,611.88,655.438,607.88,651.438" fill="#181818" style="stroke:#181818;stroke-width:1;stroke-linejoin:miter;stroke-miterlimit:10;"/><line x1="605.88" y1="651.438" x2="700.931" y2="651.438" style="stroke:#181818;stroke-width:1;stroke-dasharray:2,2;"/><text x="616.522" y="622.054" fill="#000" font-size="13" font-weight="700">8</text><text x="627.752" y="597.526" fill="#000" font-size="13" textLength="58.538">Response</text><text x="636.784" y="613.878" fill="#000" font-size="13" textLength="25.302">data</text><text x="662.086" y="613.878" fill="#000" font-size="13"> </text><text x="665.698" y="613.878" fill="#000" font-size="13" textLength="11.559">or</text><text x="633.896" y="630.229" fill="#000" font-size="13" textLength="46.249">rejected</text><text x="635.34" y="646.581" fill="#000" font-size="13" textLength="43.361">request</text><polygon points="347.374,710.492,337.374,714.492,347.374,718.492,343.374,714.492" fill="#181818" style="stroke:#181818;stroke-width:1;stroke-linejoin:miter;stroke-miterlimit:10;"/><line x1="341.374" y1="714.492" x2="589.88" y2="714.492" style="stroke:#181818;stroke-width:1;stroke-dasharray:2,2;"/><text x="422.967" y="693.284" fill="#000" font-size="13" font-weight="700">9</text><text x="434.197" y="676.933" fill="#000" font-size="13" textLength="70.091">SessionDto,</text><text x="442.147" y="693.284" fill="#000" font-size="13" textLength="11.559">or</text><text x="453.706" y="693.284" fill="#000" font-size="13"> </text><text x="457.318" y="693.284" fill="#000" font-size="13" textLength="39.019">thrown</text><text x="455.518" y="709.636" fill="#000" font-size="13" textLength="27.447">error</text><path d="M156.639,726.492 L216.81,726.492 L216.81,734.844 L206.81,744.844 L156.639,744.844 L156.639,726.492" style="stroke:#000;stroke-width:1.5;" fill="#EEE"/><rect x="156.639" y="726.492" width="358.811" height="316.758" fill="none" style="stroke:#000;stroke-width:1.5;"/><text x="171.639" y="740.987" fill="#000" font-size="13" textLength="15.171" font-weight="700">alt</text><text x="231.81" y="739.911" fill="#000" font-size="11" textLength="117.375" font-weight="700">[Successful response]</text><polygon points="477.45,773.195,487.45,777.195,477.45,781.195,481.45,777.195" fill="#181818" style="stroke:#181818;stroke-width:1;stroke-linejoin:miter;stroke-miterlimit:10;"/><line x1="336.374" y1="777.195" x2="483.45" y2="777.195" style="stroke:#181818;stroke-width:1;"/><text x="345.874" y="772.339" fill="#000" font-size="13" textLength="14.46" font-weight="700">10</text><text x="364.333" y="772.339" fill="#000" font-size="13" textLength="115.616">login(session.token)</text><polygon points="347.374,852.602,337.374,856.602,347.374,860.602,343.374,856.602" fill="#181818" style="stroke:#181818;stroke-width:1;stroke-linejoin:miter;stroke-miterlimit:10;"/><line x1="341.374" y1="856.602" x2="488.45" y2="856.602" style="stroke:#181818;stroke-width:1;stroke-dasharray:2,2;"/><text x="369.354" y="827.218" fill="#000" font-size="13" textLength="14.46" font-weight="700">11</text><text x="404.076" y="802.69" fill="#000" font-size="13" textLength="36.131">Token</text><text x="387.813" y="819.042" fill="#000" font-size="13" textLength="39.743">stored;</text><text x="427.556" y="819.042" fill="#000" font-size="13"> </text><text x="431.168" y="819.042" fill="#000" font-size="13" textLength="25.302">auth</text><text x="408.05" y="835.394" fill="#000" font-size="13" textLength="28.184">state</text><text x="398.646" y="851.745" fill="#000" font-size="13" textLength="46.992">updated</text><polygon points="188.639,932.008,178.639,936.008,188.639,940.008,184.639,936.008" fill="#181818" style="stroke:#181818;stroke-width:1;stroke-linejoin:miter;stroke-miterlimit:10;"/><line x1="182.639" y1="936.008" x2="325.374" y2="936.008" style="stroke:#181818;stroke-width:1;stroke-dasharray:2,2;"/><text x="213.517" y="906.624" fill="#000" font-size="13" textLength="14.46" font-weight="700">12</text><text x="238.112" y="882.097" fill="#000" font-size="13" textLength="46.249">Session</text><text x="242.447" y="898.448" fill="#000" font-size="13" textLength="37.578">issued</text><text x="241.365" y="914.8" fill="#000" font-size="13" textLength="39.743">(token,</text><text x="231.977" y="931.151" fill="#000" font-size="13" textLength="58.519">expiresAt)</text><line x1="156.639" y1="945.008" x2="515.45" y2="945.008" style="stroke:#000;stroke-width:1;stroke-dasharray:2,2;"/><text x="161.639" y="958.427" fill="#000" font-size="11" textLength="91.078" font-weight="700">[Failed response]</text><polygon points="188.639,1031.25,178.639,1035.25,188.639,1039.25,184.639,1035.25" fill="#181818" style="stroke:#181818;stroke-width:1;stroke-linejoin:miter;stroke-miterlimit:10;"/><line x1="182.639" y1="1035.25" x2="325.374" y2="1035.25" style="stroke:#181818;stroke-width:1;stroke-dasharray:2,2;"/><text x="209.537" y="1005.866" fill="#000" font-size="13" textLength="14.46" font-weight="700">13</text><text x="230.895" y="981.339" fill="#000" font-size="13" textLength="28.888">Error</text><text x="259.783" y="981.339" fill="#000" font-size="13"> </text><text x="263.395" y="981.339" fill="#000" font-size="13" textLength="28.184">state</text><text x="227.997" y="997.69" fill="#000" font-size="13" textLength="59.255">(validation</text><text x="287.252" y="997.69" fill="#000" font-size="13"> </text><text x="290.864" y="997.69" fill="#000" font-size="13">/</text><text x="234.132" y="1014.042" fill="#000" font-size="13" textLength="54.209">operation</text><text x="241.368" y="1030.394" fill="#000" font-size="13" textLength="39.736">failure)</text><polygon points="71.858,1108.305,61.858,1112.305,71.858,1116.305,67.858,1112.305" fill="#181818" style="stroke:#181818;stroke-width:1;stroke-linejoin:miter;stroke-miterlimit:10;"/><line x1="65.858" y1="1112.305" x2="166.639" y2="1112.305" style="stroke:#181818;stroke-width:1;stroke-dasharray:2,2;"/><text x="72.858" y="1091.097" fill="#000" font-size="13" textLength="14.46" font-weight="700">14</text><text x="91.318" y="1074.745" fill="#000" font-size="13" textLength="42.637">Render</text><text x="133.956" y="1074.745" fill="#000" font-size="13"> </text><text x="137.567" y="1074.745" fill="#000" font-size="13" textLength="18.072">the</text><text x="98.91" y="1091.097" fill="#000" font-size="13" textLength="49.137">resulting</text><text x="109.387" y="1107.448" fill="#000" font-size="13" textLength="28.184">state</text></g></svg>