<!-- Generated by Nexo PlantUML generator. Do not edit. -->
<svg xmlns="http://www.w3.org/2000/svg" xmlns:xlink="http://www.w3.org/1999/xlink" version="1.1" data-diagram-type="SEQUENCE" style="width:1595px;height:3074px;background:#FFFFFF;" width="1595px" height="3074px" viewBox="0 0 1595 3074" zoomAndPan="magnify" preserveAspectRatio="none" contentStyleType="text/css"><?plantuml 1.2026.8?><defs/><g font-family="sans-serif" lengthAdjust="spacing"><g class="title" data-source-line="1"><text x="644.392" y="29.533" fill="#000" font-size="14" textLength="304.227" font-weight="700">US-002 - Invite member - SD level 3 - Backend</text></g><rect x="13" y="255.68" width="1562.01" height="2783.609" fill="none" style="stroke:#000;stroke-width:1.5;"/><rect x="32" y="665.141" width="1518.01" height="2360.148" fill="none" style="stroke:#000;stroke-width:1.5;"/><rect x="51" y="1436.578" width="1474.01" height="1574.711" fill="none" style="stroke:#000;stroke-width:1.5;"/><rect x="70" y="1911.445" width="1430.01" height="1085.844" fill="none" style="stroke:#000;stroke-width:1.5;"/><rect x="89" y="2671.234" width="1165.294" height="312.055" fill="none" style="stroke:#000;stroke-width:1.5;"/><g><title>Web App</title><rect x="101.5" y="81.219" width="8" height="2982.07" fill="#000" fill-opacity="0"/><line x1="105" y1="81.219" x2="105" y2="3063.289" style="stroke:#181818;stroke-width:0.5;stroke-dasharray:5,5;"/></g><g><title></title><rect x="100" y="125.57" width="10" height="2927.719" fill="#FFF" style="stroke:#181818;stroke-width:1;"/></g><g><title>AccountInvitationsController</title><rect x="378.053" y="81.219" width="8" height="2982.07" fill="#000" fill-opacity="0"/><line x1="381.553" y1="81.219" x2="381.553" y2="3063.289" style="stroke:#181818;stroke-width:0.5;stroke-dasharray:5,5;"/></g><g><title></title><rect x="376.553" y="180.625" width="10" height="2872.664" fill="#FFF" style="stroke:#181818;stroke-width:1;"/></g><g><title>AccountInvitationService</title><rect x="565.859" y="81.219" width="8" height="2982.07" fill="#000" fill-opacity="0"/><line x1="569.359" y1="81.219" x2="569.359" y2="3063.289" style="stroke:#181818;stroke-width:0.5;stroke-dasharray:5,5;"/></g><g><title></title><rect x="564.359" y="243.68" width="10" height="2809.609" fill="#FFF" style="stroke:#181818;stroke-width:1;"/></g><g><title>IAccountRepository</title><rect x="921.885" y="81.219" width="8" height="2982.07" fill="#000" fill-opacity="0"/><line x1="925.385" y1="81.219" x2="925.385" y2="3063.289" style="stroke:#181818;stroke-width:0.5;stroke-dasharray:5,5;"/></g><g><title></title><rect x="920.385" y="419.625" width="10" height="233.516" fill="#FFF" style="stroke:#181818;stroke-width:1;"/></g><g><title></title><rect x="920.385" y="1109.305" width="10" height="315.273" fill="#FFF" style="stroke:#181818;stroke-width:1;"/></g><g><title></title><rect x="920.385" y="1616.875" width="10" height="282.57" fill="#FFF" style="stroke:#181818;stroke-width:1;"/></g><g><title></title><rect x="920.385" y="2266.906" width="10" height="156.461" fill="#FFF" style="stroke:#181818;stroke-width:1;"/></g><g><title>IOrganizationRepository</title><rect x="1081.674" y="81.219" width="8" height="2982.07" fill="#000" fill-opacity="0"/><line x1="1085.174" y1="81.219" x2="1085.174" y2="3063.289" style="stroke:#181818;stroke-width:0.5;stroke-dasharray:5,5;"/></g><g><title></title><rect x="1080.174" y="829.086" width="10" height="233.516" fill="#FFF" style="stroke:#181818;stroke-width:1;"/></g><g><title>AccountMapper</title><rect x="1229.794" y="81.219" width="8" height="2982.07" fill="#000" fill-opacity="0"/><line x1="1233.294" y1="81.219" x2="1233.294" y2="3063.289" style="stroke:#181818;stroke-width:0.5;stroke-dasharray:5,5;"/></g><g><title></title><rect x="1228.294" y="2108.094" width="10" height="128.461" fill="#FFF" style="stroke:#181818;stroke-width:1;"/></g><g><title></title><rect x="1228.294" y="2754.641" width="10" height="30.352" fill="#FFF" style="stroke:#181818;stroke-width:1;"/></g><g><title>NexoDbContext</title><rect x="1352.235" y="81.219" width="8" height="2982.07" fill="#000" fill-opacity="0"/><line x1="1355.735" y1="81.219" x2="1355.735" y2="3063.289" style="stroke:#181818;stroke-width:0.5;stroke-dasharray:5,5;"/></g><g><title></title><rect x="1350.735" y="466.328" width="10" height="140.109" fill="#FFF" style="stroke:#181818;stroke-width:1;"/></g><g><title></title><rect x="1350.735" y="875.789" width="10" height="140.109" fill="#FFF" style="stroke:#181818;stroke-width:1;"/></g><g><title></title><rect x="1350.735" y="1188.711" width="10" height="156.461" fill="#FFF" style="stroke:#181818;stroke-width:1;"/></g><g><title></title><rect x="1350.735" y="1696.281" width="10" height="140.109" fill="#FFF" style="stroke:#181818;stroke-width:1;"/></g><g><title></title><rect x="1350.735" y="2329.961" width="10" height="46.703" fill="#FFF" style="stroke:#181818;stroke-width:1;"/></g><g><title></title><rect x="1350.735" y="2453.719" width="10" height="205.516" fill="#FFF" style="stroke:#181818;stroke-width:1;"/></g><g><title>Database</title><rect x="1475.51" y="81.219" width="8" height="2982.07" fill="#000" fill-opacity="0"/><line x1="1479.01" y1="81.219" x2="1479.01" y2="3063.289" style="stroke:#181818;stroke-width:0.5;stroke-dasharray:5,5;"/></g><g><title></title><rect x="1474.01" y="529.383" width="10" height="30.352" fill="#FFF" style="stroke:#181818;stroke-width:1;"/></g><g><title></title><rect x="1474.01" y="938.844" width="10" height="30.352" fill="#FFF" style="stroke:#181818;stroke-width:1;"/></g><g><title></title><rect x="1474.01" y="1268.117" width="10" height="30.352" fill="#FFF" style="stroke:#181818;stroke-width:1;"/></g><g><title></title><rect x="1474.01" y="1759.336" width="10" height="30.352" fill="#FFF" style="stroke:#181818;stroke-width:1;"/></g><g><title></title><rect x="1474.01" y="2500.422" width="10" height="79.406" fill="#FFF" style="stroke:#181818;stroke-width:1;"/></g><rect x="69.207" y="48.609" width="71.586" height="31.609" fill="#EAF2F8" style="stroke:#181818;stroke-width:0.5;" rx="2.5" ry="2.5"/><text x="76.207" y="70.143" fill="#000" font-size="14" textLength="57.586">Web App</text><rect x="287.398" y="48.609" width="188.31" height="31.609" fill="#EAF2F8" style="stroke:#181818;stroke-width:0.5;" rx="2.5" ry="2.5"/><text x="294.398" y="70.143" fill="#000" font-size="14" textLength="174.31">AccountInvitationsController</text><rect x="485.708" y="48.609" width="167.303" height="31.609" fill="#EAF2F8" style="stroke:#181818;stroke-width:0.5;" rx="2.5" ry="2.5"/><text x="492.708" y="70.143" fill="#000" font-size="14" textLength="153.303">AccountInvitationService</text><rect x="857.689" y="48.609" width="135.393" height="31.609" fill="#EAF2F8" style="stroke:#181818;stroke-width:0.5;" rx="2.5" ry="2.5"/><text x="864.689" y="70.143" fill="#000" font-size="14" textLength="121.393">IAccountRepository</text><rect x="1003.082" y="48.609" width="164.186" height="31.609" fill="#EAF2F8" style="stroke:#181818;stroke-width:0.5;" rx="2.5" ry="2.5"/><text x="1010.082" y="70.143" fill="#000" font-size="14" textLength="150.186">IOrganizationRepository</text><rect x="1177.267" y="48.609" width="112.055" height="31.609" fill="#EAF2F8" style="stroke:#181818;stroke-width:0.5;" rx="2.5" ry="2.5"/><text x="1184.267" y="70.143" fill="#000" font-size="14" textLength="98.055">AccountMapper</text><rect x="1299.322" y="48.609" width="112.827" height="31.609" fill="#EAF2F8" style="stroke:#181818;stroke-width:0.5;" rx="2.5" ry="2.5"/><text x="1306.322" y="70.143" fill="#000" font-size="14" textLength="98.827">NexoDbContext</text><rect x="1442.044" y="48.609" width="73.931" height="31.609" fill="#EAF2F8" style="stroke:#181818;stroke-width:0.5;" rx="2.5" ry="2.5"/><text x="1449.044" y="70.143" fill="#000" font-size="14" textLength="59.931">Database</text><path d="M320.993,94.219 L320.993,120.219 L1538.993,120.219 L1538.993,104.219 L1528.993,94.219 L320.993,94.219" style="stroke:#181818;stroke-width:0.5;" fill="#FFF8DC"/><path d="M1528.993,94.219 L1528.993,104.219 L1538.993,104.219 L1528.993,94.219" style="stroke:#181818;stroke-width:0.5;" fill="#FFF8DC"/><text x="633.5" y="112.714" fill="#000" font-size="13" textLength="584.562">Limit counting (members vs all active accounts) and concurrent\nactivation enforcement remain open.</text><polygon points="364.553,176.625,374.553,180.625,364.553,184.625,368.553,180.625" fill="#181818" style="stroke:#181818;stroke-width:1;stroke-linejoin:miter;stroke-miterlimit:10;"/><line x1="110" y1="180.625" x2="370.553" y2="180.625" style="stroke:#181818;stroke-width:1;"/><text x="119.5" y="159.417" fill="#000" font-size="13" font-weight="700">1</text><text x="231.194" y="143.065" fill="#000" font-size="13" textLength="35.395">POST</text><text x="130.73" y="159.417" fill="#000" font-size="13" textLength="236.323">/organizations/{organizationId}/invitations</text><text x="235.527" y="175.769" fill="#000" font-size="13" textLength="26.73">(dto)</text><polygon points="552.359,239.68,562.359,243.68,552.359,247.68,556.359,243.68" fill="#181818" style="stroke:#181818;stroke-width:1;stroke-linejoin:miter;stroke-miterlimit:10;"/><line x1="386.553" y1="243.68" x2="558.359" y2="243.68" style="stroke:#181818;stroke-width:1;"/><text x="409.5" y="222.472" fill="#000" font-size="13" font-weight="700">2</text><text x="420.73" y="206.12" fill="#000" font-size="13" textLength="120.682">Invite(organizationId,</text><text x="434.825" y="222.472" fill="#000" font-size="13" textLength="92.492">callerAccountId,</text><text x="469.871" y="238.823" fill="#000" font-size="13" textLength="22.401">dto)</text><path d="M13,255.68 L73.171,255.68 L73.171,264.031 L63.171,274.031 L13,274.031 L13,255.68" style="stroke:#000;stroke-width:1.5;" fill="#EEE"/><rect x="13" y="255.68" width="1562.01" height="2783.609" fill="none" style="stroke:#000;stroke-width:1.5;"/><text x="28" y="270.175" fill="#000" font-size="13" textLength="15.171" font-weight="700">alt</text><text x="88.171" y="269.099" fill="#000" font-size="11" textLength="179.083" font-weight="700">[Missing or invalid required fields]</text><polygon points="397.553,318.734,387.553,322.734,397.553,326.734,393.553,322.734" fill="#181818" style="stroke:#181818;stroke-width:1;stroke-linejoin:miter;stroke-miterlimit:10;"/><line x1="391.553" y1="322.734" x2="563.359" y2="322.734" style="stroke:#181818;stroke-width:1;stroke-dasharray:2,2;"/><text x="441.293" y="309.702" fill="#000" font-size="13" font-weight="700">3</text><text x="452.523" y="301.526" fill="#000" font-size="13" textLength="57.097">Validation</text><text x="463.368" y="317.878" fill="#000" font-size="13" textLength="35.407">failure</text><polygon points="121,365.438,111,369.438,121,373.438,117,369.438" fill="#181818" style="stroke:#181818;stroke-width:1;stroke-linejoin:miter;stroke-miterlimit:10;"/><line x1="115" y1="369.438" x2="375.553" y2="369.438" style="stroke:#181818;stroke-width:1;stroke-dasharray:2,2;"/><text x="213.445" y="356.405" fill="#000" font-size="13" font-weight="700">4</text><text x="224.675" y="348.229" fill="#000" font-size="13" textLength="21.69">400</text><text x="246.365" y="348.229" fill="#000" font-size="13"> </text><text x="249.977" y="348.229" fill="#000" font-size="13" textLength="23.131">Bad</text><text x="224.682" y="364.581" fill="#000" font-size="13" textLength="48.42">Request</text><line x1="13" y1="378.438" x2="1575.01" y2="378.438" style="stroke:#000;stroke-width:1;stroke-dasharray:2,2;"/><text x="18" y="391.856" fill="#000" font-size="11" textLength="63.545" font-weight="700">[Valid input]</text><polygon points="908.385,415.625,918.385,419.625,908.385,423.625,912.385,419.625" fill="#181818" style="stroke:#181818;stroke-width:1;stroke-linejoin:miter;stroke-miterlimit:10;"/><line x1="574.359" y1="419.625" x2="914.385" y2="419.625" style="stroke:#181818;stroke-width:1;"/><text x="651.805" y="414.769" fill="#000" font-size="13" font-weight="700">5</text><text x="663.035" y="414.769" fill="#000" font-size="13" textLength="179.905">GetByIdAsync(callerAccountId)</text><polygon points="1338.735,462.328,1348.735,466.328,1338.735,470.328,1342.735,466.328" fill="#181818" style="stroke:#181818;stroke-width:1;stroke-linejoin:miter;stroke-miterlimit:10;"/><line x1="930.385" y1="466.328" x2="1344.735" y2="466.328" style="stroke:#181818;stroke-width:1;"/><text x="1086.176" y="453.296" fill="#000" font-size="13" font-weight="700">6</text><text x="1112.577" y="445.12" fill="#000" font-size="13" textLength="35.401">Query</text><text x="1147.978" y="445.12" fill="#000" font-size="13"> </text><text x="1151.59" y="445.12" fill="#000" font-size="13" textLength="13.73">by</text><text x="1165.32" y="445.12" fill="#000" font-size="13"> </text><text x="1168.932" y="445.12" fill="#000" font-size="13" textLength="10.842">Id</text><text x="1097.406" y="461.472" fill="#000" font-size="13" textLength="97.538">(callerAccountId)</text><polygon points="1462.01,525.383,1472.01,529.383,1462.01,533.383,1466.01,529.383" fill="#181818" style="stroke:#181818;stroke-width:1;stroke-linejoin:miter;stroke-miterlimit:10;"/><line x1="1360.735" y1="529.383" x2="1468.01" y2="529.383" style="stroke:#181818;stroke-width:1;"/><text x="1379.6" y="508.175" fill="#000" font-size="13" font-weight="700">7</text><text x="1397.702" y="491.823" fill="#000" font-size="13" textLength="50.572">SELECT</text><text x="1390.83" y="508.175" fill="#000" font-size="13" textLength="46.973">Account</text><text x="1437.803" y="508.175" fill="#000" font-size="13"> </text><text x="1441.415" y="508.175" fill="#000" font-size="13" textLength="13.73">by</text><text x="1417.567" y="524.526" fill="#000" font-size="13" textLength="10.842">Id</text><polygon points="1371.735,555.734,1361.735,559.734,1371.735,563.734,1367.735,559.734" fill="#181818" style="stroke:#181818;stroke-width:1;stroke-linejoin:miter;stroke-miterlimit:10;"/><line x1="1365.735" y1="559.734" x2="1473.01" y2="559.734" style="stroke:#181818;stroke-width:1;stroke-dasharray:2,2;"/><text x="1376.357" y="554.878" fill="#000" font-size="13" font-weight="700">8</text><text x="1387.587" y="554.878" fill="#000" font-size="13" textLength="35.401">Query</text><text x="1422.988" y="554.878" fill="#000" font-size="13"> </text><text x="1426.599" y="554.878" fill="#000" font-size="13" textLength="31.789">result</text><polygon points="941.385,602.438,931.385,606.438,941.385,610.438,937.385,606.438" fill="#181818" style="stroke:#181818;stroke-width:1;stroke-linejoin:miter;stroke-miterlimit:10;"/><line x1="935.385" y1="606.438" x2="1349.735" y2="606.438" style="stroke:#181818;stroke-width:1;stroke-dasharray:2,2;"/><text x="1099.903" y="593.405" fill="#000" font-size="13" font-weight="700">9</text><text x="1111.133" y="585.229" fill="#000" font-size="13" textLength="70.084">Materialized</text><text x="1130.281" y="601.581" fill="#000" font-size="13" textLength="31.789">result</text><polygon points="585.359,649.141,575.359,653.141,585.359,657.141,581.359,653.141" fill="#181818" style="stroke:#181818;stroke-width:1;stroke-linejoin:miter;stroke-miterlimit:10;"/><line x1="579.359" y1="653.141" x2="919.385" y2="653.141" style="stroke:#181818;stroke-width:1;stroke-dasharray:2,2;"/><text x="714.656" y="640.108" fill="#000" font-size="13" textLength="14.46" font-weight="700">10</text><text x="741.07" y="631.933" fill="#000" font-size="13" textLength="31.065">caller</text><text x="733.116" y="648.284" fill="#000" font-size="13" textLength="46.973">Account</text><path d="M32,665.141 L92.171,665.141 L92.171,673.492 L82.171,683.492 L32,683.492 L32,665.141" style="stroke:#000;stroke-width:1.5;" fill="#EEE"/><rect x="32" y="665.141" width="1518.01" height="2360.148" fill="none" style="stroke:#000;stroke-width:1.5;"/><text x="47" y="679.636" fill="#000" font-size="13" textLength="15.171" font-weight="700">alt</text><text x="107.171" y="678.56" fill="#000" font-size="11" textLength="199.219" font-weight="700">[Caller is not Admin of organizationId]</text><polygon points="397.553,728.195,387.553,732.195,397.553,736.195,393.553,732.195" fill="#181818" style="stroke:#181818;stroke-width:1;stroke-linejoin:miter;stroke-miterlimit:10;"/><line x1="391.553" y1="732.195" x2="563.359" y2="732.195" style="stroke:#181818;stroke-width:1;stroke-dasharray:2,2;"/><text x="408.412" y="719.163" fill="#000" font-size="13" textLength="14.46" font-weight="700">11</text><text x="468.792" y="710.987" fill="#000" font-size="13" textLength="31.789">throw</text><text x="426.872" y="727.339" fill="#000" font-size="13" textLength="115.629">ForbiddenException</text><polygon points="121,774.898,111,778.898,121,782.898,117,778.898" fill="#181818" style="stroke:#181818;stroke-width:1;stroke-linejoin:miter;stroke-miterlimit:10;"/><line x1="115" y1="778.898" x2="375.553" y2="778.898" style="stroke:#181818;stroke-width:1;stroke-dasharray:2,2;"/><text x="204.778" y="765.866" fill="#000" font-size="13" textLength="14.46" font-weight="700">12</text><text x="241.662" y="757.69" fill="#000" font-size="13" textLength="21.69">403</text><text x="223.238" y="774.042" fill="#000" font-size="13" textLength="58.538">Forbidden</text><line x1="32" y1="787.898" x2="1550.01" y2="787.898" style="stroke:#000;stroke-width:1;stroke-dasharray:2,2;"/><text x="37" y="801.317" fill="#000" font-size="11" textLength="96.567" font-weight="700">[Caller authorized]</text><polygon points="1068.174,825.086,1078.174,829.086,1068.174,833.086,1072.174,829.086" fill="#181818" style="stroke:#181818;stroke-width:1;stroke-linejoin:miter;stroke-miterlimit:10;"/><line x1="574.359" y1="829.086" x2="1074.174" y2="829.086" style="stroke:#181818;stroke-width:1;"/><text x="731.69" y="824.229" fill="#000" font-size="13" textLength="14.46" font-weight="700">13</text><text x="750.15" y="824.229" fill="#000" font-size="13" textLength="172.694">GetByIdAsync(organizationId)</text><polygon points="1338.735,871.789,1348.735,875.789,1338.735,879.789,1342.735,875.789" fill="#181818" style="stroke:#181818;stroke-width:1;stroke-linejoin:miter;stroke-miterlimit:10;"/><line x1="1090.174" y1="875.789" x2="1344.735" y2="875.789" style="stroke:#181818;stroke-width:1;"/><text x="1166.061" y="862.757" fill="#000" font-size="13" textLength="14.46" font-weight="700">14</text><text x="1196.087" y="854.581" fill="#000" font-size="13" textLength="35.401">Query</text><text x="1231.488" y="854.581" fill="#000" font-size="13"> </text><text x="1235.099" y="854.581" fill="#000" font-size="13" textLength="13.73">by</text><text x="1248.829" y="854.581" fill="#000" font-size="13"> </text><text x="1252.441" y="854.581" fill="#000" font-size="13" textLength="10.842">Id</text><text x="1184.521" y="870.933" fill="#000" font-size="13" textLength="90.327">(organizationId)</text><polygon points="1462.01,934.844,1472.01,938.844,1462.01,942.844,1466.01,938.844" fill="#181818" style="stroke:#181818;stroke-width:1;stroke-linejoin:miter;stroke-miterlimit:10;"/><line x1="1360.735" y1="938.844" x2="1468.01" y2="938.844" style="stroke:#181818;stroke-width:1;"/><text x="1371.288" y="917.636" fill="#000" font-size="13" textLength="14.46" font-weight="700">15</text><text x="1401.317" y="901.284" fill="#000" font-size="13" textLength="50.572">SELECT</text><text x="1389.748" y="917.636" fill="#000" font-size="13" textLength="73.709">Organization</text><text x="1412.511" y="933.987" fill="#000" font-size="13" textLength="13.73">by</text><text x="1426.241" y="933.987" fill="#000" font-size="13"> </text><text x="1429.853" y="933.987" fill="#000" font-size="13" textLength="10.842">Id</text><polygon points="1371.735,965.195,1361.735,969.195,1371.735,973.195,1367.735,969.195" fill="#181818" style="stroke:#181818;stroke-width:1;stroke-linejoin:miter;stroke-miterlimit:10;"/><line x1="1365.735" y1="969.195" x2="1473.01" y2="969.195" style="stroke:#181818;stroke-width:1;stroke-dasharray:2,2;"/><text x="1372.742" y="964.339" fill="#000" font-size="13" textLength="14.46" font-weight="700">16</text><text x="1391.202" y="964.339" fill="#000" font-size="13" textLength="35.401">Query</text><text x="1426.603" y="964.339" fill="#000" font-size="13"> </text><text x="1430.214" y="964.339" fill="#000" font-size="13" textLength="31.789">result</text><polygon points="1101.174,1011.898,1091.174,1015.898,1101.174,1019.898,1097.174,1015.898" fill="#181818" style="stroke:#181818;stroke-width:1;stroke-linejoin:miter;stroke-miterlimit:10;"/><line x1="1095.174" y1="1015.898" x2="1349.735" y2="1015.898" style="stroke:#181818;stroke-width:1;stroke-dasharray:2,2;"/><text x="1176.183" y="1002.866" fill="#000" font-size="13" textLength="14.46" font-weight="700">17</text><text x="1194.643" y="994.69" fill="#000" font-size="13" textLength="70.084">Materialized</text><text x="1213.79" y="1011.042" fill="#000" font-size="13" textLength="31.789">result</text><polygon points="585.359,1058.602,575.359,1062.602,585.359,1066.602,581.359,1062.602" fill="#181818" style="stroke:#181818;stroke-width:1;stroke-linejoin:miter;stroke-miterlimit:10;"/><line x1="579.359" y1="1062.602" x2="1079.174" y2="1062.602" style="stroke:#181818;stroke-width:1;stroke-dasharray:2,2;"/><text x="776.146" y="1049.569" fill="#000" font-size="13" textLength="14.46" font-weight="700">18</text><text x="799.642" y="1041.394" fill="#000" font-size="13" textLength="73.709">Organization</text><text x="794.605" y="1057.745" fill="#000" font-size="13" textLength="83.783">(MemberLimit)</text><polygon points="908.385,1105.305,918.385,1109.305,908.385,1113.305,912.385,1109.305" fill="#181818" style="stroke:#181818;stroke-width:1;stroke-linejoin:miter;stroke-miterlimit:10;"/><line x1="574.359" y1="1109.305" x2="914.385" y2="1109.305" style="stroke:#181818;stroke-width:1;"/><text x="583.859" y="1096.272" fill="#000" font-size="13" textLength="14.46" font-weight="700">19</text><text x="602.319" y="1088.097" fill="#000" font-size="13" textLength="308.566">CountByOrganizationAndStatusAsync(organizationId,</text><text x="736.737" y="1104.448" fill="#000" font-size="13" textLength="39.73">Active)</text><polygon points="1338.735,1184.711,1348.735,1188.711,1338.735,1192.711,1342.735,1188.711" fill="#181818" style="stroke:#181818;stroke-width:1;stroke-linejoin:miter;stroke-miterlimit:10;"/><line x1="930.385" y1="1188.711" x2="1344.735" y2="1188.711" style="stroke:#181818;stroke-width:1;"/><text x="1086.525" y="1159.327" fill="#000" font-size="13" textLength="14.46" font-weight="700">20</text><text x="1113.659" y="1134.8" fill="#000" font-size="13" textLength="34.69">Count</text><text x="1148.349" y="1134.8" fill="#000" font-size="13"> </text><text x="1151.961" y="1134.8" fill="#000" font-size="13" textLength="33.96">active</text><text x="1123.774" y="1151.151" fill="#000" font-size="13" textLength="52.032">accounts</text><text x="1104.985" y="1167.503" fill="#000" font-size="13" textLength="89.61">(organizationId,</text><text x="1129.925" y="1183.854" fill="#000" font-size="13" textLength="39.73">Active)</text><polygon points="1462.01,1264.117,1472.01,1268.117,1462.01,1272.117,1466.01,1268.117" fill="#181818" style="stroke:#181818;stroke-width:1;stroke-linejoin:miter;stroke-miterlimit:10;"/><line x1="1360.735" y1="1268.117" x2="1468.01" y2="1268.117" style="stroke:#181818;stroke-width:1;"/><text x="1372.729" y="1238.733" fill="#000" font-size="13" textLength="14.46" font-weight="700">21</text><text x="1403.494" y="1214.206" fill="#000" font-size="13" textLength="46.217">COUNT</text><text x="1409.623" y="1230.558" fill="#000" font-size="13" textLength="33.96">active</text><text x="1393.001" y="1246.909" fill="#000" font-size="13" textLength="53.473">Accounts</text><text x="1446.474" y="1246.909" fill="#000" font-size="13"> </text><text x="1450.086" y="1246.909" fill="#000" font-size="13" textLength="10.118">in</text><text x="1391.189" y="1263.261" fill="#000" font-size="13" textLength="70.827">organization</text><polygon points="1371.735,1294.469,1361.735,1298.469,1371.735,1302.469,1367.735,1298.469" fill="#181818" style="stroke:#181818;stroke-width:1;stroke-linejoin:miter;stroke-miterlimit:10;"/><line x1="1365.735" y1="1298.469" x2="1473.01" y2="1298.469" style="stroke:#181818;stroke-width:1;stroke-dasharray:2,2;"/><text x="1372.742" y="1293.612" fill="#000" font-size="13" textLength="14.46" font-weight="700">22</text><text x="1391.202" y="1293.612" fill="#000" font-size="13" textLength="35.401">Query</text><text x="1426.603" y="1293.612" fill="#000" font-size="13"> </text><text x="1430.214" y="1293.612" fill="#000" font-size="13" textLength="31.789">result</text><polygon points="941.385,1341.172,931.385,1345.172,941.385,1349.172,937.385,1345.172" fill="#181818" style="stroke:#181818;stroke-width:1;stroke-linejoin:miter;stroke-miterlimit:10;"/><line x1="935.385" y1="1345.172" x2="1349.735" y2="1345.172" style="stroke:#181818;stroke-width:1;stroke-dasharray:2,2;"/><text x="1096.288" y="1332.14" fill="#000" font-size="13" textLength="14.46" font-weight="700">23</text><text x="1114.748" y="1323.964" fill="#000" font-size="13" textLength="70.084">Materialized</text><text x="1133.896" y="1340.315" fill="#000" font-size="13" textLength="31.789">result</text><polygon points="585.359,1420.578,575.359,1424.578,585.359,1428.578,581.359,1424.578" fill="#181818" style="stroke:#181818;stroke-width:1;stroke-linejoin:miter;stroke-miterlimit:10;"/><line x1="579.359" y1="1424.578" x2="919.385" y2="1424.578" style="stroke:#181818;stroke-width:1;stroke-dasharray:2,2;"/><text x="715.376" y="1395.194" fill="#000" font-size="13" textLength="14.46" font-weight="700">24</text><text x="736.372" y="1370.667" fill="#000" font-size="13" textLength="40.46">current</text><text x="739.622" y="1387.019" fill="#000" font-size="13" textLength="33.96">active</text><text x="733.836" y="1403.37" fill="#000" font-size="13" textLength="45.532">account</text><text x="740.701" y="1419.722" fill="#000" font-size="13" textLength="31.802">count</text><path d="M51,1436.578 L111.171,1436.578 L111.171,1444.93 L101.171,1454.93 L51,1454.93 L51,1436.578" style="stroke:#000;stroke-width:1.5;" fill="#EEE"/><rect x="51" y="1436.578" width="1474.01" height="1574.711" fill="none" style="stroke:#000;stroke-width:1.5;"/><text x="66" y="1451.073" fill="#000" font-size="13" textLength="15.171" font-weight="700">alt</text><text x="126.171" y="1449.997" fill="#000" font-size="11" textLength="157.717" font-weight="700">[Active-member limit reached]</text><polygon points="397.553,1532.336,387.553,1536.336,397.553,1540.336,393.553,1536.336" fill="#181818" style="stroke:#181818;stroke-width:1;stroke-linejoin:miter;stroke-miterlimit:10;"/><line x1="391.553" y1="1536.336" x2="563.359" y2="1536.336" style="stroke:#181818;stroke-width:1;stroke-dasharray:2,2;"/><text x="416.007" y="1506.952" fill="#000" font-size="13" textLength="14.46" font-weight="700">25</text><text x="468.792" y="1482.425" fill="#000" font-size="13" textLength="31.789">throw</text><text x="434.467" y="1498.776" fill="#000" font-size="13" textLength="100.439">ConflictException</text><text x="470.969" y="1515.128" fill="#000" font-size="13" textLength="27.435">(limit</text><text x="459.032" y="1531.479" fill="#000" font-size="13" textLength="51.308">reached)</text><polygon points="121,1562.688,111,1566.688,121,1570.688,117,1566.688" fill="#181818" style="stroke:#181818;stroke-width:1;stroke-linejoin:miter;stroke-miterlimit:10;"/><line x1="115" y1="1566.688" x2="375.553" y2="1566.688" style="stroke:#181818;stroke-width:1;stroke-dasharray:2,2;"/><text x="199.722" y="1561.831" fill="#000" font-size="13" textLength="14.46" font-weight="700">26</text><text x="218.182" y="1561.831" fill="#000" font-size="13" textLength="21.69">409</text><text x="239.872" y="1561.831" fill="#000" font-size="13"> </text><text x="243.483" y="1561.831" fill="#000" font-size="13" textLength="43.348">Conflict</text><line x1="51" y1="1575.688" x2="1525.01" y2="1575.688" style="stroke:#000;stroke-width:1;stroke-dasharray:2,2;"/><text x="56" y="1589.106" fill="#000" font-size="11" textLength="64.775" font-weight="700">[Under limit]</text><polygon points="908.385,1612.875,918.385,1616.875,908.385,1620.875,912.385,1616.875" fill="#181818" style="stroke:#181818;stroke-width:1;stroke-linejoin:miter;stroke-miterlimit:10;"/><line x1="574.359" y1="1616.875" x2="914.385" y2="1616.875" style="stroke:#181818;stroke-width:1;"/><text x="652.535" y="1612.019" fill="#000" font-size="13" textLength="14.46" font-weight="700">27</text><text x="670.995" y="1612.019" fill="#000" font-size="13" textLength="171.215">FindByEmailAsync(dto.Email)</text><polygon points="1338.735,1692.281,1348.735,1696.281,1338.735,1700.281,1342.735,1696.281" fill="#181818" style="stroke:#181818;stroke-width:1;stroke-linejoin:miter;stroke-miterlimit:10;"/><line x1="930.385" y1="1696.281" x2="1344.735" y2="1696.281" style="stroke:#181818;stroke-width:1;"/><text x="1099.173" y="1666.897" fill="#000" font-size="13" textLength="14.46" font-weight="700">28</text><text x="1132.09" y="1642.37" fill="#000" font-size="13" textLength="35.401">Query</text><text x="1117.633" y="1658.722" fill="#000" font-size="13" textLength="46.973">Account</text><text x="1164.606" y="1658.722" fill="#000" font-size="13"> </text><text x="1168.218" y="1658.722" fill="#000" font-size="13" textLength="13.73">by</text><text x="1133.537" y="1675.073" fill="#000" font-size="13" textLength="32.506">Email</text><text x="1118.366" y="1691.425" fill="#000" font-size="13" textLength="62.848">(dto.Email)</text><polygon points="1462.01,1755.336,1472.01,1759.336,1462.01,1763.336,1466.01,1759.336" fill="#181818" style="stroke:#181818;stroke-width:1;stroke-linejoin:miter;stroke-miterlimit:10;"/><line x1="1360.735" y1="1759.336" x2="1468.01" y2="1759.336" style="stroke:#181818;stroke-width:1;"/><text x="1375.985" y="1738.128" fill="#000" font-size="13" textLength="14.46" font-weight="700">29</text><text x="1401.317" y="1721.776" fill="#000" font-size="13" textLength="50.572">SELECT</text><text x="1394.445" y="1738.128" fill="#000" font-size="13" textLength="46.973">Account</text><text x="1441.418" y="1738.128" fill="#000" font-size="13"> </text><text x="1445.03" y="1738.128" fill="#000" font-size="13" textLength="13.73">by</text><text x="1410.349" y="1754.479" fill="#000" font-size="13" textLength="32.506">Email</text><polygon points="1371.735,1785.688,1361.735,1789.688,1371.735,1793.688,1367.735,1789.688" fill="#181818" style="stroke:#181818;stroke-width:1;stroke-linejoin:miter;stroke-miterlimit:10;"/><line x1="1365.735" y1="1789.688" x2="1473.01" y2="1789.688" style="stroke:#181818;stroke-width:1;stroke-dasharray:2,2;"/><text x="1372.742" y="1784.831" fill="#000" font-size="13" textLength="14.46" font-weight="700">30</text><text x="1391.202" y="1784.831" fill="#000" font-size="13" textLength="35.401">Query</text><text x="1426.603" y="1784.831" fill="#000" font-size="13"> </text><text x="1430.214" y="1784.831" fill="#000" font-size="13" textLength="31.789">result</text><polygon points="941.385,1832.391,931.385,1836.391,941.385,1840.391,937.385,1836.391" fill="#181818" style="stroke:#181818;stroke-width:1;stroke-linejoin:miter;stroke-miterlimit:10;"/><line x1="935.385" y1="1836.391" x2="1349.735" y2="1836.391" style="stroke:#181818;stroke-width:1;stroke-dasharray:2,2;"/><text x="1096.288" y="1823.358" fill="#000" font-size="13" textLength="14.46" font-weight="700">31</text><text x="1114.748" y="1815.183" fill="#000" font-size="13" textLength="70.084">Materialized</text><text x="1133.896" y="1831.534" fill="#000" font-size="13" textLength="31.789">result</text><polygon points="585.359,1895.445,575.359,1899.445,585.359,1903.445,581.359,1899.445" fill="#181818" style="stroke:#181818;stroke-width:1;stroke-linejoin:miter;stroke-miterlimit:10;"/><line x1="579.359" y1="1899.445" x2="919.385" y2="1899.445" style="stroke:#181818;stroke-width:1;stroke-dasharray:2,2;"/><text x="707.071" y="1878.237" fill="#000" font-size="13" textLength="14.46" font-weight="700">32</text><text x="734.563" y="1861.886" fill="#000" font-size="13" textLength="44.078">existing</text><text x="725.531" y="1878.237" fill="#000" font-size="13" textLength="46.973">Account</text><text x="772.503" y="1878.237" fill="#000" font-size="13"> </text><text x="776.115" y="1878.237" fill="#000" font-size="13" textLength="11.559">or</text><text x="746.484" y="1894.589" fill="#000" font-size="13" textLength="20.236">null</text><path d="M70,1911.445 L130.171,1911.445 L130.171,1919.797 L120.171,1929.797 L70,1929.797 L70,1911.445" style="stroke:#000;stroke-width:1.5;" fill="#EEE"/><rect x="70" y="1911.445" width="1430.01" height="1085.844" fill="none" style="stroke:#000;stroke-width:1.5;"/><text x="85" y="1925.94" fill="#000" font-size="13" textLength="15.171" font-weight="700">alt</text><text x="145.171" y="1924.864" fill="#000" font-size="11" textLength="257.351" font-weight="700">[Email already has an account (Invited or Active)]</text><polygon points="397.553,2007.203,387.553,2011.203,397.553,2015.203,393.553,2011.203" fill="#181818" style="stroke:#181818;stroke-width:1;stroke-linejoin:miter;stroke-miterlimit:10;"/><line x1="391.553" y1="2011.203" x2="563.359" y2="2011.203" style="stroke:#181818;stroke-width:1;stroke-dasharray:2,2;"/><text x="416.007" y="1981.819" fill="#000" font-size="13" textLength="14.46" font-weight="700">33</text><text x="468.792" y="1957.292" fill="#000" font-size="13" textLength="31.789">throw</text><text x="434.467" y="1973.644" fill="#000" font-size="13" textLength="100.439">ConflictException</text><text x="461.203" y="1989.995" fill="#000" font-size="13" textLength="46.966">(already</text><text x="453.618" y="2006.347" fill="#000" font-size="13" textLength="62.137">registered)</text><polygon points="121,2037.555,111,2041.555,121,2045.555,117,2041.555" fill="#181818" style="stroke:#181818;stroke-width:1;stroke-linejoin:miter;stroke-miterlimit:10;"/><line x1="115" y1="2041.555" x2="375.553" y2="2041.555" style="stroke:#181818;stroke-width:1;stroke-dasharray:2,2;"/><text x="199.722" y="2036.698" fill="#000" font-size="13" textLength="14.46" font-weight="700">34</text><text x="218.182" y="2036.698" fill="#000" font-size="13" textLength="21.69">409</text><text x="239.872" y="2036.698" fill="#000" font-size="13"> </text><text x="243.483" y="2036.698" fill="#000" font-size="13" textLength="43.348">Conflict</text><line x1="70" y1="2050.555" x2="1500.01" y2="2050.555" style="stroke:#000;stroke-width:1;stroke-dasharray:2,2;"/><text x="75" y="2063.974" fill="#000" font-size="11" textLength="86.206" font-weight="700">[Email available]</text><polygon points="1216.294,2104.094,1226.294,2108.094,1216.294,2112.094,1220.294,2108.094" fill="#181818" style="stroke:#181818;stroke-width:1;stroke-linejoin:miter;stroke-miterlimit:10;"/><line x1="574.359" y1="2108.094" x2="1222.294" y2="2108.094" style="stroke:#181818;stroke-width:1;"/><text x="828.868" y="2095.062" fill="#000" font-size="13" textLength="14.46" font-weight="700">35</text><text x="847.328" y="2086.886" fill="#000" font-size="13" textLength="126.458">ToInvitedAccount(dto,</text><text x="867.558" y="2103.237" fill="#000" font-size="13" textLength="85.998">organizationId)</text><polygon points="585.359,2232.555,575.359,2236.555,585.359,2240.555,581.359,2236.555" fill="#181818" style="stroke:#181818;stroke-width:1;stroke-linejoin:miter;stroke-miterlimit:10;"/><line x1="579.359" y1="2236.555" x2="1227.294" y2="2236.555" style="stroke:#181818;stroke-width:1;stroke-dasharray:2,2;"/><text x="849.107" y="2182.644" fill="#000" font-size="13" textLength="14.46" font-weight="700">36</text><text x="898.633" y="2133.589" fill="#000" font-size="13" textLength="23.848">new</text><text x="867.567" y="2149.94" fill="#000" font-size="13" textLength="85.979">Account(email,</text><text x="897.912" y="2166.292" fill="#000" font-size="13" textLength="25.289">role:</text><text x="884.912" y="2182.644" fill="#000" font-size="13" textLength="51.289">Member,</text><text x="891.409" y="2198.995" fill="#000" font-size="13" textLength="38.295">status:</text><text x="889.6" y="2215.347" fill="#000" font-size="13" textLength="41.914">Invited,</text><text x="872.979" y="2231.698" fill="#000" font-size="13" textLength="75.156">organization)</text><polygon points="908.385,2262.906,918.385,2266.906,908.385,2270.906,912.385,2266.906" fill="#181818" style="stroke:#181818;stroke-width:1;stroke-linejoin:miter;stroke-miterlimit:10;"/><line x1="574.359" y1="2266.906" x2="914.385" y2="2266.906" style="stroke:#181818;stroke-width:1;"/><text x="699.482" y="2262.05" fill="#000" font-size="13" textLength="14.46" font-weight="700">37</text><text x="717.942" y="2262.05" fill="#000" font-size="13" textLength="77.321">Add(account)</text><polygon points="1338.735,2325.961,1348.735,2329.961,1338.735,2333.961,1342.735,2329.961" fill="#181818" style="stroke:#181818;stroke-width:1;stroke-linejoin:miter;stroke-miterlimit:10;"/><line x1="930.385" y1="2329.961" x2="1344.735" y2="2329.961" style="stroke:#181818;stroke-width:1;"/><text x="1099.894" y="2308.753" fill="#000" font-size="13" textLength="14.46" font-weight="700">38</text><text x="1133.54" y="2292.401" fill="#000" font-size="13" textLength="32.5">Track</text><text x="1118.354" y="2308.753" fill="#000" font-size="13" textLength="45.532">account</text><text x="1163.885" y="2308.753" fill="#000" font-size="13"> </text><text x="1167.497" y="2308.753" fill="#000" font-size="13" textLength="13.73">as</text><text x="1130.995" y="2325.104" fill="#000" font-size="13" textLength="37.591">Added</text><polygon points="941.385,2372.664,931.385,2376.664,941.385,2380.664,937.385,2376.664" fill="#181818" style="stroke:#181818;stroke-width:1;stroke-linejoin:miter;stroke-miterlimit:10;"/><line x1="935.385" y1="2376.664" x2="1349.735" y2="2376.664" style="stroke:#181818;stroke-width:1;stroke-dasharray:2,2;"/><text x="1094.854" y="2363.632" fill="#000" font-size="13" textLength="14.46" font-weight="700">39</text><text x="1115.11" y="2355.456" fill="#000" font-size="13" textLength="46.96">Tracked</text><text x="1162.07" y="2355.456" fill="#000" font-size="13"> </text><text x="1165.682" y="2355.456" fill="#000" font-size="13" textLength="18.789">(no</text><text x="1113.313" y="2371.808" fill="#000" font-size="13" textLength="47.671">INSERT</text><text x="1160.984" y="2371.808" fill="#000" font-size="13"> </text><text x="1164.596" y="2371.808" fill="#000" font-size="13" textLength="21.671">yet)</text><polygon points="585.359,2419.367,575.359,2423.367,585.359,2427.367,581.359,2423.367" fill="#181818" style="stroke:#181818;stroke-width:1;stroke-linejoin:miter;stroke-miterlimit:10;"/><line x1="579.359" y1="2423.367" x2="919.385" y2="2423.367" style="stroke:#181818;stroke-width:1;stroke-dasharray:2,2;"/><text x="704.906" y="2410.335" fill="#000" font-size="13" textLength="14.46" font-weight="700">40</text><text x="730.58" y="2402.159" fill="#000" font-size="13" textLength="37.591">Added</text><text x="768.171" y="2402.159" fill="#000" font-size="13"> </text><text x="771.783" y="2402.159" fill="#000" font-size="13" textLength="10.842">to</text><text x="723.366" y="2418.511" fill="#000" font-size="13" textLength="20.96">unit</text><text x="744.326" y="2418.511" fill="#000" font-size="13"> </text><text x="747.938" y="2418.511" fill="#000" font-size="13" textLength="10.842">of</text><text x="758.78" y="2418.511" fill="#000" font-size="13"> </text><text x="762.391" y="2418.511" fill="#000" font-size="13" textLength="27.447">work</text><polygon points="1338.735,2449.719,1348.735,2453.719,1338.735,2457.719,1342.735,2453.719" fill="#181818" style="stroke:#181818;stroke-width:1;stroke-linejoin:miter;stroke-miterlimit:10;"/><line x1="574.359" y1="2453.719" x2="1344.735" y2="2453.719" style="stroke:#181818;stroke-width:1;"/><text x="890.453" y="2448.862" fill="#000" font-size="13" textLength="14.46" font-weight="700">41</text><text x="908.913" y="2448.862" fill="#000" font-size="13" textLength="125.728">SaveChangesAsync()</text><polygon points="1462.01,2496.422,1472.01,2500.422,1462.01,2504.422,1466.01,2500.422" fill="#181818" style="stroke:#181818;stroke-width:1;stroke-linejoin:miter;stroke-miterlimit:10;"/><line x1="1360.735" y1="2500.422" x2="1468.01" y2="2500.422" style="stroke:#181818;stroke-width:1;"/><text x="1384.307" y="2487.39" fill="#000" font-size="13" textLength="14.46" font-weight="700">42</text><text x="1402.767" y="2479.214" fill="#000" font-size="13" textLength="47.671">INSERT</text><text x="1403.116" y="2495.565" fill="#000" font-size="13" textLength="46.973">Account</text><polygon points="1371.735,2575.828,1361.735,2579.828,1371.735,2583.828,1367.735,2579.828" fill="#181818" style="stroke:#181818;stroke-width:1;stroke-linejoin:miter;stroke-miterlimit:10;"/><line x1="1365.735" y1="2579.828" x2="1473.01" y2="2579.828" style="stroke:#181818;stroke-width:1;stroke-dasharray:2,2;"/><text x="1372.735" y="2550.444" fill="#000" font-size="13" textLength="14.46" font-weight="700">43</text><text x="1393.373" y="2525.917" fill="#000" font-size="13" textLength="66.46">Committed,</text><text x="1405.287" y="2542.269" fill="#000" font-size="13" textLength="11.559">or</text><text x="1416.846" y="2542.269" fill="#000" font-size="13"> </text><text x="1420.458" y="2542.269" fill="#000" font-size="13" textLength="27.46">save</text><text x="1391.195" y="2558.62" fill="#000" font-size="13" textLength="31.078">failed</text><text x="1422.273" y="2558.62" fill="#000" font-size="13"> </text><text x="1425.885" y="2558.62" fill="#000" font-size="13" textLength="36.125">(rolled</text><text x="1410.708" y="2574.972" fill="#000" font-size="13" textLength="31.789">back)</text><polygon points="585.359,2655.234,575.359,2659.234,585.359,2663.234,581.359,2659.234" fill="#181818" style="stroke:#181818;stroke-width:1;stroke-linejoin:miter;stroke-miterlimit:10;"/><line x1="579.359" y1="2659.234" x2="1349.735" y2="2659.234" style="stroke:#181818;stroke-width:1;stroke-dasharray:2,2;"/><text x="920.078" y="2629.851" fill="#000" font-size="13" textLength="14.46" font-weight="700">44</text><text x="939.261" y="2605.323" fill="#000" font-size="13" textLength="29.631">Save</text><text x="968.892" y="2605.323" fill="#000" font-size="13"> </text><text x="972.504" y="2605.323" fill="#000" font-size="13" textLength="31.789">result</text><text x="965.998" y="2621.675" fill="#000" font-size="13" textLength="11.559">or</text><text x="938.538" y="2638.026" fill="#000" font-size="13" textLength="66.479">persistence</text><text x="943.952" y="2654.378" fill="#000" font-size="13" textLength="55.65">exception</text><path d="M89,2671.234 L149.171,2671.234 L149.171,2679.586 L139.171,2689.586 L89,2689.586 L89,2671.234" style="stroke:#000;stroke-width:1.5;" fill="#EEE"/><rect x="89" y="2671.234" width="1165.294" height="312.055" fill="none" style="stroke:#000;stroke-width:1.5;"/><text x="104" y="2685.729" fill="#000" font-size="13" textLength="15.171" font-weight="700">alt</text><text x="164.171" y="2684.653" fill="#000" font-size="11" textLength="92.936" font-weight="700">[Save succeeded]</text><polygon points="1216.294,2750.641,1226.294,2754.641,1216.294,2758.641,1220.294,2754.641" fill="#181818" style="stroke:#181818;stroke-width:1;stroke-linejoin:miter;stroke-miterlimit:10;"/><line x1="574.359" y1="2754.641" x2="1222.294" y2="2754.641" style="stroke:#181818;stroke-width:1;"/><text x="854.881" y="2733.433" fill="#000" font-size="13" textLength="14.46" font-weight="700">45</text><text x="873.341" y="2717.081" fill="#000" font-size="13" textLength="25.289">Map</text><text x="898.63" y="2717.081" fill="#000" font-size="13"> </text><text x="902.241" y="2717.081" fill="#000" font-size="13" textLength="45.532">account</text><text x="905.136" y="2733.433" fill="#000" font-size="13" textLength="10.842">to</text><text x="876.956" y="2749.784" fill="#000" font-size="13" textLength="67.203">AccountDto</text><polygon points="585.359,2780.992,575.359,2784.992,585.359,2788.992,581.359,2784.992" fill="#181818" style="stroke:#181818;stroke-width:1;stroke-linejoin:miter;stroke-miterlimit:10;"/><line x1="579.359" y1="2784.992" x2="1227.294" y2="2784.992" style="stroke:#181818;stroke-width:1;stroke-dasharray:2,2;"/><text x="858.496" y="2780.136" fill="#000" font-size="13" textLength="14.46" font-weight="700">46</text><text x="876.956" y="2780.136" fill="#000" font-size="13" textLength="67.203">AccountDto</text><polygon points="397.553,2811.344,387.553,2815.344,397.553,2819.344,393.553,2815.344" fill="#181818" style="stroke:#181818;stroke-width:1;stroke-linejoin:miter;stroke-miterlimit:10;"/><line x1="391.553" y1="2815.344" x2="563.359" y2="2815.344" style="stroke:#181818;stroke-width:1;stroke-dasharray:2,2;"/><text x="432.625" y="2810.487" fill="#000" font-size="13" textLength="14.46" font-weight="700">47</text><text x="451.085" y="2810.487" fill="#000" font-size="13" textLength="67.203">AccountDto</text><polygon points="121,2858.047,111,2862.047,121,2866.047,117,2862.047" fill="#181818" style="stroke:#181818;stroke-width:1;stroke-linejoin:miter;stroke-miterlimit:10;"/><line x1="115" y1="2862.047" x2="375.553" y2="2862.047" style="stroke:#181818;stroke-width:1;stroke-dasharray:2,2;"/><text x="196.116" y="2849.015" fill="#000" font-size="13" textLength="14.46" font-weight="700">48</text><text x="216.731" y="2840.839" fill="#000" font-size="13" textLength="21.69">201</text><text x="238.421" y="2840.839" fill="#000" font-size="13"> </text><text x="242.033" y="2840.839" fill="#000" font-size="13" textLength="46.249">Created</text><text x="214.576" y="2857.19" fill="#000" font-size="13" textLength="75.861">(AccountDto)</text><line x1="89" y1="2871.047" x2="1254.294" y2="2871.047" style="stroke:#000;stroke-width:1;stroke-dasharray:2,2;"/><text x="94" y="2884.466" fill="#000" font-size="11" textLength="64.802" font-weight="700">[Save failed]</text><polygon points="397.553,2924.586,387.553,2928.586,397.553,2932.586,393.553,2928.586" fill="#181818" style="stroke:#181818;stroke-width:1;stroke-linejoin:miter;stroke-miterlimit:10;"/><line x1="391.553" y1="2928.586" x2="563.359" y2="2928.586" style="stroke:#181818;stroke-width:1;stroke-dasharray:2,2;"/><text x="432.266" y="2915.554" fill="#000" font-size="13" textLength="14.46" font-weight="700">49</text><text x="450.726" y="2907.378" fill="#000" font-size="13" textLength="67.92">Persistence</text><text x="466.983" y="2923.729" fill="#000" font-size="13" textLength="35.407">failure</text><polygon points="121,2971.289,111,2975.289,121,2979.289,117,2975.289" fill="#181818" style="stroke:#181818;stroke-width:1;stroke-linejoin:miter;stroke-miterlimit:10;"/><line x1="115" y1="2975.289" x2="375.553" y2="2975.289" style="stroke:#181818;stroke-width:1;stroke-dasharray:2,2;"/><text x="198.652" y="2962.257" fill="#000" font-size="13" textLength="14.46" font-weight="700">50</text><text x="218.175" y="2954.081" fill="#000" font-size="13" textLength="21.69">500</text><text x="239.865" y="2954.081" fill="#000" font-size="13"> </text><text x="243.477" y="2954.081" fill="#000" font-size="13" textLength="43.361">Internal</text><text x="217.112" y="2970.433" fill="#000" font-size="13" textLength="38.289">Server</text><text x="255.401" y="2970.433" fill="#000" font-size="13"> </text><text x="259.013" y="2970.433" fill="#000" font-size="13" textLength="28.888">Error</text></g></svg>